<mxfile host="app.diagrams.net" modified="2024-05-19T12:02:26.627Z" agent="Mozilla/5.0 (Windows NT 10.0; Win64; x64) AppleWebKit/537.36 (KHTML, like Gecko) Chrome/124.0.0.0 Safari/537.36" etag="q3f8-LJESy4ma_midSab" version="24.4.4" type="device">
  <diagram name="Page-1" id="ntqxANwW5wD7HvOib9oI">
    <mxGraphModel dx="5127" dy="2909" grid="1" gridSize="10" guides="1" tooltips="1" connect="1" arrows="1" fold="1" page="1" pageScale="1" pageWidth="827" pageHeight="1169" math="0" shadow="0">
      <root>
        <mxCell id="0" />
        <mxCell id="1" parent="0" />
        <mxCell id="vS6UbNGED4iVd90E8qPK-372" style="edgeStyle=orthogonalEdgeStyle;rounded=0;orthogonalLoop=1;jettySize=auto;html=1;exitX=0.5;exitY=0;exitDx=0;exitDy=0;entryX=1;entryY=0.5;entryDx=0;entryDy=0;endArrow=none;endFill=0;" parent="1" source="vS6UbNGED4iVd90E8qPK-133" target="vS6UbNGED4iVd90E8qPK-364" edge="1">
          <mxGeometry relative="1" as="geometry" />
        </mxCell>
        <mxCell id="vS6UbNGED4iVd90E8qPK-373" style="edgeStyle=orthogonalEdgeStyle;rounded=0;orthogonalLoop=1;jettySize=auto;html=1;exitX=0.25;exitY=0;exitDx=0;exitDy=0;entryX=1;entryY=0.5;entryDx=0;entryDy=0;endArrow=none;endFill=0;" parent="1" source="vS6UbNGED4iVd90E8qPK-133" target="vS6UbNGED4iVd90E8qPK-370" edge="1">
          <mxGeometry relative="1" as="geometry" />
        </mxCell>
        <mxCell id="vS6UbNGED4iVd90E8qPK-699" style="edgeStyle=orthogonalEdgeStyle;rounded=0;orthogonalLoop=1;jettySize=auto;html=1;exitX=0;exitY=0;exitDx=0;exitDy=0;entryX=0.5;entryY=0;entryDx=0;entryDy=0;endArrow=none;endFill=0;" parent="1" source="vS6UbNGED4iVd90E8qPK-133" target="vS6UbNGED4iVd90E8qPK-694" edge="1">
          <mxGeometry relative="1" as="geometry">
            <Array as="points">
              <mxPoint x="1840" y="585" />
              <mxPoint x="1840" y="950" />
              <mxPoint x="1898" y="950" />
            </Array>
          </mxGeometry>
        </mxCell>
        <mxCell id="vS6UbNGED4iVd90E8qPK-133" value="Users" style="shape=table;startSize=30;container=1;collapsible=0;childLayout=tableLayout;fixedRows=1;rowLines=0;fontStyle=1;" parent="1" vertex="1">
          <mxGeometry x="1850" y="585" width="180" height="210" as="geometry" />
        </mxCell>
        <mxCell id="vS6UbNGED4iVd90E8qPK-134" value="" style="shape=tableRow;horizontal=0;startSize=0;swimlaneHead=0;swimlaneBody=0;top=0;left=0;bottom=0;right=0;collapsible=0;dropTarget=0;fillColor=none;points=[[0,0.5],[1,0.5]];portConstraint=eastwest;" parent="vS6UbNGED4iVd90E8qPK-133" vertex="1">
          <mxGeometry y="30" width="180" height="30" as="geometry" />
        </mxCell>
        <mxCell id="vS6UbNGED4iVd90E8qPK-135" value="PK" style="shape=partialRectangle;html=1;whiteSpace=wrap;connectable=0;fillColor=none;top=0;left=0;bottom=0;right=0;overflow=hidden;pointerEvents=1;" parent="vS6UbNGED4iVd90E8qPK-134" vertex="1">
          <mxGeometry width="40" height="30" as="geometry">
            <mxRectangle width="40" height="30" as="alternateBounds" />
          </mxGeometry>
        </mxCell>
        <mxCell id="vS6UbNGED4iVd90E8qPK-136" value="UserID" style="shape=partialRectangle;html=1;whiteSpace=wrap;connectable=0;fillColor=none;top=0;left=0;bottom=0;right=0;align=left;spacingLeft=6;overflow=hidden;" parent="vS6UbNGED4iVd90E8qPK-134" vertex="1">
          <mxGeometry x="40" width="140" height="30" as="geometry">
            <mxRectangle width="140" height="30" as="alternateBounds" />
          </mxGeometry>
        </mxCell>
        <mxCell id="vS6UbNGED4iVd90E8qPK-137" value="" style="shape=tableRow;horizontal=0;startSize=0;swimlaneHead=0;swimlaneBody=0;top=0;left=0;bottom=0;right=0;collapsible=0;dropTarget=0;fillColor=none;points=[[0,0.5],[1,0.5]];portConstraint=eastwest;" parent="vS6UbNGED4iVd90E8qPK-133" vertex="1">
          <mxGeometry y="60" width="180" height="30" as="geometry" />
        </mxCell>
        <mxCell id="vS6UbNGED4iVd90E8qPK-138" value="" style="shape=partialRectangle;html=1;whiteSpace=wrap;connectable=0;fillColor=none;top=0;left=0;bottom=0;right=0;overflow=hidden;" parent="vS6UbNGED4iVd90E8qPK-137" vertex="1">
          <mxGeometry width="40" height="30" as="geometry">
            <mxRectangle width="40" height="30" as="alternateBounds" />
          </mxGeometry>
        </mxCell>
        <mxCell id="vS6UbNGED4iVd90E8qPK-139" value="Username" style="shape=partialRectangle;html=1;whiteSpace=wrap;connectable=0;fillColor=none;top=0;left=0;bottom=0;right=0;align=left;spacingLeft=6;overflow=hidden;" parent="vS6UbNGED4iVd90E8qPK-137" vertex="1">
          <mxGeometry x="40" width="140" height="30" as="geometry">
            <mxRectangle width="140" height="30" as="alternateBounds" />
          </mxGeometry>
        </mxCell>
        <mxCell id="vS6UbNGED4iVd90E8qPK-140" value="" style="shape=tableRow;horizontal=0;startSize=0;swimlaneHead=0;swimlaneBody=0;top=0;left=0;bottom=0;right=0;collapsible=0;dropTarget=0;fillColor=none;points=[[0,0.5],[1,0.5]];portConstraint=eastwest;" parent="vS6UbNGED4iVd90E8qPK-133" vertex="1">
          <mxGeometry y="90" width="180" height="30" as="geometry" />
        </mxCell>
        <mxCell id="vS6UbNGED4iVd90E8qPK-141" value="" style="shape=partialRectangle;html=1;whiteSpace=wrap;connectable=0;fillColor=none;top=0;left=0;bottom=0;right=0;overflow=hidden;" parent="vS6UbNGED4iVd90E8qPK-140" vertex="1">
          <mxGeometry width="40" height="30" as="geometry">
            <mxRectangle width="40" height="30" as="alternateBounds" />
          </mxGeometry>
        </mxCell>
        <mxCell id="vS6UbNGED4iVd90E8qPK-142" value="Contact" style="shape=partialRectangle;html=1;whiteSpace=wrap;connectable=0;fillColor=none;top=0;left=0;bottom=0;right=0;align=left;spacingLeft=6;overflow=hidden;" parent="vS6UbNGED4iVd90E8qPK-140" vertex="1">
          <mxGeometry x="40" width="140" height="30" as="geometry">
            <mxRectangle width="140" height="30" as="alternateBounds" />
          </mxGeometry>
        </mxCell>
        <mxCell id="vS6UbNGED4iVd90E8qPK-143" style="shape=tableRow;horizontal=0;startSize=0;swimlaneHead=0;swimlaneBody=0;top=0;left=0;bottom=0;right=0;collapsible=0;dropTarget=0;fillColor=none;points=[[0,0.5],[1,0.5]];portConstraint=eastwest;" parent="vS6UbNGED4iVd90E8qPK-133" vertex="1">
          <mxGeometry y="120" width="180" height="30" as="geometry" />
        </mxCell>
        <mxCell id="vS6UbNGED4iVd90E8qPK-144" style="shape=partialRectangle;html=1;whiteSpace=wrap;connectable=0;fillColor=none;top=0;left=0;bottom=0;right=0;overflow=hidden;" parent="vS6UbNGED4iVd90E8qPK-143" vertex="1">
          <mxGeometry width="40" height="30" as="geometry">
            <mxRectangle width="40" height="30" as="alternateBounds" />
          </mxGeometry>
        </mxCell>
        <mxCell id="vS6UbNGED4iVd90E8qPK-145" value="RegistrationDate" style="shape=partialRectangle;html=1;whiteSpace=wrap;connectable=0;fillColor=none;top=0;left=0;bottom=0;right=0;align=left;spacingLeft=6;overflow=hidden;" parent="vS6UbNGED4iVd90E8qPK-143" vertex="1">
          <mxGeometry x="40" width="140" height="30" as="geometry">
            <mxRectangle width="140" height="30" as="alternateBounds" />
          </mxGeometry>
        </mxCell>
        <mxCell id="vS6UbNGED4iVd90E8qPK-146" style="shape=tableRow;horizontal=0;startSize=0;swimlaneHead=0;swimlaneBody=0;top=0;left=0;bottom=0;right=0;collapsible=0;dropTarget=0;fillColor=none;points=[[0,0.5],[1,0.5]];portConstraint=eastwest;" parent="vS6UbNGED4iVd90E8qPK-133" vertex="1">
          <mxGeometry y="150" width="180" height="30" as="geometry" />
        </mxCell>
        <mxCell id="vS6UbNGED4iVd90E8qPK-147" style="shape=partialRectangle;html=1;whiteSpace=wrap;connectable=0;fillColor=none;top=0;left=0;bottom=0;right=0;overflow=hidden;" parent="vS6UbNGED4iVd90E8qPK-146" vertex="1">
          <mxGeometry width="40" height="30" as="geometry">
            <mxRectangle width="40" height="30" as="alternateBounds" />
          </mxGeometry>
        </mxCell>
        <mxCell id="vS6UbNGED4iVd90E8qPK-148" value="IsAdmin" style="shape=partialRectangle;html=1;whiteSpace=wrap;connectable=0;fillColor=none;top=0;left=0;bottom=0;right=0;align=left;spacingLeft=6;overflow=hidden;" parent="vS6UbNGED4iVd90E8qPK-146" vertex="1">
          <mxGeometry x="40" width="140" height="30" as="geometry">
            <mxRectangle width="140" height="30" as="alternateBounds" />
          </mxGeometry>
        </mxCell>
        <mxCell id="vS6UbNGED4iVd90E8qPK-149" style="shape=tableRow;horizontal=0;startSize=0;swimlaneHead=0;swimlaneBody=0;top=0;left=0;bottom=0;right=0;collapsible=0;dropTarget=0;fillColor=none;points=[[0,0.5],[1,0.5]];portConstraint=eastwest;" parent="vS6UbNGED4iVd90E8qPK-133" vertex="1">
          <mxGeometry y="180" width="180" height="30" as="geometry" />
        </mxCell>
        <mxCell id="vS6UbNGED4iVd90E8qPK-150" style="shape=partialRectangle;html=1;whiteSpace=wrap;connectable=0;fillColor=none;top=0;left=0;bottom=0;right=0;overflow=hidden;" parent="vS6UbNGED4iVd90E8qPK-149" vertex="1">
          <mxGeometry width="40" height="30" as="geometry">
            <mxRectangle width="40" height="30" as="alternateBounds" />
          </mxGeometry>
        </mxCell>
        <mxCell id="vS6UbNGED4iVd90E8qPK-151" value="IP" style="shape=partialRectangle;html=1;whiteSpace=wrap;connectable=0;fillColor=none;top=0;left=0;bottom=0;right=0;align=left;spacingLeft=6;overflow=hidden;" parent="vS6UbNGED4iVd90E8qPK-149" vertex="1">
          <mxGeometry x="40" width="140" height="30" as="geometry">
            <mxRectangle width="140" height="30" as="alternateBounds" />
          </mxGeometry>
        </mxCell>
        <mxCell id="vS6UbNGED4iVd90E8qPK-353" style="edgeStyle=orthogonalEdgeStyle;rounded=0;orthogonalLoop=1;jettySize=auto;html=1;exitX=0.75;exitY=0;exitDx=0;exitDy=0;entryX=0.5;entryY=0;entryDx=0;entryDy=0;" parent="1" source="vS6UbNGED4iVd90E8qPK-152" target="vS6UbNGED4iVd90E8qPK-254" edge="1">
          <mxGeometry relative="1" as="geometry" />
        </mxCell>
        <mxCell id="vS6UbNGED4iVd90E8qPK-356" style="edgeStyle=orthogonalEdgeStyle;rounded=0;orthogonalLoop=1;jettySize=auto;html=1;exitX=1;exitY=0;exitDx=0;exitDy=0;entryX=0.5;entryY=0;entryDx=0;entryDy=0;endArrow=none;endFill=0;" parent="1" source="vS6UbNGED4iVd90E8qPK-152" target="vS6UbNGED4iVd90E8qPK-352" edge="1">
          <mxGeometry relative="1" as="geometry">
            <Array as="points">
              <mxPoint x="1450" y="160" />
            </Array>
          </mxGeometry>
        </mxCell>
        <mxCell id="vS6UbNGED4iVd90E8qPK-369" style="edgeStyle=orthogonalEdgeStyle;rounded=0;orthogonalLoop=1;jettySize=auto;html=1;exitX=0.5;exitY=0;exitDx=0;exitDy=0;entryX=0.5;entryY=0;entryDx=0;entryDy=0;endArrow=none;endFill=0;" parent="1" source="vS6UbNGED4iVd90E8qPK-152" target="vS6UbNGED4iVd90E8qPK-364" edge="1">
          <mxGeometry relative="1" as="geometry">
            <Array as="points">
              <mxPoint x="1100" y="90" />
              <mxPoint x="1760" y="90" />
            </Array>
          </mxGeometry>
        </mxCell>
        <mxCell id="vS6UbNGED4iVd90E8qPK-152" value="LostItems" style="shape=table;startSize=30;container=1;collapsible=0;childLayout=tableLayout;fixedRows=1;rowLines=0;fontStyle=1;" parent="1" vertex="1">
          <mxGeometry x="1010" y="160" width="180" height="300" as="geometry" />
        </mxCell>
        <mxCell id="vS6UbNGED4iVd90E8qPK-153" value="" style="shape=tableRow;horizontal=0;startSize=0;swimlaneHead=0;swimlaneBody=0;top=0;left=0;bottom=0;right=0;collapsible=0;dropTarget=0;fillColor=none;points=[[0,0.5],[1,0.5]];portConstraint=eastwest;" parent="vS6UbNGED4iVd90E8qPK-152" vertex="1">
          <mxGeometry y="30" width="180" height="30" as="geometry" />
        </mxCell>
        <mxCell id="vS6UbNGED4iVd90E8qPK-154" value="PK" style="shape=partialRectangle;html=1;whiteSpace=wrap;connectable=0;fillColor=none;top=0;left=0;bottom=0;right=0;overflow=hidden;pointerEvents=1;" parent="vS6UbNGED4iVd90E8qPK-153" vertex="1">
          <mxGeometry width="40" height="30" as="geometry">
            <mxRectangle width="40" height="30" as="alternateBounds" />
          </mxGeometry>
        </mxCell>
        <mxCell id="vS6UbNGED4iVd90E8qPK-155" value="ItemID" style="shape=partialRectangle;html=1;whiteSpace=wrap;connectable=0;fillColor=none;top=0;left=0;bottom=0;right=0;align=left;spacingLeft=6;overflow=hidden;" parent="vS6UbNGED4iVd90E8qPK-153" vertex="1">
          <mxGeometry x="40" width="140" height="30" as="geometry">
            <mxRectangle width="140" height="30" as="alternateBounds" />
          </mxGeometry>
        </mxCell>
        <mxCell id="vS6UbNGED4iVd90E8qPK-156" value="" style="shape=tableRow;horizontal=0;startSize=0;swimlaneHead=0;swimlaneBody=0;top=0;left=0;bottom=0;right=0;collapsible=0;dropTarget=0;fillColor=none;points=[[0,0.5],[1,0.5]];portConstraint=eastwest;" parent="vS6UbNGED4iVd90E8qPK-152" vertex="1">
          <mxGeometry y="60" width="180" height="30" as="geometry" />
        </mxCell>
        <mxCell id="vS6UbNGED4iVd90E8qPK-157" value="" style="shape=partialRectangle;html=1;whiteSpace=wrap;connectable=0;fillColor=none;top=0;left=0;bottom=0;right=0;overflow=hidden;" parent="vS6UbNGED4iVd90E8qPK-156" vertex="1">
          <mxGeometry width="40" height="30" as="geometry">
            <mxRectangle width="40" height="30" as="alternateBounds" />
          </mxGeometry>
        </mxCell>
        <mxCell id="vS6UbNGED4iVd90E8qPK-158" value="ItemName" style="shape=partialRectangle;html=1;whiteSpace=wrap;connectable=0;fillColor=none;top=0;left=0;bottom=0;right=0;align=left;spacingLeft=6;overflow=hidden;" parent="vS6UbNGED4iVd90E8qPK-156" vertex="1">
          <mxGeometry x="40" width="140" height="30" as="geometry">
            <mxRectangle width="140" height="30" as="alternateBounds" />
          </mxGeometry>
        </mxCell>
        <mxCell id="vS6UbNGED4iVd90E8qPK-159" value="" style="shape=tableRow;horizontal=0;startSize=0;swimlaneHead=0;swimlaneBody=0;top=0;left=0;bottom=0;right=0;collapsible=0;dropTarget=0;fillColor=none;points=[[0,0.5],[1,0.5]];portConstraint=eastwest;" parent="vS6UbNGED4iVd90E8qPK-152" vertex="1">
          <mxGeometry y="90" width="180" height="30" as="geometry" />
        </mxCell>
        <mxCell id="vS6UbNGED4iVd90E8qPK-160" value="FK" style="shape=partialRectangle;html=1;whiteSpace=wrap;connectable=0;fillColor=none;top=0;left=0;bottom=0;right=0;overflow=hidden;" parent="vS6UbNGED4iVd90E8qPK-159" vertex="1">
          <mxGeometry width="40" height="30" as="geometry">
            <mxRectangle width="40" height="30" as="alternateBounds" />
          </mxGeometry>
        </mxCell>
        <mxCell id="vS6UbNGED4iVd90E8qPK-161" value="CategoryID" style="shape=partialRectangle;html=1;whiteSpace=wrap;connectable=0;fillColor=none;top=0;left=0;bottom=0;right=0;align=left;spacingLeft=6;overflow=hidden;" parent="vS6UbNGED4iVd90E8qPK-159" vertex="1">
          <mxGeometry x="40" width="140" height="30" as="geometry">
            <mxRectangle width="140" height="30" as="alternateBounds" />
          </mxGeometry>
        </mxCell>
        <mxCell id="vS6UbNGED4iVd90E8qPK-162" style="shape=tableRow;horizontal=0;startSize=0;swimlaneHead=0;swimlaneBody=0;top=0;left=0;bottom=0;right=0;collapsible=0;dropTarget=0;fillColor=none;points=[[0,0.5],[1,0.5]];portConstraint=eastwest;" parent="vS6UbNGED4iVd90E8qPK-152" vertex="1">
          <mxGeometry y="120" width="180" height="30" as="geometry" />
        </mxCell>
        <mxCell id="vS6UbNGED4iVd90E8qPK-163" style="shape=partialRectangle;html=1;whiteSpace=wrap;connectable=0;fillColor=none;top=0;left=0;bottom=0;right=0;overflow=hidden;" parent="vS6UbNGED4iVd90E8qPK-162" vertex="1">
          <mxGeometry width="40" height="30" as="geometry">
            <mxRectangle width="40" height="30" as="alternateBounds" />
          </mxGeometry>
        </mxCell>
        <mxCell id="vS6UbNGED4iVd90E8qPK-164" value="Description" style="shape=partialRectangle;html=1;whiteSpace=wrap;connectable=0;fillColor=none;top=0;left=0;bottom=0;right=0;align=left;spacingLeft=6;overflow=hidden;" parent="vS6UbNGED4iVd90E8qPK-162" vertex="1">
          <mxGeometry x="40" width="140" height="30" as="geometry">
            <mxRectangle width="140" height="30" as="alternateBounds" />
          </mxGeometry>
        </mxCell>
        <mxCell id="vS6UbNGED4iVd90E8qPK-165" style="shape=tableRow;horizontal=0;startSize=0;swimlaneHead=0;swimlaneBody=0;top=0;left=0;bottom=0;right=0;collapsible=0;dropTarget=0;fillColor=none;points=[[0,0.5],[1,0.5]];portConstraint=eastwest;" parent="vS6UbNGED4iVd90E8qPK-152" vertex="1">
          <mxGeometry y="150" width="180" height="30" as="geometry" />
        </mxCell>
        <mxCell id="vS6UbNGED4iVd90E8qPK-166" style="shape=partialRectangle;html=1;whiteSpace=wrap;connectable=0;fillColor=none;top=0;left=0;bottom=0;right=0;overflow=hidden;" parent="vS6UbNGED4iVd90E8qPK-165" vertex="1">
          <mxGeometry width="40" height="30" as="geometry">
            <mxRectangle width="40" height="30" as="alternateBounds" />
          </mxGeometry>
        </mxCell>
        <mxCell id="vS6UbNGED4iVd90E8qPK-167" value="LostLocation" style="shape=partialRectangle;html=1;whiteSpace=wrap;connectable=0;fillColor=none;top=0;left=0;bottom=0;right=0;align=left;spacingLeft=6;overflow=hidden;" parent="vS6UbNGED4iVd90E8qPK-165" vertex="1">
          <mxGeometry x="40" width="140" height="30" as="geometry">
            <mxRectangle width="140" height="30" as="alternateBounds" />
          </mxGeometry>
        </mxCell>
        <mxCell id="vS6UbNGED4iVd90E8qPK-168" style="shape=tableRow;horizontal=0;startSize=0;swimlaneHead=0;swimlaneBody=0;top=0;left=0;bottom=0;right=0;collapsible=0;dropTarget=0;fillColor=none;points=[[0,0.5],[1,0.5]];portConstraint=eastwest;" parent="vS6UbNGED4iVd90E8qPK-152" vertex="1">
          <mxGeometry y="180" width="180" height="30" as="geometry" />
        </mxCell>
        <mxCell id="vS6UbNGED4iVd90E8qPK-169" style="shape=partialRectangle;html=1;whiteSpace=wrap;connectable=0;fillColor=none;top=0;left=0;bottom=0;right=0;overflow=hidden;" parent="vS6UbNGED4iVd90E8qPK-168" vertex="1">
          <mxGeometry width="40" height="30" as="geometry">
            <mxRectangle width="40" height="30" as="alternateBounds" />
          </mxGeometry>
        </mxCell>
        <mxCell id="vS6UbNGED4iVd90E8qPK-170" value="LostDate" style="shape=partialRectangle;html=1;whiteSpace=wrap;connectable=0;fillColor=none;top=0;left=0;bottom=0;right=0;align=left;spacingLeft=6;overflow=hidden;" parent="vS6UbNGED4iVd90E8qPK-168" vertex="1">
          <mxGeometry x="40" width="140" height="30" as="geometry">
            <mxRectangle width="140" height="30" as="alternateBounds" />
          </mxGeometry>
        </mxCell>
        <mxCell id="vS6UbNGED4iVd90E8qPK-171" style="shape=tableRow;horizontal=0;startSize=0;swimlaneHead=0;swimlaneBody=0;top=0;left=0;bottom=0;right=0;collapsible=0;dropTarget=0;fillColor=none;points=[[0,0.5],[1,0.5]];portConstraint=eastwest;" parent="vS6UbNGED4iVd90E8qPK-152" vertex="1">
          <mxGeometry y="210" width="180" height="30" as="geometry" />
        </mxCell>
        <mxCell id="vS6UbNGED4iVd90E8qPK-172" value="&lt;span style=&quot;color: rgb(240, 240, 240); font-family: Helvetica; font-size: 12px; font-style: normal; font-variant-ligatures: normal; font-variant-caps: normal; font-weight: 400; letter-spacing: normal; orphans: 2; text-align: center; text-indent: 0px; text-transform: none; widows: 2; word-spacing: 0px; -webkit-text-stroke-width: 0px; background-color: rgb(42, 37, 47); text-decoration-thickness: initial; text-decoration-style: initial; text-decoration-color: initial; float: none; display: inline !important;&quot;&gt;FK&lt;/span&gt;&lt;br&gt;" style="shape=partialRectangle;html=1;whiteSpace=wrap;connectable=0;fillColor=none;top=0;left=0;bottom=0;right=0;overflow=hidden;" parent="vS6UbNGED4iVd90E8qPK-171" vertex="1">
          <mxGeometry width="40" height="30" as="geometry">
            <mxRectangle width="40" height="30" as="alternateBounds" />
          </mxGeometry>
        </mxCell>
        <mxCell id="vS6UbNGED4iVd90E8qPK-173" value="UserID" style="shape=partialRectangle;html=1;whiteSpace=wrap;connectable=0;fillColor=none;top=0;left=0;bottom=0;right=0;align=left;spacingLeft=6;overflow=hidden;" parent="vS6UbNGED4iVd90E8qPK-171" vertex="1">
          <mxGeometry x="40" width="140" height="30" as="geometry">
            <mxRectangle width="140" height="30" as="alternateBounds" />
          </mxGeometry>
        </mxCell>
        <mxCell id="vS6UbNGED4iVd90E8qPK-174" style="shape=tableRow;horizontal=0;startSize=0;swimlaneHead=0;swimlaneBody=0;top=0;left=0;bottom=0;right=0;collapsible=0;dropTarget=0;fillColor=none;points=[[0,0.5],[1,0.5]];portConstraint=eastwest;" parent="vS6UbNGED4iVd90E8qPK-152" vertex="1">
          <mxGeometry y="240" width="180" height="30" as="geometry" />
        </mxCell>
        <mxCell id="vS6UbNGED4iVd90E8qPK-175" style="shape=partialRectangle;html=1;whiteSpace=wrap;connectable=0;fillColor=none;top=0;left=0;bottom=0;right=0;overflow=hidden;" parent="vS6UbNGED4iVd90E8qPK-174" vertex="1">
          <mxGeometry width="40" height="30" as="geometry">
            <mxRectangle width="40" height="30" as="alternateBounds" />
          </mxGeometry>
        </mxCell>
        <mxCell id="vS6UbNGED4iVd90E8qPK-176" value="LostStatus" style="shape=partialRectangle;html=1;whiteSpace=wrap;connectable=0;fillColor=none;top=0;left=0;bottom=0;right=0;align=left;spacingLeft=6;overflow=hidden;" parent="vS6UbNGED4iVd90E8qPK-174" vertex="1">
          <mxGeometry x="40" width="140" height="30" as="geometry">
            <mxRectangle width="140" height="30" as="alternateBounds" />
          </mxGeometry>
        </mxCell>
        <mxCell id="vS6UbNGED4iVd90E8qPK-177" style="shape=tableRow;horizontal=0;startSize=0;swimlaneHead=0;swimlaneBody=0;top=0;left=0;bottom=0;right=0;collapsible=0;dropTarget=0;fillColor=none;points=[[0,0.5],[1,0.5]];portConstraint=eastwest;" parent="vS6UbNGED4iVd90E8qPK-152" vertex="1">
          <mxGeometry y="270" width="180" height="30" as="geometry" />
        </mxCell>
        <mxCell id="vS6UbNGED4iVd90E8qPK-178" style="shape=partialRectangle;html=1;whiteSpace=wrap;connectable=0;fillColor=none;top=0;left=0;bottom=0;right=0;overflow=hidden;" parent="vS6UbNGED4iVd90E8qPK-177" vertex="1">
          <mxGeometry width="40" height="30" as="geometry">
            <mxRectangle width="40" height="30" as="alternateBounds" />
          </mxGeometry>
        </mxCell>
        <mxCell id="vS6UbNGED4iVd90E8qPK-179" value="ReviewStatus" style="shape=partialRectangle;html=1;whiteSpace=wrap;connectable=0;fillColor=none;top=0;left=0;bottom=0;right=0;align=left;spacingLeft=6;overflow=hidden;" parent="vS6UbNGED4iVd90E8qPK-177" vertex="1">
          <mxGeometry x="40" width="140" height="30" as="geometry">
            <mxRectangle width="140" height="30" as="alternateBounds" />
          </mxGeometry>
        </mxCell>
        <mxCell id="vS6UbNGED4iVd90E8qPK-180" value="ItemCategories" style="shape=table;startSize=30;container=1;collapsible=0;childLayout=tableLayout;fixedRows=1;rowLines=0;fontStyle=1;" parent="1" vertex="1">
          <mxGeometry x="1454" y="980" width="180" height="90" as="geometry" />
        </mxCell>
        <mxCell id="vS6UbNGED4iVd90E8qPK-181" value="" style="shape=tableRow;horizontal=0;startSize=0;swimlaneHead=0;swimlaneBody=0;top=0;left=0;bottom=0;right=0;collapsible=0;dropTarget=0;fillColor=none;points=[[0,0.5],[1,0.5]];portConstraint=eastwest;" parent="vS6UbNGED4iVd90E8qPK-180" vertex="1">
          <mxGeometry y="30" width="180" height="30" as="geometry" />
        </mxCell>
        <mxCell id="vS6UbNGED4iVd90E8qPK-182" value="PK" style="shape=partialRectangle;html=1;whiteSpace=wrap;connectable=0;fillColor=none;top=0;left=0;bottom=0;right=0;overflow=hidden;pointerEvents=1;" parent="vS6UbNGED4iVd90E8qPK-181" vertex="1">
          <mxGeometry width="40" height="30" as="geometry">
            <mxRectangle width="40" height="30" as="alternateBounds" />
          </mxGeometry>
        </mxCell>
        <mxCell id="vS6UbNGED4iVd90E8qPK-183" value="CategoryID" style="shape=partialRectangle;html=1;whiteSpace=wrap;connectable=0;fillColor=none;top=0;left=0;bottom=0;right=0;align=left;spacingLeft=6;overflow=hidden;" parent="vS6UbNGED4iVd90E8qPK-181" vertex="1">
          <mxGeometry x="40" width="140" height="30" as="geometry">
            <mxRectangle width="140" height="30" as="alternateBounds" />
          </mxGeometry>
        </mxCell>
        <mxCell id="vS6UbNGED4iVd90E8qPK-184" value="" style="shape=tableRow;horizontal=0;startSize=0;swimlaneHead=0;swimlaneBody=0;top=0;left=0;bottom=0;right=0;collapsible=0;dropTarget=0;fillColor=none;points=[[0,0.5],[1,0.5]];portConstraint=eastwest;" parent="vS6UbNGED4iVd90E8qPK-180" vertex="1">
          <mxGeometry y="60" width="180" height="30" as="geometry" />
        </mxCell>
        <mxCell id="vS6UbNGED4iVd90E8qPK-185" value="" style="shape=partialRectangle;html=1;whiteSpace=wrap;connectable=0;fillColor=none;top=0;left=0;bottom=0;right=0;overflow=hidden;" parent="vS6UbNGED4iVd90E8qPK-184" vertex="1">
          <mxGeometry width="40" height="30" as="geometry">
            <mxRectangle width="40" height="30" as="alternateBounds" />
          </mxGeometry>
        </mxCell>
        <mxCell id="vS6UbNGED4iVd90E8qPK-186" value="CategoryName" style="shape=partialRectangle;html=1;whiteSpace=wrap;connectable=0;fillColor=none;top=0;left=0;bottom=0;right=0;align=left;spacingLeft=6;overflow=hidden;" parent="vS6UbNGED4iVd90E8qPK-184" vertex="1">
          <mxGeometry x="40" width="140" height="30" as="geometry">
            <mxRectangle width="140" height="30" as="alternateBounds" />
          </mxGeometry>
        </mxCell>
        <mxCell id="vS6UbNGED4iVd90E8qPK-357" style="edgeStyle=orthogonalEdgeStyle;rounded=0;orthogonalLoop=1;jettySize=auto;html=1;exitX=1;exitY=0;exitDx=0;exitDy=0;entryX=0.5;entryY=1;entryDx=0;entryDy=0;endArrow=none;endFill=0;" parent="1" source="vS6UbNGED4iVd90E8qPK-187" target="vS6UbNGED4iVd90E8qPK-352" edge="1">
          <mxGeometry relative="1" as="geometry">
            <Array as="points">
              <mxPoint x="1450" y="620" />
            </Array>
          </mxGeometry>
        </mxCell>
        <mxCell id="vS6UbNGED4iVd90E8qPK-378" style="edgeStyle=orthogonalEdgeStyle;rounded=0;orthogonalLoop=1;jettySize=auto;html=1;exitX=0.75;exitY=0;exitDx=0;exitDy=0;entryX=0.5;entryY=0;entryDx=0;entryDy=0;endArrow=none;endFill=0;" parent="1" source="vS6UbNGED4iVd90E8qPK-187" target="vS6UbNGED4iVd90E8qPK-370" edge="1">
          <mxGeometry relative="1" as="geometry" />
        </mxCell>
        <mxCell id="vS6UbNGED4iVd90E8qPK-187" value="FoundItems" style="shape=table;startSize=30;container=1;collapsible=0;childLayout=tableLayout;fixedRows=1;rowLines=0;fontStyle=1;" parent="1" vertex="1">
          <mxGeometry x="995" y="620" width="180" height="300" as="geometry" />
        </mxCell>
        <mxCell id="vS6UbNGED4iVd90E8qPK-188" value="" style="shape=tableRow;horizontal=0;startSize=0;swimlaneHead=0;swimlaneBody=0;top=0;left=0;bottom=0;right=0;collapsible=0;dropTarget=0;fillColor=none;points=[[0,0.5],[1,0.5]];portConstraint=eastwest;" parent="vS6UbNGED4iVd90E8qPK-187" vertex="1">
          <mxGeometry y="30" width="180" height="30" as="geometry" />
        </mxCell>
        <mxCell id="vS6UbNGED4iVd90E8qPK-189" value="PK" style="shape=partialRectangle;html=1;whiteSpace=wrap;connectable=0;fillColor=none;top=0;left=0;bottom=0;right=0;overflow=hidden;pointerEvents=1;" parent="vS6UbNGED4iVd90E8qPK-188" vertex="1">
          <mxGeometry width="40" height="30" as="geometry">
            <mxRectangle width="40" height="30" as="alternateBounds" />
          </mxGeometry>
        </mxCell>
        <mxCell id="vS6UbNGED4iVd90E8qPK-190" value="ItemID" style="shape=partialRectangle;html=1;whiteSpace=wrap;connectable=0;fillColor=none;top=0;left=0;bottom=0;right=0;align=left;spacingLeft=6;overflow=hidden;" parent="vS6UbNGED4iVd90E8qPK-188" vertex="1">
          <mxGeometry x="40" width="140" height="30" as="geometry">
            <mxRectangle width="140" height="30" as="alternateBounds" />
          </mxGeometry>
        </mxCell>
        <mxCell id="vS6UbNGED4iVd90E8qPK-191" value="" style="shape=tableRow;horizontal=0;startSize=0;swimlaneHead=0;swimlaneBody=0;top=0;left=0;bottom=0;right=0;collapsible=0;dropTarget=0;fillColor=none;points=[[0,0.5],[1,0.5]];portConstraint=eastwest;" parent="vS6UbNGED4iVd90E8qPK-187" vertex="1">
          <mxGeometry y="60" width="180" height="30" as="geometry" />
        </mxCell>
        <mxCell id="vS6UbNGED4iVd90E8qPK-192" value="" style="shape=partialRectangle;html=1;whiteSpace=wrap;connectable=0;fillColor=none;top=0;left=0;bottom=0;right=0;overflow=hidden;" parent="vS6UbNGED4iVd90E8qPK-191" vertex="1">
          <mxGeometry width="40" height="30" as="geometry">
            <mxRectangle width="40" height="30" as="alternateBounds" />
          </mxGeometry>
        </mxCell>
        <mxCell id="vS6UbNGED4iVd90E8qPK-193" value="ItemName" style="shape=partialRectangle;html=1;whiteSpace=wrap;connectable=0;fillColor=none;top=0;left=0;bottom=0;right=0;align=left;spacingLeft=6;overflow=hidden;" parent="vS6UbNGED4iVd90E8qPK-191" vertex="1">
          <mxGeometry x="40" width="140" height="30" as="geometry">
            <mxRectangle width="140" height="30" as="alternateBounds" />
          </mxGeometry>
        </mxCell>
        <mxCell id="vS6UbNGED4iVd90E8qPK-194" value="" style="shape=tableRow;horizontal=0;startSize=0;swimlaneHead=0;swimlaneBody=0;top=0;left=0;bottom=0;right=0;collapsible=0;dropTarget=0;fillColor=none;points=[[0,0.5],[1,0.5]];portConstraint=eastwest;" parent="vS6UbNGED4iVd90E8qPK-187" vertex="1">
          <mxGeometry y="90" width="180" height="30" as="geometry" />
        </mxCell>
        <mxCell id="vS6UbNGED4iVd90E8qPK-195" value="FK" style="shape=partialRectangle;html=1;whiteSpace=wrap;connectable=0;fillColor=none;top=0;left=0;bottom=0;right=0;overflow=hidden;" parent="vS6UbNGED4iVd90E8qPK-194" vertex="1">
          <mxGeometry width="40" height="30" as="geometry">
            <mxRectangle width="40" height="30" as="alternateBounds" />
          </mxGeometry>
        </mxCell>
        <mxCell id="vS6UbNGED4iVd90E8qPK-196" value="CategoryID" style="shape=partialRectangle;html=1;whiteSpace=wrap;connectable=0;fillColor=none;top=0;left=0;bottom=0;right=0;align=left;spacingLeft=6;overflow=hidden;" parent="vS6UbNGED4iVd90E8qPK-194" vertex="1">
          <mxGeometry x="40" width="140" height="30" as="geometry">
            <mxRectangle width="140" height="30" as="alternateBounds" />
          </mxGeometry>
        </mxCell>
        <mxCell id="vS6UbNGED4iVd90E8qPK-197" style="shape=tableRow;horizontal=0;startSize=0;swimlaneHead=0;swimlaneBody=0;top=0;left=0;bottom=0;right=0;collapsible=0;dropTarget=0;fillColor=none;points=[[0,0.5],[1,0.5]];portConstraint=eastwest;" parent="vS6UbNGED4iVd90E8qPK-187" vertex="1">
          <mxGeometry y="120" width="180" height="30" as="geometry" />
        </mxCell>
        <mxCell id="vS6UbNGED4iVd90E8qPK-198" style="shape=partialRectangle;html=1;whiteSpace=wrap;connectable=0;fillColor=none;top=0;left=0;bottom=0;right=0;overflow=hidden;" parent="vS6UbNGED4iVd90E8qPK-197" vertex="1">
          <mxGeometry width="40" height="30" as="geometry">
            <mxRectangle width="40" height="30" as="alternateBounds" />
          </mxGeometry>
        </mxCell>
        <mxCell id="vS6UbNGED4iVd90E8qPK-199" value="Description" style="shape=partialRectangle;html=1;whiteSpace=wrap;connectable=0;fillColor=none;top=0;left=0;bottom=0;right=0;align=left;spacingLeft=6;overflow=hidden;" parent="vS6UbNGED4iVd90E8qPK-197" vertex="1">
          <mxGeometry x="40" width="140" height="30" as="geometry">
            <mxRectangle width="140" height="30" as="alternateBounds" />
          </mxGeometry>
        </mxCell>
        <mxCell id="vS6UbNGED4iVd90E8qPK-200" style="shape=tableRow;horizontal=0;startSize=0;swimlaneHead=0;swimlaneBody=0;top=0;left=0;bottom=0;right=0;collapsible=0;dropTarget=0;fillColor=none;points=[[0,0.5],[1,0.5]];portConstraint=eastwest;" parent="vS6UbNGED4iVd90E8qPK-187" vertex="1">
          <mxGeometry y="150" width="180" height="30" as="geometry" />
        </mxCell>
        <mxCell id="vS6UbNGED4iVd90E8qPK-201" style="shape=partialRectangle;html=1;whiteSpace=wrap;connectable=0;fillColor=none;top=0;left=0;bottom=0;right=0;overflow=hidden;" parent="vS6UbNGED4iVd90E8qPK-200" vertex="1">
          <mxGeometry width="40" height="30" as="geometry">
            <mxRectangle width="40" height="30" as="alternateBounds" />
          </mxGeometry>
        </mxCell>
        <mxCell id="vS6UbNGED4iVd90E8qPK-202" value="FoundLocation" style="shape=partialRectangle;html=1;whiteSpace=wrap;connectable=0;fillColor=none;top=0;left=0;bottom=0;right=0;align=left;spacingLeft=6;overflow=hidden;" parent="vS6UbNGED4iVd90E8qPK-200" vertex="1">
          <mxGeometry x="40" width="140" height="30" as="geometry">
            <mxRectangle width="140" height="30" as="alternateBounds" />
          </mxGeometry>
        </mxCell>
        <mxCell id="vS6UbNGED4iVd90E8qPK-203" style="shape=tableRow;horizontal=0;startSize=0;swimlaneHead=0;swimlaneBody=0;top=0;left=0;bottom=0;right=0;collapsible=0;dropTarget=0;fillColor=none;points=[[0,0.5],[1,0.5]];portConstraint=eastwest;" parent="vS6UbNGED4iVd90E8qPK-187" vertex="1">
          <mxGeometry y="180" width="180" height="30" as="geometry" />
        </mxCell>
        <mxCell id="vS6UbNGED4iVd90E8qPK-204" style="shape=partialRectangle;html=1;whiteSpace=wrap;connectable=0;fillColor=none;top=0;left=0;bottom=0;right=0;overflow=hidden;" parent="vS6UbNGED4iVd90E8qPK-203" vertex="1">
          <mxGeometry width="40" height="30" as="geometry">
            <mxRectangle width="40" height="30" as="alternateBounds" />
          </mxGeometry>
        </mxCell>
        <mxCell id="vS6UbNGED4iVd90E8qPK-205" value="FoundDate" style="shape=partialRectangle;html=1;whiteSpace=wrap;connectable=0;fillColor=none;top=0;left=0;bottom=0;right=0;align=left;spacingLeft=6;overflow=hidden;" parent="vS6UbNGED4iVd90E8qPK-203" vertex="1">
          <mxGeometry x="40" width="140" height="30" as="geometry">
            <mxRectangle width="140" height="30" as="alternateBounds" />
          </mxGeometry>
        </mxCell>
        <mxCell id="vS6UbNGED4iVd90E8qPK-206" style="shape=tableRow;horizontal=0;startSize=0;swimlaneHead=0;swimlaneBody=0;top=0;left=0;bottom=0;right=0;collapsible=0;dropTarget=0;fillColor=none;points=[[0,0.5],[1,0.5]];portConstraint=eastwest;" parent="vS6UbNGED4iVd90E8qPK-187" vertex="1">
          <mxGeometry y="210" width="180" height="30" as="geometry" />
        </mxCell>
        <mxCell id="vS6UbNGED4iVd90E8qPK-207" value="&lt;span style=&quot;color: rgb(240, 240, 240); font-family: Helvetica; font-size: 12px; font-style: normal; font-variant-ligatures: normal; font-variant-caps: normal; font-weight: 400; letter-spacing: normal; orphans: 2; text-align: center; text-indent: 0px; text-transform: none; widows: 2; word-spacing: 0px; -webkit-text-stroke-width: 0px; background-color: rgb(42, 37, 47); text-decoration-thickness: initial; text-decoration-style: initial; text-decoration-color: initial; float: none; display: inline !important;&quot;&gt;FK&lt;/span&gt;&lt;br&gt;" style="shape=partialRectangle;html=1;whiteSpace=wrap;connectable=0;fillColor=none;top=0;left=0;bottom=0;right=0;overflow=hidden;" parent="vS6UbNGED4iVd90E8qPK-206" vertex="1">
          <mxGeometry width="40" height="30" as="geometry">
            <mxRectangle width="40" height="30" as="alternateBounds" />
          </mxGeometry>
        </mxCell>
        <mxCell id="vS6UbNGED4iVd90E8qPK-208" value="UserID" style="shape=partialRectangle;html=1;whiteSpace=wrap;connectable=0;fillColor=none;top=0;left=0;bottom=0;right=0;align=left;spacingLeft=6;overflow=hidden;" parent="vS6UbNGED4iVd90E8qPK-206" vertex="1">
          <mxGeometry x="40" width="140" height="30" as="geometry">
            <mxRectangle width="140" height="30" as="alternateBounds" />
          </mxGeometry>
        </mxCell>
        <mxCell id="vS6UbNGED4iVd90E8qPK-209" style="shape=tableRow;horizontal=0;startSize=0;swimlaneHead=0;swimlaneBody=0;top=0;left=0;bottom=0;right=0;collapsible=0;dropTarget=0;fillColor=none;points=[[0,0.5],[1,0.5]];portConstraint=eastwest;" parent="vS6UbNGED4iVd90E8qPK-187" vertex="1">
          <mxGeometry y="240" width="180" height="30" as="geometry" />
        </mxCell>
        <mxCell id="vS6UbNGED4iVd90E8qPK-210" style="shape=partialRectangle;html=1;whiteSpace=wrap;connectable=0;fillColor=none;top=0;left=0;bottom=0;right=0;overflow=hidden;" parent="vS6UbNGED4iVd90E8qPK-209" vertex="1">
          <mxGeometry width="40" height="30" as="geometry">
            <mxRectangle width="40" height="30" as="alternateBounds" />
          </mxGeometry>
        </mxCell>
        <mxCell id="vS6UbNGED4iVd90E8qPK-211" value="MatchStatus" style="shape=partialRectangle;html=1;whiteSpace=wrap;connectable=0;fillColor=none;top=0;left=0;bottom=0;right=0;align=left;spacingLeft=6;overflow=hidden;" parent="vS6UbNGED4iVd90E8qPK-209" vertex="1">
          <mxGeometry x="40" width="140" height="30" as="geometry">
            <mxRectangle width="140" height="30" as="alternateBounds" />
          </mxGeometry>
        </mxCell>
        <mxCell id="vS6UbNGED4iVd90E8qPK-212" style="shape=tableRow;horizontal=0;startSize=0;swimlaneHead=0;swimlaneBody=0;top=0;left=0;bottom=0;right=0;collapsible=0;dropTarget=0;fillColor=none;points=[[0,0.5],[1,0.5]];portConstraint=eastwest;" parent="vS6UbNGED4iVd90E8qPK-187" vertex="1">
          <mxGeometry y="270" width="180" height="30" as="geometry" />
        </mxCell>
        <mxCell id="vS6UbNGED4iVd90E8qPK-213" style="shape=partialRectangle;html=1;whiteSpace=wrap;connectable=0;fillColor=none;top=0;left=0;bottom=0;right=0;overflow=hidden;" parent="vS6UbNGED4iVd90E8qPK-212" vertex="1">
          <mxGeometry width="40" height="30" as="geometry">
            <mxRectangle width="40" height="30" as="alternateBounds" />
          </mxGeometry>
        </mxCell>
        <mxCell id="vS6UbNGED4iVd90E8qPK-214" value="ReviewStatus" style="shape=partialRectangle;html=1;whiteSpace=wrap;connectable=0;fillColor=none;top=0;left=0;bottom=0;right=0;align=left;spacingLeft=6;overflow=hidden;" parent="vS6UbNGED4iVd90E8qPK-212" vertex="1">
          <mxGeometry x="40" width="140" height="30" as="geometry">
            <mxRectangle width="140" height="30" as="alternateBounds" />
          </mxGeometry>
        </mxCell>
        <mxCell id="vS6UbNGED4iVd90E8qPK-215" value="ItemImages" style="shape=table;startSize=30;container=1;collapsible=0;childLayout=tableLayout;fixedRows=1;rowLines=0;fontStyle=1;" parent="1" vertex="1">
          <mxGeometry x="1453.5" y="1230" width="180" height="180" as="geometry" />
        </mxCell>
        <mxCell id="vS6UbNGED4iVd90E8qPK-216" value="" style="shape=tableRow;horizontal=0;startSize=0;swimlaneHead=0;swimlaneBody=0;top=0;left=0;bottom=0;right=0;collapsible=0;dropTarget=0;fillColor=none;points=[[0,0.5],[1,0.5]];portConstraint=eastwest;" parent="vS6UbNGED4iVd90E8qPK-215" vertex="1">
          <mxGeometry y="30" width="180" height="30" as="geometry" />
        </mxCell>
        <mxCell id="vS6UbNGED4iVd90E8qPK-217" value="PK" style="shape=partialRectangle;html=1;whiteSpace=wrap;connectable=0;fillColor=none;top=0;left=0;bottom=0;right=0;overflow=hidden;pointerEvents=1;" parent="vS6UbNGED4iVd90E8qPK-216" vertex="1">
          <mxGeometry width="40" height="30" as="geometry">
            <mxRectangle width="40" height="30" as="alternateBounds" />
          </mxGeometry>
        </mxCell>
        <mxCell id="vS6UbNGED4iVd90E8qPK-218" value="ImageID" style="shape=partialRectangle;html=1;whiteSpace=wrap;connectable=0;fillColor=none;top=0;left=0;bottom=0;right=0;align=left;spacingLeft=6;overflow=hidden;" parent="vS6UbNGED4iVd90E8qPK-216" vertex="1">
          <mxGeometry x="40" width="140" height="30" as="geometry">
            <mxRectangle width="140" height="30" as="alternateBounds" />
          </mxGeometry>
        </mxCell>
        <mxCell id="vS6UbNGED4iVd90E8qPK-219" value="" style="shape=tableRow;horizontal=0;startSize=0;swimlaneHead=0;swimlaneBody=0;top=0;left=0;bottom=0;right=0;collapsible=0;dropTarget=0;fillColor=none;points=[[0,0.5],[1,0.5]];portConstraint=eastwest;" parent="vS6UbNGED4iVd90E8qPK-215" vertex="1">
          <mxGeometry y="60" width="180" height="30" as="geometry" />
        </mxCell>
        <mxCell id="vS6UbNGED4iVd90E8qPK-220" value="" style="shape=partialRectangle;html=1;whiteSpace=wrap;connectable=0;fillColor=none;top=0;left=0;bottom=0;right=0;overflow=hidden;" parent="vS6UbNGED4iVd90E8qPK-219" vertex="1">
          <mxGeometry width="40" height="30" as="geometry">
            <mxRectangle width="40" height="30" as="alternateBounds" />
          </mxGeometry>
        </mxCell>
        <mxCell id="vS6UbNGED4iVd90E8qPK-221" value="ImageUrl" style="shape=partialRectangle;html=1;whiteSpace=wrap;connectable=0;fillColor=none;top=0;left=0;bottom=0;right=0;align=left;spacingLeft=6;overflow=hidden;" parent="vS6UbNGED4iVd90E8qPK-219" vertex="1">
          <mxGeometry x="40" width="140" height="30" as="geometry">
            <mxRectangle width="140" height="30" as="alternateBounds" />
          </mxGeometry>
        </mxCell>
        <mxCell id="vS6UbNGED4iVd90E8qPK-222" value="" style="shape=tableRow;horizontal=0;startSize=0;swimlaneHead=0;swimlaneBody=0;top=0;left=0;bottom=0;right=0;collapsible=0;dropTarget=0;fillColor=none;points=[[0,0.5],[1,0.5]];portConstraint=eastwest;" parent="vS6UbNGED4iVd90E8qPK-215" vertex="1">
          <mxGeometry y="90" width="180" height="30" as="geometry" />
        </mxCell>
        <mxCell id="vS6UbNGED4iVd90E8qPK-223" value="FK" style="shape=partialRectangle;html=1;whiteSpace=wrap;connectable=0;fillColor=none;top=0;left=0;bottom=0;right=0;overflow=hidden;" parent="vS6UbNGED4iVd90E8qPK-222" vertex="1">
          <mxGeometry width="40" height="30" as="geometry">
            <mxRectangle width="40" height="30" as="alternateBounds" />
          </mxGeometry>
        </mxCell>
        <mxCell id="vS6UbNGED4iVd90E8qPK-224" value="ItemID" style="shape=partialRectangle;html=1;whiteSpace=wrap;connectable=0;fillColor=none;top=0;left=0;bottom=0;right=0;align=left;spacingLeft=6;overflow=hidden;" parent="vS6UbNGED4iVd90E8qPK-222" vertex="1">
          <mxGeometry x="40" width="140" height="30" as="geometry">
            <mxRectangle width="140" height="30" as="alternateBounds" />
          </mxGeometry>
        </mxCell>
        <mxCell id="vS6UbNGED4iVd90E8qPK-225" style="shape=tableRow;horizontal=0;startSize=0;swimlaneHead=0;swimlaneBody=0;top=0;left=0;bottom=0;right=0;collapsible=0;dropTarget=0;fillColor=none;points=[[0,0.5],[1,0.5]];portConstraint=eastwest;" parent="vS6UbNGED4iVd90E8qPK-215" vertex="1">
          <mxGeometry y="120" width="180" height="30" as="geometry" />
        </mxCell>
        <mxCell id="vS6UbNGED4iVd90E8qPK-226" style="shape=partialRectangle;html=1;whiteSpace=wrap;connectable=0;fillColor=none;top=0;left=0;bottom=0;right=0;overflow=hidden;" parent="vS6UbNGED4iVd90E8qPK-225" vertex="1">
          <mxGeometry width="40" height="30" as="geometry">
            <mxRectangle width="40" height="30" as="alternateBounds" />
          </mxGeometry>
        </mxCell>
        <mxCell id="vS6UbNGED4iVd90E8qPK-227" value="Description" style="shape=partialRectangle;html=1;whiteSpace=wrap;connectable=0;fillColor=none;top=0;left=0;bottom=0;right=0;align=left;spacingLeft=6;overflow=hidden;" parent="vS6UbNGED4iVd90E8qPK-225" vertex="1">
          <mxGeometry x="40" width="140" height="30" as="geometry">
            <mxRectangle width="140" height="30" as="alternateBounds" />
          </mxGeometry>
        </mxCell>
        <mxCell id="vS6UbNGED4iVd90E8qPK-228" style="shape=tableRow;horizontal=0;startSize=0;swimlaneHead=0;swimlaneBody=0;top=0;left=0;bottom=0;right=0;collapsible=0;dropTarget=0;fillColor=none;points=[[0,0.5],[1,0.5]];portConstraint=eastwest;" parent="vS6UbNGED4iVd90E8qPK-215" vertex="1">
          <mxGeometry y="150" width="180" height="30" as="geometry" />
        </mxCell>
        <mxCell id="vS6UbNGED4iVd90E8qPK-229" style="shape=partialRectangle;html=1;whiteSpace=wrap;connectable=0;fillColor=none;top=0;left=0;bottom=0;right=0;overflow=hidden;" parent="vS6UbNGED4iVd90E8qPK-228" vertex="1">
          <mxGeometry width="40" height="30" as="geometry">
            <mxRectangle width="40" height="30" as="alternateBounds" />
          </mxGeometry>
        </mxCell>
        <mxCell id="vS6UbNGED4iVd90E8qPK-230" value="ReviewStatus" style="shape=partialRectangle;html=1;whiteSpace=wrap;connectable=0;fillColor=none;top=0;left=0;bottom=0;right=0;align=left;spacingLeft=6;overflow=hidden;" parent="vS6UbNGED4iVd90E8qPK-228" vertex="1">
          <mxGeometry x="40" width="140" height="30" as="geometry">
            <mxRectangle width="140" height="30" as="alternateBounds" />
          </mxGeometry>
        </mxCell>
        <mxCell id="vS6UbNGED4iVd90E8qPK-231" value="ItemTags" style="shape=table;startSize=30;container=1;collapsible=0;childLayout=tableLayout;fixedRows=1;rowLines=0;fontStyle=1;" parent="1" vertex="1">
          <mxGeometry x="1454" y="1100" width="180" height="90" as="geometry" />
        </mxCell>
        <mxCell id="vS6UbNGED4iVd90E8qPK-232" value="" style="shape=tableRow;horizontal=0;startSize=0;swimlaneHead=0;swimlaneBody=0;top=0;left=0;bottom=0;right=0;collapsible=0;dropTarget=0;fillColor=none;points=[[0,0.5],[1,0.5]];portConstraint=eastwest;" parent="vS6UbNGED4iVd90E8qPK-231" vertex="1">
          <mxGeometry y="30" width="180" height="30" as="geometry" />
        </mxCell>
        <mxCell id="vS6UbNGED4iVd90E8qPK-233" value="PK" style="shape=partialRectangle;html=1;whiteSpace=wrap;connectable=0;fillColor=none;top=0;left=0;bottom=0;right=0;overflow=hidden;pointerEvents=1;" parent="vS6UbNGED4iVd90E8qPK-232" vertex="1">
          <mxGeometry width="40" height="30" as="geometry">
            <mxRectangle width="40" height="30" as="alternateBounds" />
          </mxGeometry>
        </mxCell>
        <mxCell id="vS6UbNGED4iVd90E8qPK-234" value="TagID" style="shape=partialRectangle;html=1;whiteSpace=wrap;connectable=0;fillColor=none;top=0;left=0;bottom=0;right=0;align=left;spacingLeft=6;overflow=hidden;" parent="vS6UbNGED4iVd90E8qPK-232" vertex="1">
          <mxGeometry x="40" width="140" height="30" as="geometry">
            <mxRectangle width="140" height="30" as="alternateBounds" />
          </mxGeometry>
        </mxCell>
        <mxCell id="vS6UbNGED4iVd90E8qPK-235" value="" style="shape=tableRow;horizontal=0;startSize=0;swimlaneHead=0;swimlaneBody=0;top=0;left=0;bottom=0;right=0;collapsible=0;dropTarget=0;fillColor=none;points=[[0,0.5],[1,0.5]];portConstraint=eastwest;" parent="vS6UbNGED4iVd90E8qPK-231" vertex="1">
          <mxGeometry y="60" width="180" height="30" as="geometry" />
        </mxCell>
        <mxCell id="vS6UbNGED4iVd90E8qPK-236" value="" style="shape=partialRectangle;html=1;whiteSpace=wrap;connectable=0;fillColor=none;top=0;left=0;bottom=0;right=0;overflow=hidden;" parent="vS6UbNGED4iVd90E8qPK-235" vertex="1">
          <mxGeometry width="40" height="30" as="geometry">
            <mxRectangle width="40" height="30" as="alternateBounds" />
          </mxGeometry>
        </mxCell>
        <mxCell id="vS6UbNGED4iVd90E8qPK-237" value="TagName" style="shape=partialRectangle;html=1;whiteSpace=wrap;connectable=0;fillColor=none;top=0;left=0;bottom=0;right=0;align=left;spacingLeft=6;overflow=hidden;" parent="vS6UbNGED4iVd90E8qPK-235" vertex="1">
          <mxGeometry x="40" width="140" height="30" as="geometry">
            <mxRectangle width="140" height="30" as="alternateBounds" />
          </mxGeometry>
        </mxCell>
        <mxCell id="vS6UbNGED4iVd90E8qPK-238" value="ItemStatusHistory" style="shape=table;startSize=30;container=1;collapsible=0;childLayout=tableLayout;fixedRows=1;rowLines=0;fillColor=none;" parent="1" vertex="1">
          <mxGeometry x="1430" y="765" width="180" height="180" as="geometry" />
        </mxCell>
        <mxCell id="vS6UbNGED4iVd90E8qPK-239" value="" style="shape=tableRow;horizontal=0;startSize=0;swimlaneHead=0;swimlaneBody=0;top=0;left=0;bottom=0;right=0;collapsible=0;dropTarget=0;fillColor=none;points=[[0,0.5],[1,0.5]];portConstraint=eastwest;" parent="vS6UbNGED4iVd90E8qPK-238" vertex="1">
          <mxGeometry y="30" width="180" height="30" as="geometry" />
        </mxCell>
        <mxCell id="vS6UbNGED4iVd90E8qPK-240" value="PK" style="shape=partialRectangle;html=1;whiteSpace=wrap;connectable=0;fillColor=none;top=0;left=0;bottom=0;right=0;overflow=hidden;pointerEvents=1;" parent="vS6UbNGED4iVd90E8qPK-239" vertex="1">
          <mxGeometry width="40" height="30" as="geometry">
            <mxRectangle width="40" height="30" as="alternateBounds" />
          </mxGeometry>
        </mxCell>
        <mxCell id="vS6UbNGED4iVd90E8qPK-241" value="HistoryID" style="shape=partialRectangle;html=1;whiteSpace=wrap;connectable=0;fillColor=#FFFFFF;top=0;left=0;bottom=0;right=0;align=left;spacingLeft=6;overflow=hidden;gradientColor=none;" parent="vS6UbNGED4iVd90E8qPK-239" vertex="1">
          <mxGeometry x="40" width="140" height="30" as="geometry">
            <mxRectangle width="140" height="30" as="alternateBounds" />
          </mxGeometry>
        </mxCell>
        <mxCell id="vS6UbNGED4iVd90E8qPK-242" value="" style="shape=tableRow;horizontal=0;startSize=0;swimlaneHead=0;swimlaneBody=0;top=0;left=0;bottom=0;right=0;collapsible=0;dropTarget=0;fillColor=none;points=[[0,0.5],[1,0.5]];portConstraint=eastwest;" parent="vS6UbNGED4iVd90E8qPK-238" vertex="1">
          <mxGeometry y="60" width="180" height="30" as="geometry" />
        </mxCell>
        <mxCell id="vS6UbNGED4iVd90E8qPK-243" value="" style="shape=partialRectangle;html=1;whiteSpace=wrap;connectable=0;fillColor=none;top=0;left=0;bottom=0;right=0;overflow=hidden;" parent="vS6UbNGED4iVd90E8qPK-242" vertex="1">
          <mxGeometry width="40" height="30" as="geometry">
            <mxRectangle width="40" height="30" as="alternateBounds" />
          </mxGeometry>
        </mxCell>
        <mxCell id="vS6UbNGED4iVd90E8qPK-244" value="ChangeDate" style="shape=partialRectangle;html=1;whiteSpace=wrap;connectable=0;fillColor=none;top=0;left=0;bottom=0;right=0;align=left;spacingLeft=6;overflow=hidden;" parent="vS6UbNGED4iVd90E8qPK-242" vertex="1">
          <mxGeometry x="40" width="140" height="30" as="geometry">
            <mxRectangle width="140" height="30" as="alternateBounds" />
          </mxGeometry>
        </mxCell>
        <mxCell id="vS6UbNGED4iVd90E8qPK-245" value="" style="shape=tableRow;horizontal=0;startSize=0;swimlaneHead=0;swimlaneBody=0;top=0;left=0;bottom=0;right=0;collapsible=0;dropTarget=0;fillColor=none;points=[[0,0.5],[1,0.5]];portConstraint=eastwest;" parent="vS6UbNGED4iVd90E8qPK-238" vertex="1">
          <mxGeometry y="90" width="180" height="30" as="geometry" />
        </mxCell>
        <mxCell id="vS6UbNGED4iVd90E8qPK-246" value="FK" style="shape=partialRectangle;html=1;whiteSpace=wrap;connectable=0;fillColor=none;top=0;left=0;bottom=0;right=0;overflow=hidden;" parent="vS6UbNGED4iVd90E8qPK-245" vertex="1">
          <mxGeometry width="40" height="30" as="geometry">
            <mxRectangle width="40" height="30" as="alternateBounds" />
          </mxGeometry>
        </mxCell>
        <mxCell id="vS6UbNGED4iVd90E8qPK-247" value="ItemID" style="shape=partialRectangle;html=1;whiteSpace=wrap;connectable=0;fillColor=none;top=0;left=0;bottom=0;right=0;align=left;spacingLeft=6;overflow=hidden;" parent="vS6UbNGED4iVd90E8qPK-245" vertex="1">
          <mxGeometry x="40" width="140" height="30" as="geometry">
            <mxRectangle width="140" height="30" as="alternateBounds" />
          </mxGeometry>
        </mxCell>
        <mxCell id="vS6UbNGED4iVd90E8qPK-248" style="shape=tableRow;horizontal=0;startSize=0;swimlaneHead=0;swimlaneBody=0;top=0;left=0;bottom=0;right=0;collapsible=0;dropTarget=0;fillColor=none;points=[[0,0.5],[1,0.5]];portConstraint=eastwest;" parent="vS6UbNGED4iVd90E8qPK-238" vertex="1">
          <mxGeometry y="120" width="180" height="30" as="geometry" />
        </mxCell>
        <mxCell id="vS6UbNGED4iVd90E8qPK-249" style="shape=partialRectangle;html=1;whiteSpace=wrap;connectable=0;fillColor=none;top=0;left=0;bottom=0;right=0;overflow=hidden;" parent="vS6UbNGED4iVd90E8qPK-248" vertex="1">
          <mxGeometry width="40" height="30" as="geometry">
            <mxRectangle width="40" height="30" as="alternateBounds" />
          </mxGeometry>
        </mxCell>
        <mxCell id="vS6UbNGED4iVd90E8qPK-250" value="PreviousStatus" style="shape=partialRectangle;html=1;whiteSpace=wrap;connectable=0;fillColor=none;top=0;left=0;bottom=0;right=0;align=left;spacingLeft=6;overflow=hidden;" parent="vS6UbNGED4iVd90E8qPK-248" vertex="1">
          <mxGeometry x="40" width="140" height="30" as="geometry">
            <mxRectangle width="140" height="30" as="alternateBounds" />
          </mxGeometry>
        </mxCell>
        <mxCell id="vS6UbNGED4iVd90E8qPK-251" style="shape=tableRow;horizontal=0;startSize=0;swimlaneHead=0;swimlaneBody=0;top=0;left=0;bottom=0;right=0;collapsible=0;dropTarget=0;fillColor=none;points=[[0,0.5],[1,0.5]];portConstraint=eastwest;" parent="vS6UbNGED4iVd90E8qPK-238" vertex="1">
          <mxGeometry y="150" width="180" height="30" as="geometry" />
        </mxCell>
        <mxCell id="vS6UbNGED4iVd90E8qPK-252" style="shape=partialRectangle;html=1;whiteSpace=wrap;connectable=0;fillColor=none;top=0;left=0;bottom=0;right=0;overflow=hidden;" parent="vS6UbNGED4iVd90E8qPK-251" vertex="1">
          <mxGeometry width="40" height="30" as="geometry">
            <mxRectangle width="40" height="30" as="alternateBounds" />
          </mxGeometry>
        </mxCell>
        <mxCell id="vS6UbNGED4iVd90E8qPK-253" value="NewStatus" style="shape=partialRectangle;html=1;whiteSpace=wrap;connectable=0;fillColor=none;top=0;left=0;bottom=0;right=0;align=left;spacingLeft=6;overflow=hidden;" parent="vS6UbNGED4iVd90E8qPK-251" vertex="1">
          <mxGeometry x="40" width="140" height="30" as="geometry">
            <mxRectangle width="140" height="30" as="alternateBounds" />
          </mxGeometry>
        </mxCell>
        <mxCell id="vS6UbNGED4iVd90E8qPK-254" value="RewardOffers" style="shape=table;startSize=30;container=1;collapsible=0;childLayout=tableLayout;fixedRows=1;rowLines=0;fontStyle=1;" parent="1" vertex="1">
          <mxGeometry x="1474" y="120" width="180" height="240" as="geometry" />
        </mxCell>
        <mxCell id="vS6UbNGED4iVd90E8qPK-255" value="" style="shape=tableRow;horizontal=0;startSize=0;swimlaneHead=0;swimlaneBody=0;top=0;left=0;bottom=0;right=0;collapsible=0;dropTarget=0;fillColor=none;points=[[0,0.5],[1,0.5]];portConstraint=eastwest;" parent="vS6UbNGED4iVd90E8qPK-254" vertex="1">
          <mxGeometry y="30" width="180" height="30" as="geometry" />
        </mxCell>
        <mxCell id="vS6UbNGED4iVd90E8qPK-256" value="PK" style="shape=partialRectangle;html=1;whiteSpace=wrap;connectable=0;fillColor=none;top=0;left=0;bottom=0;right=0;overflow=hidden;pointerEvents=1;" parent="vS6UbNGED4iVd90E8qPK-255" vertex="1">
          <mxGeometry width="40" height="30" as="geometry">
            <mxRectangle width="40" height="30" as="alternateBounds" />
          </mxGeometry>
        </mxCell>
        <mxCell id="vS6UbNGED4iVd90E8qPK-257" value="RewardID" style="shape=partialRectangle;html=1;whiteSpace=wrap;connectable=0;fillColor=none;top=0;left=0;bottom=0;right=0;align=left;spacingLeft=6;overflow=hidden;" parent="vS6UbNGED4iVd90E8qPK-255" vertex="1">
          <mxGeometry x="40" width="140" height="30" as="geometry">
            <mxRectangle width="140" height="30" as="alternateBounds" />
          </mxGeometry>
        </mxCell>
        <mxCell id="vS6UbNGED4iVd90E8qPK-258" value="" style="shape=tableRow;horizontal=0;startSize=0;swimlaneHead=0;swimlaneBody=0;top=0;left=0;bottom=0;right=0;collapsible=0;dropTarget=0;fillColor=none;points=[[0,0.5],[1,0.5]];portConstraint=eastwest;" parent="vS6UbNGED4iVd90E8qPK-254" vertex="1">
          <mxGeometry y="60" width="180" height="30" as="geometry" />
        </mxCell>
        <mxCell id="vS6UbNGED4iVd90E8qPK-259" value="FK" style="shape=partialRectangle;html=1;whiteSpace=wrap;connectable=0;fillColor=none;top=0;left=0;bottom=0;right=0;overflow=hidden;" parent="vS6UbNGED4iVd90E8qPK-258" vertex="1">
          <mxGeometry width="40" height="30" as="geometry">
            <mxRectangle width="40" height="30" as="alternateBounds" />
          </mxGeometry>
        </mxCell>
        <mxCell id="vS6UbNGED4iVd90E8qPK-260" value="UserID" style="shape=partialRectangle;html=1;whiteSpace=wrap;connectable=0;fillColor=none;top=0;left=0;bottom=0;right=0;align=left;spacingLeft=6;overflow=hidden;" parent="vS6UbNGED4iVd90E8qPK-258" vertex="1">
          <mxGeometry x="40" width="140" height="30" as="geometry">
            <mxRectangle width="140" height="30" as="alternateBounds" />
          </mxGeometry>
        </mxCell>
        <mxCell id="vS6UbNGED4iVd90E8qPK-261" value="" style="shape=tableRow;horizontal=0;startSize=0;swimlaneHead=0;swimlaneBody=0;top=0;left=0;bottom=0;right=0;collapsible=0;dropTarget=0;fillColor=none;points=[[0,0.5],[1,0.5]];portConstraint=eastwest;" parent="vS6UbNGED4iVd90E8qPK-254" vertex="1">
          <mxGeometry y="90" width="180" height="30" as="geometry" />
        </mxCell>
        <mxCell id="vS6UbNGED4iVd90E8qPK-262" value="FK" style="shape=partialRectangle;html=1;whiteSpace=wrap;connectable=0;fillColor=none;top=0;left=0;bottom=0;right=0;overflow=hidden;" parent="vS6UbNGED4iVd90E8qPK-261" vertex="1">
          <mxGeometry width="40" height="30" as="geometry">
            <mxRectangle width="40" height="30" as="alternateBounds" />
          </mxGeometry>
        </mxCell>
        <mxCell id="vS6UbNGED4iVd90E8qPK-263" value="ItemID" style="shape=partialRectangle;html=1;whiteSpace=wrap;connectable=0;fillColor=none;top=0;left=0;bottom=0;right=0;align=left;spacingLeft=6;overflow=hidden;" parent="vS6UbNGED4iVd90E8qPK-261" vertex="1">
          <mxGeometry x="40" width="140" height="30" as="geometry">
            <mxRectangle width="140" height="30" as="alternateBounds" />
          </mxGeometry>
        </mxCell>
        <mxCell id="vS6UbNGED4iVd90E8qPK-264" style="shape=tableRow;horizontal=0;startSize=0;swimlaneHead=0;swimlaneBody=0;top=0;left=0;bottom=0;right=0;collapsible=0;dropTarget=0;fillColor=none;points=[[0,0.5],[1,0.5]];portConstraint=eastwest;" parent="vS6UbNGED4iVd90E8qPK-254" vertex="1">
          <mxGeometry y="120" width="180" height="30" as="geometry" />
        </mxCell>
        <mxCell id="vS6UbNGED4iVd90E8qPK-265" style="shape=partialRectangle;html=1;whiteSpace=wrap;connectable=0;fillColor=none;top=0;left=0;bottom=0;right=0;overflow=hidden;" parent="vS6UbNGED4iVd90E8qPK-264" vertex="1">
          <mxGeometry width="40" height="30" as="geometry">
            <mxRectangle width="40" height="30" as="alternateBounds" />
          </mxGeometry>
        </mxCell>
        <mxCell id="vS6UbNGED4iVd90E8qPK-266" value="RewardAmount" style="shape=partialRectangle;html=1;whiteSpace=wrap;connectable=0;fillColor=none;top=0;left=0;bottom=0;right=0;align=left;spacingLeft=6;overflow=hidden;" parent="vS6UbNGED4iVd90E8qPK-264" vertex="1">
          <mxGeometry x="40" width="140" height="30" as="geometry">
            <mxRectangle width="140" height="30" as="alternateBounds" />
          </mxGeometry>
        </mxCell>
        <mxCell id="vS6UbNGED4iVd90E8qPK-267" style="shape=tableRow;horizontal=0;startSize=0;swimlaneHead=0;swimlaneBody=0;top=0;left=0;bottom=0;right=0;collapsible=0;dropTarget=0;fillColor=none;points=[[0,0.5],[1,0.5]];portConstraint=eastwest;" parent="vS6UbNGED4iVd90E8qPK-254" vertex="1">
          <mxGeometry y="150" width="180" height="30" as="geometry" />
        </mxCell>
        <mxCell id="vS6UbNGED4iVd90E8qPK-268" style="shape=partialRectangle;html=1;whiteSpace=wrap;connectable=0;fillColor=none;top=0;left=0;bottom=0;right=0;overflow=hidden;" parent="vS6UbNGED4iVd90E8qPK-267" vertex="1">
          <mxGeometry width="40" height="30" as="geometry">
            <mxRectangle width="40" height="30" as="alternateBounds" />
          </mxGeometry>
        </mxCell>
        <mxCell id="vS6UbNGED4iVd90E8qPK-269" value="Status" style="shape=partialRectangle;html=1;whiteSpace=wrap;connectable=0;fillColor=none;top=0;left=0;bottom=0;right=0;align=left;spacingLeft=6;overflow=hidden;" parent="vS6UbNGED4iVd90E8qPK-267" vertex="1">
          <mxGeometry x="40" width="140" height="30" as="geometry">
            <mxRectangle width="140" height="30" as="alternateBounds" />
          </mxGeometry>
        </mxCell>
        <mxCell id="vS6UbNGED4iVd90E8qPK-270" style="shape=tableRow;horizontal=0;startSize=0;swimlaneHead=0;swimlaneBody=0;top=0;left=0;bottom=0;right=0;collapsible=0;dropTarget=0;fillColor=none;points=[[0,0.5],[1,0.5]];portConstraint=eastwest;" parent="vS6UbNGED4iVd90E8qPK-254" vertex="1">
          <mxGeometry y="180" width="180" height="30" as="geometry" />
        </mxCell>
        <mxCell id="vS6UbNGED4iVd90E8qPK-271" style="shape=partialRectangle;html=1;whiteSpace=wrap;connectable=0;fillColor=none;top=0;left=0;bottom=0;right=0;overflow=hidden;" parent="vS6UbNGED4iVd90E8qPK-270" vertex="1">
          <mxGeometry width="40" height="30" as="geometry">
            <mxRectangle width="40" height="30" as="alternateBounds" />
          </mxGeometry>
        </mxCell>
        <mxCell id="vS6UbNGED4iVd90E8qPK-272" value="ReleaseDate" style="shape=partialRectangle;html=1;whiteSpace=wrap;connectable=0;fillColor=none;top=0;left=0;bottom=0;right=0;align=left;spacingLeft=6;overflow=hidden;" parent="vS6UbNGED4iVd90E8qPK-270" vertex="1">
          <mxGeometry x="40" width="140" height="30" as="geometry">
            <mxRectangle width="140" height="30" as="alternateBounds" />
          </mxGeometry>
        </mxCell>
        <mxCell id="vS6UbNGED4iVd90E8qPK-273" style="shape=tableRow;horizontal=0;startSize=0;swimlaneHead=0;swimlaneBody=0;top=0;left=0;bottom=0;right=0;collapsible=0;dropTarget=0;fillColor=none;points=[[0,0.5],[1,0.5]];portConstraint=eastwest;" parent="vS6UbNGED4iVd90E8qPK-254" vertex="1">
          <mxGeometry y="210" width="180" height="30" as="geometry" />
        </mxCell>
        <mxCell id="vS6UbNGED4iVd90E8qPK-274" style="shape=partialRectangle;html=1;whiteSpace=wrap;connectable=0;fillColor=none;top=0;left=0;bottom=0;right=0;overflow=hidden;" parent="vS6UbNGED4iVd90E8qPK-273" vertex="1">
          <mxGeometry width="40" height="30" as="geometry">
            <mxRectangle width="40" height="30" as="alternateBounds" />
          </mxGeometry>
        </mxCell>
        <mxCell id="vS6UbNGED4iVd90E8qPK-275" value="Deadline" style="shape=partialRectangle;html=1;whiteSpace=wrap;connectable=0;fillColor=none;top=0;left=0;bottom=0;right=0;align=left;spacingLeft=6;overflow=hidden;" parent="vS6UbNGED4iVd90E8qPK-273" vertex="1">
          <mxGeometry x="40" width="140" height="30" as="geometry">
            <mxRectangle width="140" height="30" as="alternateBounds" />
          </mxGeometry>
        </mxCell>
        <mxCell id="vS6UbNGED4iVd90E8qPK-300" style="edgeStyle=orthogonalEdgeStyle;rounded=0;orthogonalLoop=1;jettySize=auto;html=1;exitX=0.5;exitY=0;exitDx=0;exitDy=0;entryX=1;entryY=0.5;entryDx=0;entryDy=0;" parent="1" source="vS6UbNGED4iVd90E8qPK-276" target="vS6UbNGED4iVd90E8qPK-162" edge="1">
          <mxGeometry relative="1" as="geometry">
            <Array as="points">
              <mxPoint x="1180" y="1060" />
              <mxPoint x="1230" y="1060" />
              <mxPoint x="1230" y="295" />
            </Array>
          </mxGeometry>
        </mxCell>
        <mxCell id="vS6UbNGED4iVd90E8qPK-276" value="&lt;span style=&quot;font-weight: 700;&quot;&gt;ItemTagLinks&lt;/span&gt;" style="rhombus;whiteSpace=wrap;html=1;fontFamily=Helvetica;fontSize=12;" parent="1" vertex="1">
          <mxGeometry x="1100" y="1103" width="160" height="80" as="geometry" />
        </mxCell>
        <mxCell id="vS6UbNGED4iVd90E8qPK-299" style="edgeStyle=orthogonalEdgeStyle;rounded=0;orthogonalLoop=1;jettySize=auto;html=1;exitX=0.5;exitY=0;exitDx=0;exitDy=0;entryX=1;entryY=0.5;entryDx=0;entryDy=0;" parent="1" source="vS6UbNGED4iVd90E8qPK-277" target="vS6UbNGED4iVd90E8qPK-197" edge="1">
          <mxGeometry relative="1" as="geometry" />
        </mxCell>
        <mxCell id="vS6UbNGED4iVd90E8qPK-277" value="&lt;span style=&quot;font-weight: 700;&quot;&gt;ItemTagLinks&lt;/span&gt;" style="rhombus;whiteSpace=wrap;html=1;fontFamily=Helvetica;fontSize=12;" parent="1" vertex="1">
          <mxGeometry x="1690" y="1105" width="160" height="80" as="geometry" />
        </mxCell>
        <mxCell id="vS6UbNGED4iVd90E8qPK-278" value="" style="endArrow=none;dashed=1;html=1;rounded=0;fontSize=12;startSize=8;endSize=8;curved=1;exitX=0.5;exitY=1;exitDx=0;exitDy=0;entryX=0.5;entryY=0;entryDx=0;entryDy=0;" parent="1" source="vS6UbNGED4iVd90E8qPK-277" target="vS6UbNGED4iVd90E8qPK-279" edge="1">
          <mxGeometry width="50" height="50" relative="1" as="geometry">
            <mxPoint x="1415" y="670" as="sourcePoint" />
            <mxPoint x="1870" y="860" as="targetPoint" />
          </mxGeometry>
        </mxCell>
        <mxCell id="vS6UbNGED4iVd90E8qPK-279" value="ReviewStatus" style="rounded=0;whiteSpace=wrap;html=1;" parent="1" vertex="1">
          <mxGeometry x="1710" y="1232.5" width="120" height="60" as="geometry" />
        </mxCell>
        <mxCell id="vS6UbNGED4iVd90E8qPK-281" value="ReviewStatus" style="rounded=0;whiteSpace=wrap;html=1;" parent="1" vertex="1">
          <mxGeometry x="1120" y="1230" width="120" height="60" as="geometry" />
        </mxCell>
        <mxCell id="vS6UbNGED4iVd90E8qPK-282" value="" style="endArrow=none;dashed=1;html=1;rounded=0;fontSize=12;startSize=8;endSize=8;curved=1;exitX=0.5;exitY=0;exitDx=0;exitDy=0;entryX=0.5;entryY=1;entryDx=0;entryDy=0;" parent="1" source="vS6UbNGED4iVd90E8qPK-281" target="vS6UbNGED4iVd90E8qPK-276" edge="1">
          <mxGeometry width="50" height="50" relative="1" as="geometry">
            <mxPoint x="1770" y="1110.0000000000002" as="sourcePoint" />
            <mxPoint x="1910" y="960" as="targetPoint" />
          </mxGeometry>
        </mxCell>
        <mxCell id="vS6UbNGED4iVd90E8qPK-283" value="" style="endArrow=classic;startArrow=classic;html=1;fontFamily=Helvetica;fontSize=12;entryX=0;entryY=0.5;entryDx=0;entryDy=0;exitX=1;exitY=0.5;exitDx=0;exitDy=0;rounded=0;edgeStyle=orthogonalEdgeStyle;" parent="1" source="vS6UbNGED4iVd90E8qPK-153" target="vS6UbNGED4iVd90E8qPK-245" edge="1">
          <mxGeometry width="50" height="50" relative="1" as="geometry">
            <mxPoint x="1530" y="1300" as="sourcePoint" />
            <mxPoint x="1580" y="1250" as="targetPoint" />
            <Array as="points">
              <mxPoint x="1370" y="205" />
              <mxPoint x="1370" y="870" />
            </Array>
          </mxGeometry>
        </mxCell>
        <mxCell id="vS6UbNGED4iVd90E8qPK-285" value="" style="endArrow=classic;html=1;fontFamily=Helvetica;fontSize=12;entryX=1;entryY=0.5;entryDx=0;entryDy=0;exitX=0;exitY=0.5;exitDx=0;exitDy=0;rounded=0;edgeStyle=orthogonalEdgeStyle;" parent="1" source="vS6UbNGED4iVd90E8qPK-181" target="vS6UbNGED4iVd90E8qPK-156" edge="1">
          <mxGeometry width="50" height="50" relative="1" as="geometry">
            <mxPoint x="1530" y="1300" as="sourcePoint" />
            <mxPoint x="1770" y="1280" as="targetPoint" />
            <Array as="points">
              <mxPoint x="1310" y="1025" />
              <mxPoint x="1310" y="235" />
            </Array>
          </mxGeometry>
        </mxCell>
        <mxCell id="vS6UbNGED4iVd90E8qPK-288" value="" style="endArrow=none;html=1;fontFamily=Helvetica;fontSize=12;entryX=1;entryY=0.5;entryDx=0;entryDy=0;exitX=0;exitY=0.5;exitDx=0;exitDy=0;" parent="1" source="vS6UbNGED4iVd90E8qPK-277" target="vS6UbNGED4iVd90E8qPK-232" edge="1">
          <mxGeometry width="50" height="50" relative="1" as="geometry">
            <mxPoint x="1500" y="1300" as="sourcePoint" />
            <mxPoint x="1550" y="1250" as="targetPoint" />
          </mxGeometry>
        </mxCell>
        <mxCell id="vS6UbNGED4iVd90E8qPK-289" value="" style="endArrow=none;html=1;fontFamily=Helvetica;fontSize=12;entryX=1;entryY=0.5;entryDx=0;entryDy=0;exitX=0;exitY=0.5;exitDx=0;exitDy=0;" parent="1" source="vS6UbNGED4iVd90E8qPK-232" target="vS6UbNGED4iVd90E8qPK-276" edge="1">
          <mxGeometry width="50" height="50" relative="1" as="geometry">
            <mxPoint x="1500" y="1300" as="sourcePoint" />
            <mxPoint x="1550" y="1250" as="targetPoint" />
          </mxGeometry>
        </mxCell>
        <mxCell id="vS6UbNGED4iVd90E8qPK-291" value="" style="endArrow=classic;html=1;fontFamily=Helvetica;fontSize=12;entryX=1;entryY=0.5;entryDx=0;entryDy=0;exitX=0;exitY=0.5;exitDx=0;exitDy=0;rounded=0;edgeStyle=orthogonalEdgeStyle;" parent="1" source="vS6UbNGED4iVd90E8qPK-222" target="vS6UbNGED4iVd90E8qPK-168" edge="1">
          <mxGeometry width="50" height="50" relative="1" as="geometry">
            <mxPoint x="1490" y="1290" as="sourcePoint" />
            <mxPoint x="1340" y="1320" as="targetPoint" />
            <Array as="points">
              <mxPoint x="1260" y="1335" />
              <mxPoint x="1260" y="355" />
            </Array>
          </mxGeometry>
        </mxCell>
        <mxCell id="vS6UbNGED4iVd90E8qPK-297" style="edgeStyle=orthogonalEdgeStyle;rounded=0;orthogonalLoop=1;jettySize=auto;html=1;exitX=0;exitY=0.5;exitDx=0;exitDy=0;entryX=1;entryY=0.5;entryDx=0;entryDy=0;" parent="1" source="vS6UbNGED4iVd90E8qPK-245" target="vS6UbNGED4iVd90E8qPK-188" edge="1">
          <mxGeometry relative="1" as="geometry">
            <Array as="points">
              <mxPoint x="1290" y="870" />
              <mxPoint x="1290" y="665" />
            </Array>
          </mxGeometry>
        </mxCell>
        <mxCell id="vS6UbNGED4iVd90E8qPK-298" style="edgeStyle=orthogonalEdgeStyle;rounded=0;orthogonalLoop=1;jettySize=auto;html=1;exitX=0;exitY=0.5;exitDx=0;exitDy=0;entryX=1;entryY=0.5;entryDx=0;entryDy=0;" parent="1" source="vS6UbNGED4iVd90E8qPK-181" target="vS6UbNGED4iVd90E8qPK-194" edge="1">
          <mxGeometry relative="1" as="geometry">
            <Array as="points">
              <mxPoint x="1200" y="1025" />
              <mxPoint x="1200" y="725" />
            </Array>
          </mxGeometry>
        </mxCell>
        <mxCell id="vS6UbNGED4iVd90E8qPK-301" style="edgeStyle=orthogonalEdgeStyle;rounded=0;orthogonalLoop=1;jettySize=auto;html=1;exitX=1;exitY=0.5;exitDx=0;exitDy=0;entryX=1;entryY=0.5;entryDx=0;entryDy=0;" parent="1" source="vS6UbNGED4iVd90E8qPK-222" target="vS6UbNGED4iVd90E8qPK-188" edge="1">
          <mxGeometry relative="1" as="geometry">
            <Array as="points">
              <mxPoint x="1690" y="1335" />
              <mxPoint x="1690" y="665" />
            </Array>
          </mxGeometry>
        </mxCell>
        <mxCell id="vS6UbNGED4iVd90E8qPK-351" style="edgeStyle=orthogonalEdgeStyle;rounded=0;orthogonalLoop=1;jettySize=auto;html=1;exitX=1;exitY=0.5;exitDx=0;exitDy=0;entryX=0;entryY=0.5;entryDx=0;entryDy=0;endArrow=none;endFill=0;dashed=1;" parent="1" source="vS6UbNGED4iVd90E8qPK-339" target="vS6UbNGED4iVd90E8qPK-342" edge="1">
          <mxGeometry relative="1" as="geometry" />
        </mxCell>
        <mxCell id="vS6UbNGED4iVd90E8qPK-339" value="return_item_agreement" style="rhombus;whiteSpace=wrap;html=1;" parent="1" vertex="1">
          <mxGeometry x="2090" y="655" width="160" height="90" as="geometry" />
        </mxCell>
        <mxCell id="vS6UbNGED4iVd90E8qPK-340" value="lost_ID" style="text;html=1;align=center;verticalAlign=middle;whiteSpace=wrap;rounded=0;fontSize=16;" parent="1" vertex="1">
          <mxGeometry x="2070" y="595" width="60" height="30" as="geometry" />
        </mxCell>
        <mxCell id="vS6UbNGED4iVd90E8qPK-341" value="find_ID" style="text;html=1;align=center;verticalAlign=middle;whiteSpace=wrap;rounded=0;fontSize=16;" parent="1" vertex="1">
          <mxGeometry x="2070" y="785" width="60" height="30" as="geometry" />
        </mxCell>
        <mxCell id="vS6UbNGED4iVd90E8qPK-342" value="return_state&lt;div&gt;return_date&lt;/div&gt;&lt;div&gt;return_agreement&lt;/div&gt;" style="rounded=0;whiteSpace=wrap;html=1;" parent="1" vertex="1">
          <mxGeometry x="2310" y="670" width="100" height="60" as="geometry" />
        </mxCell>
        <mxCell id="vS6UbNGED4iVd90E8qPK-349" style="edgeStyle=orthogonalEdgeStyle;rounded=0;orthogonalLoop=1;jettySize=auto;html=1;exitX=1;exitY=0.5;exitDx=0;exitDy=0;entryX=0.5;entryY=0;entryDx=0;entryDy=0;endArrow=none;endFill=0;" parent="1" source="vS6UbNGED4iVd90E8qPK-134" target="vS6UbNGED4iVd90E8qPK-339" edge="1">
          <mxGeometry relative="1" as="geometry" />
        </mxCell>
        <mxCell id="vS6UbNGED4iVd90E8qPK-350" style="edgeStyle=orthogonalEdgeStyle;rounded=0;orthogonalLoop=1;jettySize=auto;html=1;exitX=1;exitY=0.5;exitDx=0;exitDy=0;endArrow=none;endFill=0;" parent="1" source="vS6UbNGED4iVd90E8qPK-149" edge="1">
          <mxGeometry relative="1" as="geometry">
            <mxPoint x="2170" y="745" as="targetPoint" />
          </mxGeometry>
        </mxCell>
        <mxCell id="vS6UbNGED4iVd90E8qPK-362" style="edgeStyle=orthogonalEdgeStyle;rounded=0;orthogonalLoop=1;jettySize=auto;html=1;exitX=1;exitY=0.5;exitDx=0;exitDy=0;entryX=0.5;entryY=1;entryDx=0;entryDy=0;endArrow=none;endFill=0;dashed=1;" parent="1" source="vS6UbNGED4iVd90E8qPK-352" target="vS6UbNGED4iVd90E8qPK-358" edge="1">
          <mxGeometry relative="1" as="geometry" />
        </mxCell>
        <mxCell id="vS6UbNGED4iVd90E8qPK-363" style="edgeStyle=orthogonalEdgeStyle;rounded=0;orthogonalLoop=1;jettySize=auto;html=1;exitX=1;exitY=0.5;exitDx=0;exitDy=0;entryX=0.5;entryY=0;entryDx=0;entryDy=0;endArrow=none;endFill=0;dashed=1;" parent="1" source="vS6UbNGED4iVd90E8qPK-352" target="vS6UbNGED4iVd90E8qPK-359" edge="1">
          <mxGeometry relative="1" as="geometry" />
        </mxCell>
        <mxCell id="vS6UbNGED4iVd90E8qPK-352" value="match" style="rhombus;whiteSpace=wrap;html=1;" parent="1" vertex="1">
          <mxGeometry x="1390" y="440" width="120" height="50" as="geometry" />
        </mxCell>
        <mxCell id="vS6UbNGED4iVd90E8qPK-358" value="match_date" style="rounded=0;whiteSpace=wrap;html=1;" parent="1" vertex="1">
          <mxGeometry x="1496" y="385" width="95" height="30" as="geometry" />
        </mxCell>
        <mxCell id="vS6UbNGED4iVd90E8qPK-359" value="match_state" style="rounded=0;whiteSpace=wrap;html=1;" parent="1" vertex="1">
          <mxGeometry x="1496" y="515" width="95" height="30" as="geometry" />
        </mxCell>
        <mxCell id="vS6UbNGED4iVd90E8qPK-375" style="edgeStyle=orthogonalEdgeStyle;rounded=0;orthogonalLoop=1;jettySize=auto;html=1;exitX=0;exitY=0.5;exitDx=0;exitDy=0;entryX=0.5;entryY=1;entryDx=0;entryDy=0;endArrow=none;endFill=0;dashed=1;" parent="1" source="vS6UbNGED4iVd90E8qPK-364" target="vS6UbNGED4iVd90E8qPK-374" edge="1">
          <mxGeometry relative="1" as="geometry" />
        </mxCell>
        <mxCell id="vS6UbNGED4iVd90E8qPK-364" value="publish" style="rhombus;whiteSpace=wrap;html=1;" parent="1" vertex="1">
          <mxGeometry x="1710" y="495" width="100" height="55" as="geometry" />
        </mxCell>
        <mxCell id="vS6UbNGED4iVd90E8qPK-377" style="edgeStyle=orthogonalEdgeStyle;rounded=0;orthogonalLoop=1;jettySize=auto;html=1;exitX=0.5;exitY=1;exitDx=0;exitDy=0;endArrow=none;endFill=0;dashed=1;" parent="1" source="vS6UbNGED4iVd90E8qPK-370" target="vS6UbNGED4iVd90E8qPK-376" edge="1">
          <mxGeometry relative="1" as="geometry" />
        </mxCell>
        <mxCell id="vS6UbNGED4iVd90E8qPK-370" value="claim" style="rhombus;whiteSpace=wrap;html=1;" parent="1" vertex="1">
          <mxGeometry x="1705" y="610" width="110" height="55" as="geometry" />
        </mxCell>
        <mxCell id="vS6UbNGED4iVd90E8qPK-374" value="publish_state&lt;div&gt;publish_date&lt;/div&gt;" style="rounded=0;whiteSpace=wrap;html=1;" parent="1" vertex="1">
          <mxGeometry x="1640" y="405" width="80" height="40" as="geometry" />
        </mxCell>
        <mxCell id="vS6UbNGED4iVd90E8qPK-376" value="claim_state&lt;div&gt;claim_date&lt;/div&gt;" style="rounded=0;whiteSpace=wrap;html=1;" parent="1" vertex="1">
          <mxGeometry x="1720" y="705" width="80" height="40" as="geometry" />
        </mxCell>
        <mxCell id="vS6UbNGED4iVd90E8qPK-379" value="preference" style="shape=table;startSize=30;container=1;collapsible=1;childLayout=tableLayout;fixedRows=1;rowLines=0;fontStyle=1;align=center;resizeLast=1;" parent="1" vertex="1">
          <mxGeometry x="2008" y="950" width="250" height="100" as="geometry" />
        </mxCell>
        <mxCell id="vS6UbNGED4iVd90E8qPK-380" value="" style="shape=partialRectangle;collapsible=0;dropTarget=0;pointerEvents=0;fillColor=none;points=[[0,0.5],[1,0.5]];portConstraint=eastwest;top=0;left=0;right=0;bottom=1;" parent="vS6UbNGED4iVd90E8qPK-379" vertex="1">
          <mxGeometry y="30" width="250" height="30" as="geometry" />
        </mxCell>
        <mxCell id="vS6UbNGED4iVd90E8qPK-381" value="PK" style="shape=partialRectangle;overflow=hidden;connectable=0;fillColor=none;top=0;left=0;bottom=0;right=0;fontStyle=1;" parent="vS6UbNGED4iVd90E8qPK-380" vertex="1">
          <mxGeometry width="30" height="30" as="geometry">
            <mxRectangle width="30" height="30" as="alternateBounds" />
          </mxGeometry>
        </mxCell>
        <mxCell id="vS6UbNGED4iVd90E8qPK-382" value="preference_id int NOT NULL " style="shape=partialRectangle;overflow=hidden;connectable=0;fillColor=none;top=0;left=0;bottom=0;right=0;align=left;spacingLeft=6;fontStyle=5;" parent="vS6UbNGED4iVd90E8qPK-380" vertex="1">
          <mxGeometry x="30" width="220" height="30" as="geometry">
            <mxRectangle width="220" height="30" as="alternateBounds" />
          </mxGeometry>
        </mxCell>
        <mxCell id="vS6UbNGED4iVd90E8qPK-383" value="" style="shape=partialRectangle;collapsible=0;dropTarget=0;pointerEvents=0;fillColor=none;points=[[0,0.5],[1,0.5]];portConstraint=eastwest;top=0;left=0;right=0;bottom=0;" parent="vS6UbNGED4iVd90E8qPK-379" vertex="1">
          <mxGeometry y="60" width="250" height="30" as="geometry" />
        </mxCell>
        <mxCell id="vS6UbNGED4iVd90E8qPK-384" value="" style="shape=partialRectangle;overflow=hidden;connectable=0;fillColor=none;top=0;left=0;bottom=0;right=0;" parent="vS6UbNGED4iVd90E8qPK-383" vertex="1">
          <mxGeometry width="30" height="30" as="geometry">
            <mxRectangle width="30" height="30" as="alternateBounds" />
          </mxGeometry>
        </mxCell>
        <mxCell id="vS6UbNGED4iVd90E8qPK-385" value="date date NOT NULL" style="shape=partialRectangle;overflow=hidden;connectable=0;fillColor=none;top=0;left=0;bottom=0;right=0;align=left;spacingLeft=6;" parent="vS6UbNGED4iVd90E8qPK-383" vertex="1">
          <mxGeometry x="30" width="220" height="30" as="geometry">
            <mxRectangle width="220" height="30" as="alternateBounds" />
          </mxGeometry>
        </mxCell>
        <mxCell id="vS6UbNGED4iVd90E8qPK-386" value="content_1" style="shape=table;startSize=30;container=1;collapsible=1;childLayout=tableLayout;fixedRows=1;rowLines=0;fontStyle=1;align=center;resizeLast=1;" parent="1" vertex="1">
          <mxGeometry x="2018" y="1203.5" width="270" height="190" as="geometry">
            <mxRectangle x="290" y="400" width="80" height="30" as="alternateBounds" />
          </mxGeometry>
        </mxCell>
        <mxCell id="vS6UbNGED4iVd90E8qPK-387" value="" style="shape=partialRectangle;collapsible=0;dropTarget=0;pointerEvents=0;fillColor=none;points=[[0,0.5],[1,0.5]];portConstraint=eastwest;top=0;left=0;right=0;bottom=0;" parent="vS6UbNGED4iVd90E8qPK-386" vertex="1">
          <mxGeometry y="30" width="270" height="30" as="geometry" />
        </mxCell>
        <mxCell id="vS6UbNGED4iVd90E8qPK-388" value="" style="shape=partialRectangle;overflow=hidden;connectable=0;fillColor=none;top=0;left=0;bottom=0;right=0;" parent="vS6UbNGED4iVd90E8qPK-387" vertex="1">
          <mxGeometry width="30" height="30" as="geometry">
            <mxRectangle width="30" height="30" as="alternateBounds" />
          </mxGeometry>
        </mxCell>
        <mxCell id="vS6UbNGED4iVd90E8qPK-389" value="ways_to_accept_message" style="shape=partialRectangle;overflow=hidden;connectable=0;fillColor=none;top=0;left=0;bottom=0;right=0;align=left;spacingLeft=6;" parent="vS6UbNGED4iVd90E8qPK-387" vertex="1">
          <mxGeometry x="30" width="240" height="30" as="geometry">
            <mxRectangle width="240" height="30" as="alternateBounds" />
          </mxGeometry>
        </mxCell>
        <mxCell id="vS6UbNGED4iVd90E8qPK-390" value="" style="shape=partialRectangle;collapsible=0;dropTarget=0;pointerEvents=0;fillColor=none;points=[[0,0.5],[1,0.5]];portConstraint=eastwest;top=0;left=0;right=0;bottom=0;" parent="vS6UbNGED4iVd90E8qPK-386" vertex="1">
          <mxGeometry y="60" width="270" height="30" as="geometry" />
        </mxCell>
        <mxCell id="vS6UbNGED4iVd90E8qPK-391" value="" style="shape=partialRectangle;overflow=hidden;connectable=0;fillColor=none;top=0;left=0;bottom=0;right=0;" parent="vS6UbNGED4iVd90E8qPK-390" vertex="1">
          <mxGeometry width="30" height="30" as="geometry">
            <mxRectangle width="30" height="30" as="alternateBounds" />
          </mxGeometry>
        </mxCell>
        <mxCell id="vS6UbNGED4iVd90E8qPK-392" value="day_or_night_pattern" style="shape=partialRectangle;overflow=hidden;connectable=0;fillColor=none;top=0;left=0;bottom=0;right=0;align=left;spacingLeft=6;" parent="vS6UbNGED4iVd90E8qPK-390" vertex="1">
          <mxGeometry x="30" width="240" height="30" as="geometry">
            <mxRectangle width="240" height="30" as="alternateBounds" />
          </mxGeometry>
        </mxCell>
        <mxCell id="vS6UbNGED4iVd90E8qPK-393" value="" style="shape=partialRectangle;collapsible=0;dropTarget=0;pointerEvents=0;fillColor=none;points=[[0,0.5],[1,0.5]];portConstraint=eastwest;top=0;left=0;right=0;bottom=0;" parent="vS6UbNGED4iVd90E8qPK-386" vertex="1">
          <mxGeometry y="90" width="270" height="30" as="geometry" />
        </mxCell>
        <mxCell id="vS6UbNGED4iVd90E8qPK-394" value="" style="shape=partialRectangle;overflow=hidden;connectable=0;fillColor=none;top=0;left=0;bottom=0;right=0;" parent="vS6UbNGED4iVd90E8qPK-393" vertex="1">
          <mxGeometry width="30" height="30" as="geometry">
            <mxRectangle width="30" height="30" as="alternateBounds" />
          </mxGeometry>
        </mxCell>
        <mxCell id="vS6UbNGED4iVd90E8qPK-395" value="old_pattern" style="shape=partialRectangle;overflow=hidden;connectable=0;fillColor=none;top=0;left=0;bottom=0;right=0;align=left;spacingLeft=6;" parent="vS6UbNGED4iVd90E8qPK-393" vertex="1">
          <mxGeometry x="30" width="240" height="30" as="geometry">
            <mxRectangle width="240" height="30" as="alternateBounds" />
          </mxGeometry>
        </mxCell>
        <mxCell id="vS6UbNGED4iVd90E8qPK-396" value="" style="shape=partialRectangle;collapsible=0;dropTarget=0;pointerEvents=0;fillColor=none;points=[[0,0.5],[1,0.5]];portConstraint=eastwest;top=0;left=0;right=0;bottom=0;" parent="vS6UbNGED4iVd90E8qPK-386" vertex="1">
          <mxGeometry y="120" width="270" height="30" as="geometry" />
        </mxCell>
        <mxCell id="vS6UbNGED4iVd90E8qPK-397" value="" style="shape=partialRectangle;overflow=hidden;connectable=0;fillColor=none;top=0;left=0;bottom=0;right=0;" parent="vS6UbNGED4iVd90E8qPK-396" vertex="1">
          <mxGeometry width="30" height="30" as="geometry">
            <mxRectangle width="30" height="30" as="alternateBounds" />
          </mxGeometry>
        </mxCell>
        <mxCell id="vS6UbNGED4iVd90E8qPK-398" value="location_allow" style="shape=partialRectangle;overflow=hidden;connectable=0;fillColor=none;top=0;left=0;bottom=0;right=0;align=left;spacingLeft=6;" parent="vS6UbNGED4iVd90E8qPK-396" vertex="1">
          <mxGeometry x="30" width="240" height="30" as="geometry">
            <mxRectangle width="240" height="30" as="alternateBounds" />
          </mxGeometry>
        </mxCell>
        <mxCell id="vS6UbNGED4iVd90E8qPK-399" value="" style="shape=partialRectangle;collapsible=0;dropTarget=0;pointerEvents=0;fillColor=none;points=[[0,0.5],[1,0.5]];portConstraint=eastwest;top=0;left=0;right=0;bottom=0;" parent="vS6UbNGED4iVd90E8qPK-386" vertex="1">
          <mxGeometry y="150" width="270" height="30" as="geometry" />
        </mxCell>
        <mxCell id="vS6UbNGED4iVd90E8qPK-400" value="" style="shape=partialRectangle;overflow=hidden;connectable=0;fillColor=none;top=0;left=0;bottom=0;right=0;" parent="vS6UbNGED4iVd90E8qPK-399" vertex="1">
          <mxGeometry width="30" height="30" as="geometry">
            <mxRectangle width="30" height="30" as="alternateBounds" />
          </mxGeometry>
        </mxCell>
        <mxCell id="vS6UbNGED4iVd90E8qPK-401" value="stranger_send_message_more_than_one" style="shape=partialRectangle;overflow=hidden;connectable=0;fillColor=none;top=0;left=0;bottom=0;right=0;align=left;spacingLeft=6;" parent="vS6UbNGED4iVd90E8qPK-399" vertex="1">
          <mxGeometry x="30" width="240" height="30" as="geometry">
            <mxRectangle width="240" height="30" as="alternateBounds" />
          </mxGeometry>
        </mxCell>
        <mxCell id="vS6UbNGED4iVd90E8qPK-450" style="edgeStyle=orthogonalEdgeStyle;rounded=0;orthogonalLoop=1;jettySize=auto;html=1;exitX=1;exitY=0.5;exitDx=0;exitDy=0;entryX=0.5;entryY=0;entryDx=0;entryDy=0;endArrow=none;endFill=0;" parent="1" source="vS6UbNGED4iVd90E8qPK-406" target="vS6UbNGED4iVd90E8qPK-379" edge="1">
          <mxGeometry relative="1" as="geometry" />
        </mxCell>
        <mxCell id="vS6UbNGED4iVd90E8qPK-406" value="user_preference" style="rhombus;whiteSpace=wrap;html=1;" parent="1" vertex="1">
          <mxGeometry x="1853" y="860" width="155" height="60" as="geometry" />
        </mxCell>
        <mxCell id="vS6UbNGED4iVd90E8qPK-409" value="prefer_content" style="rhombus;whiteSpace=wrap;html=1;" parent="1" vertex="1">
          <mxGeometry x="2055.5" y="1100" width="155" height="60" as="geometry" />
        </mxCell>
        <mxCell id="vS6UbNGED4iVd90E8qPK-410" value="" style="endArrow=none;html=1;rounded=0;exitX=0.5;exitY=0;exitDx=0;exitDy=0;entryX=0.5;entryY=1;entryDx=0;entryDy=0;" parent="1" source="vS6UbNGED4iVd90E8qPK-409" target="vS6UbNGED4iVd90E8qPK-379" edge="1">
          <mxGeometry width="50" height="50" relative="1" as="geometry">
            <mxPoint x="2170" y="1228" as="sourcePoint" />
            <mxPoint x="2220" y="1178" as="targetPoint" />
          </mxGeometry>
        </mxCell>
        <mxCell id="vS6UbNGED4iVd90E8qPK-452" style="edgeStyle=orthogonalEdgeStyle;rounded=0;orthogonalLoop=1;jettySize=auto;html=1;exitX=1;exitY=0.5;exitDx=0;exitDy=0;entryX=0.5;entryY=0;entryDx=0;entryDy=0;endArrow=none;endFill=0;" parent="1" source="vS6UbNGED4iVd90E8qPK-413" target="vS6UbNGED4iVd90E8qPK-415" edge="1">
          <mxGeometry relative="1" as="geometry" />
        </mxCell>
        <mxCell id="vS6UbNGED4iVd90E8qPK-453" style="edgeStyle=orthogonalEdgeStyle;rounded=0;orthogonalLoop=1;jettySize=auto;html=1;exitX=0.5;exitY=0;exitDx=0;exitDy=0;endArrow=none;endFill=0;" parent="1" edge="1">
          <mxGeometry relative="1" as="geometry">
            <mxPoint x="1950" y="791" as="targetPoint" />
            <mxPoint x="2288" y="850.9999999999998" as="sourcePoint" />
            <Array as="points">
              <mxPoint x="1950" y="852" />
            </Array>
          </mxGeometry>
        </mxCell>
        <mxCell id="vS6UbNGED4iVd90E8qPK-413" value="user_book" style="rhombus;whiteSpace=wrap;html=1;" parent="1" vertex="1">
          <mxGeometry x="2210.5" y="850" width="155" height="60" as="geometry" />
        </mxCell>
        <mxCell id="vS6UbNGED4iVd90E8qPK-415" value="book" style="shape=table;startSize=30;container=1;collapsible=1;childLayout=tableLayout;fixedRows=1;rowLines=0;fontStyle=1;align=center;resizeLast=1;" parent="1" vertex="1">
          <mxGeometry x="2350" y="945" width="250" height="130" as="geometry" />
        </mxCell>
        <mxCell id="vS6UbNGED4iVd90E8qPK-416" value="" style="shape=partialRectangle;collapsible=0;dropTarget=0;pointerEvents=0;fillColor=none;points=[[0,0.5],[1,0.5]];portConstraint=eastwest;top=0;left=0;right=0;bottom=1;" parent="vS6UbNGED4iVd90E8qPK-415" vertex="1">
          <mxGeometry y="30" width="250" height="30" as="geometry" />
        </mxCell>
        <mxCell id="vS6UbNGED4iVd90E8qPK-417" value="PK" style="shape=partialRectangle;overflow=hidden;connectable=0;fillColor=none;top=0;left=0;bottom=0;right=0;fontStyle=1;" parent="vS6UbNGED4iVd90E8qPK-416" vertex="1">
          <mxGeometry width="30" height="30" as="geometry">
            <mxRectangle width="30" height="30" as="alternateBounds" />
          </mxGeometry>
        </mxCell>
        <mxCell id="vS6UbNGED4iVd90E8qPK-418" value="book_id int NOT NULL " style="shape=partialRectangle;overflow=hidden;connectable=0;fillColor=none;top=0;left=0;bottom=0;right=0;align=left;spacingLeft=6;fontStyle=5;" parent="vS6UbNGED4iVd90E8qPK-416" vertex="1">
          <mxGeometry x="30" width="220" height="30" as="geometry">
            <mxRectangle width="220" height="30" as="alternateBounds" />
          </mxGeometry>
        </mxCell>
        <mxCell id="vS6UbNGED4iVd90E8qPK-419" value="" style="shape=partialRectangle;collapsible=0;dropTarget=0;pointerEvents=0;fillColor=none;points=[[0,0.5],[1,0.5]];portConstraint=eastwest;top=0;left=0;right=0;bottom=0;" parent="vS6UbNGED4iVd90E8qPK-415" vertex="1">
          <mxGeometry y="60" width="250" height="30" as="geometry" />
        </mxCell>
        <mxCell id="vS6UbNGED4iVd90E8qPK-420" value="" style="shape=partialRectangle;overflow=hidden;connectable=0;fillColor=none;top=0;left=0;bottom=0;right=0;" parent="vS6UbNGED4iVd90E8qPK-419" vertex="1">
          <mxGeometry width="30" height="30" as="geometry">
            <mxRectangle width="30" height="30" as="alternateBounds" />
          </mxGeometry>
        </mxCell>
        <mxCell id="vS6UbNGED4iVd90E8qPK-421" value="date date NOT NULL" style="shape=partialRectangle;overflow=hidden;connectable=0;fillColor=none;top=0;left=0;bottom=0;right=0;align=left;spacingLeft=6;" parent="vS6UbNGED4iVd90E8qPK-419" vertex="1">
          <mxGeometry x="30" width="220" height="30" as="geometry">
            <mxRectangle width="220" height="30" as="alternateBounds" />
          </mxGeometry>
        </mxCell>
        <mxCell id="vS6UbNGED4iVd90E8qPK-422" value="" style="shape=partialRectangle;collapsible=0;dropTarget=0;pointerEvents=0;fillColor=none;points=[[0,0.5],[1,0.5]];portConstraint=eastwest;top=0;left=0;right=0;bottom=0;" parent="vS6UbNGED4iVd90E8qPK-415" vertex="1">
          <mxGeometry y="90" width="250" height="30" as="geometry" />
        </mxCell>
        <mxCell id="vS6UbNGED4iVd90E8qPK-423" value="" style="shape=partialRectangle;overflow=hidden;connectable=0;fillColor=none;top=0;left=0;bottom=0;right=0;" parent="vS6UbNGED4iVd90E8qPK-422" vertex="1">
          <mxGeometry width="30" height="30" as="geometry">
            <mxRectangle width="30" height="30" as="alternateBounds" />
          </mxGeometry>
        </mxCell>
        <mxCell id="vS6UbNGED4iVd90E8qPK-424" value="state int NOT NULL" style="shape=partialRectangle;overflow=hidden;connectable=0;fillColor=none;top=0;left=0;bottom=0;right=0;align=left;spacingLeft=6;" parent="vS6UbNGED4iVd90E8qPK-422" vertex="1">
          <mxGeometry x="30" width="220" height="30" as="geometry">
            <mxRectangle width="220" height="30" as="alternateBounds" />
          </mxGeometry>
        </mxCell>
        <mxCell id="vS6UbNGED4iVd90E8qPK-425" value="book_content" style="rhombus;whiteSpace=wrap;html=1;" parent="1" vertex="1">
          <mxGeometry x="2397.5" y="1093" width="155" height="60" as="geometry" />
        </mxCell>
        <mxCell id="vS6UbNGED4iVd90E8qPK-426" value="content_2" style="shape=table;startSize=30;container=1;collapsible=1;childLayout=tableLayout;fixedRows=1;rowLines=0;fontStyle=1;align=center;resizeLast=1;" parent="1" vertex="1">
          <mxGeometry x="2375.5" y="1208" width="270" height="160" as="geometry">
            <mxRectangle x="290" y="400" width="80" height="30" as="alternateBounds" />
          </mxGeometry>
        </mxCell>
        <mxCell id="vS6UbNGED4iVd90E8qPK-427" value="" style="shape=partialRectangle;collapsible=0;dropTarget=0;pointerEvents=0;fillColor=none;points=[[0,0.5],[1,0.5]];portConstraint=eastwest;top=0;left=0;right=0;bottom=0;" parent="vS6UbNGED4iVd90E8qPK-426" vertex="1">
          <mxGeometry y="30" width="270" height="30" as="geometry" />
        </mxCell>
        <mxCell id="vS6UbNGED4iVd90E8qPK-428" value="" style="shape=partialRectangle;overflow=hidden;connectable=0;fillColor=none;top=0;left=0;bottom=0;right=0;" parent="vS6UbNGED4iVd90E8qPK-427" vertex="1">
          <mxGeometry width="30" height="30" as="geometry">
            <mxRectangle width="30" height="30" as="alternateBounds" />
          </mxGeometry>
        </mxCell>
        <mxCell id="vS6UbNGED4iVd90E8qPK-429" value="special_location_finditem_remind" style="shape=partialRectangle;overflow=hidden;connectable=0;fillColor=none;top=0;left=0;bottom=0;right=0;align=left;spacingLeft=6;" parent="vS6UbNGED4iVd90E8qPK-427" vertex="1">
          <mxGeometry x="30" width="240" height="30" as="geometry">
            <mxRectangle width="240" height="30" as="alternateBounds" />
          </mxGeometry>
        </mxCell>
        <mxCell id="vS6UbNGED4iVd90E8qPK-430" value="" style="shape=partialRectangle;collapsible=0;dropTarget=0;pointerEvents=0;fillColor=none;points=[[0,0.5],[1,0.5]];portConstraint=eastwest;top=0;left=0;right=0;bottom=0;" parent="vS6UbNGED4iVd90E8qPK-426" vertex="1">
          <mxGeometry y="60" width="270" height="30" as="geometry" />
        </mxCell>
        <mxCell id="vS6UbNGED4iVd90E8qPK-431" value="" style="shape=partialRectangle;overflow=hidden;connectable=0;fillColor=none;top=0;left=0;bottom=0;right=0;" parent="vS6UbNGED4iVd90E8qPK-430" vertex="1">
          <mxGeometry width="30" height="30" as="geometry">
            <mxRectangle width="30" height="30" as="alternateBounds" />
          </mxGeometry>
        </mxCell>
        <mxCell id="vS6UbNGED4iVd90E8qPK-432" value="special_type_finditem_remind" style="shape=partialRectangle;overflow=hidden;connectable=0;fillColor=none;top=0;left=0;bottom=0;right=0;align=left;spacingLeft=6;" parent="vS6UbNGED4iVd90E8qPK-430" vertex="1">
          <mxGeometry x="30" width="240" height="30" as="geometry">
            <mxRectangle width="240" height="30" as="alternateBounds" />
          </mxGeometry>
        </mxCell>
        <mxCell id="vS6UbNGED4iVd90E8qPK-433" value="" style="shape=partialRectangle;collapsible=0;dropTarget=0;pointerEvents=0;fillColor=none;points=[[0,0.5],[1,0.5]];portConstraint=eastwest;top=0;left=0;right=0;bottom=0;" parent="vS6UbNGED4iVd90E8qPK-426" vertex="1">
          <mxGeometry y="90" width="270" height="30" as="geometry" />
        </mxCell>
        <mxCell id="vS6UbNGED4iVd90E8qPK-434" value="" style="shape=partialRectangle;overflow=hidden;connectable=0;fillColor=none;top=0;left=0;bottom=0;right=0;" parent="vS6UbNGED4iVd90E8qPK-433" vertex="1">
          <mxGeometry width="30" height="30" as="geometry">
            <mxRectangle width="30" height="30" as="alternateBounds" />
          </mxGeometry>
        </mxCell>
        <mxCell id="vS6UbNGED4iVd90E8qPK-435" value="friend_message_remind" style="shape=partialRectangle;overflow=hidden;connectable=0;fillColor=none;top=0;left=0;bottom=0;right=0;align=left;spacingLeft=6;" parent="vS6UbNGED4iVd90E8qPK-433" vertex="1">
          <mxGeometry x="30" width="240" height="30" as="geometry">
            <mxRectangle width="240" height="30" as="alternateBounds" />
          </mxGeometry>
        </mxCell>
        <mxCell id="vS6UbNGED4iVd90E8qPK-436" value="" style="shape=partialRectangle;collapsible=0;dropTarget=0;pointerEvents=0;fillColor=none;points=[[0,0.5],[1,0.5]];portConstraint=eastwest;top=0;left=0;right=0;bottom=0;" parent="vS6UbNGED4iVd90E8qPK-426" vertex="1">
          <mxGeometry y="120" width="270" height="30" as="geometry" />
        </mxCell>
        <mxCell id="vS6UbNGED4iVd90E8qPK-437" value="" style="shape=partialRectangle;overflow=hidden;connectable=0;fillColor=none;top=0;left=0;bottom=0;right=0;" parent="vS6UbNGED4iVd90E8qPK-436" vertex="1">
          <mxGeometry width="30" height="30" as="geometry">
            <mxRectangle width="30" height="30" as="alternateBounds" />
          </mxGeometry>
        </mxCell>
        <mxCell id="vS6UbNGED4iVd90E8qPK-438" value="follow_finditem_change_state_remind" style="shape=partialRectangle;overflow=hidden;connectable=0;fillColor=none;top=0;left=0;bottom=0;right=0;align=left;spacingLeft=6;" parent="vS6UbNGED4iVd90E8qPK-436" vertex="1">
          <mxGeometry x="30" width="240" height="30" as="geometry">
            <mxRectangle width="240" height="30" as="alternateBounds" />
          </mxGeometry>
        </mxCell>
        <mxCell id="vS6UbNGED4iVd90E8qPK-439" value="" style="endArrow=none;html=1;rounded=0;exitX=0.5;exitY=0;exitDx=0;exitDy=0;entryX=0.5;entryY=1;entryDx=0;entryDy=0;" parent="1" source="vS6UbNGED4iVd90E8qPK-425" target="vS6UbNGED4iVd90E8qPK-415" edge="1">
          <mxGeometry width="50" height="50" relative="1" as="geometry">
            <mxPoint x="2507.923076923077" y="1239.3846153846152" as="sourcePoint" />
            <mxPoint x="2500" y="1208" as="targetPoint" />
          </mxGeometry>
        </mxCell>
        <mxCell id="vS6UbNGED4iVd90E8qPK-440" value="" style="endArrow=none;dashed=1;html=1;rounded=0;fontSize=12;startSize=8;endSize=8;curved=1;entryX=0.685;entryY=-0.067;entryDx=0;entryDy=0;entryPerimeter=0;" parent="1" target="vS6UbNGED4iVd90E8qPK-390" edge="1">
          <mxGeometry width="50" height="50" relative="1" as="geometry">
            <mxPoint x="2048" y="1263.5" as="sourcePoint" />
            <mxPoint x="2118" y="1263.5" as="targetPoint" />
          </mxGeometry>
        </mxCell>
        <mxCell id="vS6UbNGED4iVd90E8qPK-446" value="" style="swimlane;startSize=0;dashed=1;" parent="1" vertex="1">
          <mxGeometry x="2365.5" y="1198" width="290" height="180" as="geometry" />
        </mxCell>
        <mxCell id="vS6UbNGED4iVd90E8qPK-449" style="edgeStyle=orthogonalEdgeStyle;rounded=0;orthogonalLoop=1;jettySize=auto;html=1;exitX=0.5;exitY=0;exitDx=0;exitDy=0;entryX=0.447;entryY=1.029;entryDx=0;entryDy=0;entryPerimeter=0;endArrow=none;endFill=0;" parent="1" source="vS6UbNGED4iVd90E8qPK-406" target="vS6UbNGED4iVd90E8qPK-149" edge="1">
          <mxGeometry relative="1" as="geometry" />
        </mxCell>
        <mxCell id="vS6UbNGED4iVd90E8qPK-451" value="" style="swimlane;startSize=0;dashed=1;" parent="1" vertex="1">
          <mxGeometry x="2008" y="1193" width="290" height="212.5" as="geometry" />
        </mxCell>
        <mxCell id="vS6UbNGED4iVd90E8qPK-454" value="" style="endArrow=none;html=1;rounded=0;exitX=0.416;exitY=1;exitDx=0;exitDy=0;exitPerimeter=0;" parent="1" edge="1">
          <mxGeometry width="50" height="50" relative="1" as="geometry">
            <mxPoint x="2128.9800000000005" y="1159.9999999999998" as="sourcePoint" />
            <mxPoint x="2129" y="1190" as="targetPoint" />
          </mxGeometry>
        </mxCell>
        <mxCell id="vS6UbNGED4iVd90E8qPK-455" value="" style="endArrow=none;html=1;rounded=0;exitX=0.416;exitY=1;exitDx=0;exitDy=0;exitPerimeter=0;" parent="1" edge="1">
          <mxGeometry width="50" height="50" relative="1" as="geometry">
            <mxPoint x="2135" y="1160" as="sourcePoint" />
            <mxPoint x="2135" y="1190" as="targetPoint" />
          </mxGeometry>
        </mxCell>
        <mxCell id="vS6UbNGED4iVd90E8qPK-456" value="" style="endArrow=none;html=1;rounded=0;exitX=0.412;exitY=0.946;exitDx=0;exitDy=0;exitPerimeter=0;entryX=0.334;entryY=-0.007;entryDx=0;entryDy=0;entryPerimeter=0;" parent="1" edge="1">
          <mxGeometry width="50" height="50" relative="1" as="geometry">
            <mxPoint x="2469.3599999999997" y="1149.7600000000002" as="sourcePoint" />
            <mxPoint x="2470.3600000000006" y="1196.7400000000002" as="targetPoint" />
          </mxGeometry>
        </mxCell>
        <mxCell id="vS6UbNGED4iVd90E8qPK-457" value="" style="endArrow=none;html=1;rounded=0;exitX=0.412;exitY=0.946;exitDx=0;exitDy=0;exitPerimeter=0;entryX=0.334;entryY=-0.007;entryDx=0;entryDy=0;entryPerimeter=0;" parent="1" edge="1">
          <mxGeometry width="50" height="50" relative="1" as="geometry">
            <mxPoint x="2479.3599999999997" y="1151.7600000000002" as="sourcePoint" />
            <mxPoint x="2480.3600000000006" y="1198.7400000000002" as="targetPoint" />
          </mxGeometry>
        </mxCell>
        <mxCell id="vS6UbNGED4iVd90E8qPK-637" style="edgeStyle=orthogonalEdgeStyle;rounded=0;orthogonalLoop=1;jettySize=auto;html=1;exitX=0;exitY=0;exitDx=0;exitDy=0;entryX=1;entryY=0.5;entryDx=0;entryDy=0;" parent="1" source="vS6UbNGED4iVd90E8qPK-592" target="vS6UbNGED4iVd90E8qPK-134" edge="1">
          <mxGeometry relative="1" as="geometry">
            <Array as="points">
              <mxPoint x="2510" y="700" />
              <mxPoint x="2510" y="630" />
            </Array>
          </mxGeometry>
        </mxCell>
        <mxCell id="vS6UbNGED4iVd90E8qPK-592" value="SystemLogs(系统日志表)" style="shape=table;startSize=30;container=1;collapsible=1;childLayout=tableLayout;fixedRows=1;rowLines=0;fontStyle=1;align=center;resizeLast=1;" parent="1" vertex="1">
          <mxGeometry x="2550" y="700" width="180" height="180" as="geometry" />
        </mxCell>
        <mxCell id="vS6UbNGED4iVd90E8qPK-593" value="" style="shape=partialRectangle;collapsible=0;dropTarget=0;pointerEvents=0;fillColor=none;points=[[0,0.5],[1,0.5]];portConstraint=eastwest;top=0;left=0;right=0;bottom=1;" parent="vS6UbNGED4iVd90E8qPK-592" vertex="1">
          <mxGeometry y="30" width="180" height="30" as="geometry" />
        </mxCell>
        <mxCell id="vS6UbNGED4iVd90E8qPK-594" value="PK" style="shape=partialRectangle;overflow=hidden;connectable=0;fillColor=none;top=0;left=0;bottom=0;right=0;fontStyle=1;" parent="vS6UbNGED4iVd90E8qPK-593" vertex="1">
          <mxGeometry width="30" height="30" as="geometry">
            <mxRectangle width="30" height="30" as="alternateBounds" />
          </mxGeometry>
        </mxCell>
        <mxCell id="vS6UbNGED4iVd90E8qPK-595" value="LogID" style="shape=partialRectangle;overflow=hidden;connectable=0;fillColor=none;top=0;left=0;bottom=0;right=0;align=left;spacingLeft=6;fontStyle=5;" parent="vS6UbNGED4iVd90E8qPK-593" vertex="1">
          <mxGeometry x="30" width="150" height="30" as="geometry">
            <mxRectangle width="150" height="30" as="alternateBounds" />
          </mxGeometry>
        </mxCell>
        <mxCell id="vS6UbNGED4iVd90E8qPK-596" value="" style="shape=partialRectangle;collapsible=0;dropTarget=0;pointerEvents=0;fillColor=none;points=[[0,0.5],[1,0.5]];portConstraint=eastwest;top=0;left=0;right=0;bottom=0;" parent="vS6UbNGED4iVd90E8qPK-592" vertex="1">
          <mxGeometry y="60" width="180" height="30" as="geometry" />
        </mxCell>
        <mxCell id="vS6UbNGED4iVd90E8qPK-597" value="" style="shape=partialRectangle;overflow=hidden;connectable=0;fillColor=none;top=0;left=0;bottom=0;right=0;" parent="vS6UbNGED4iVd90E8qPK-596" vertex="1">
          <mxGeometry width="30" height="30" as="geometry">
            <mxRectangle width="30" height="30" as="alternateBounds" />
          </mxGeometry>
        </mxCell>
        <mxCell id="vS6UbNGED4iVd90E8qPK-598" value="OperationType" style="shape=partialRectangle;overflow=hidden;connectable=0;fillColor=none;top=0;left=0;bottom=0;right=0;align=left;spacingLeft=6;" parent="vS6UbNGED4iVd90E8qPK-596" vertex="1">
          <mxGeometry x="30" width="150" height="30" as="geometry">
            <mxRectangle width="150" height="30" as="alternateBounds" />
          </mxGeometry>
        </mxCell>
        <mxCell id="vS6UbNGED4iVd90E8qPK-599" style="shape=partialRectangle;collapsible=0;dropTarget=0;pointerEvents=0;fillColor=none;points=[[0,0.5],[1,0.5]];portConstraint=eastwest;top=0;left=0;right=0;bottom=0;" parent="vS6UbNGED4iVd90E8qPK-592" vertex="1">
          <mxGeometry y="90" width="180" height="30" as="geometry" />
        </mxCell>
        <mxCell id="vS6UbNGED4iVd90E8qPK-600" style="shape=partialRectangle;overflow=hidden;connectable=0;fillColor=none;top=0;left=0;bottom=0;right=0;" parent="vS6UbNGED4iVd90E8qPK-599" vertex="1">
          <mxGeometry width="30" height="30" as="geometry">
            <mxRectangle width="30" height="30" as="alternateBounds" />
          </mxGeometry>
        </mxCell>
        <mxCell id="vS6UbNGED4iVd90E8qPK-601" value="OperationDetails" style="shape=partialRectangle;overflow=hidden;connectable=0;fillColor=none;top=0;left=0;bottom=0;right=0;align=left;spacingLeft=6;" parent="vS6UbNGED4iVd90E8qPK-599" vertex="1">
          <mxGeometry x="30" width="150" height="30" as="geometry">
            <mxRectangle width="150" height="30" as="alternateBounds" />
          </mxGeometry>
        </mxCell>
        <mxCell id="vS6UbNGED4iVd90E8qPK-602" style="shape=partialRectangle;collapsible=0;dropTarget=0;pointerEvents=0;fillColor=none;points=[[0,0.5],[1,0.5]];portConstraint=eastwest;top=0;left=0;right=0;bottom=0;" parent="vS6UbNGED4iVd90E8qPK-592" vertex="1">
          <mxGeometry y="120" width="180" height="30" as="geometry" />
        </mxCell>
        <mxCell id="vS6UbNGED4iVd90E8qPK-603" style="shape=partialRectangle;overflow=hidden;connectable=0;fillColor=none;top=0;left=0;bottom=0;right=0;" parent="vS6UbNGED4iVd90E8qPK-602" vertex="1">
          <mxGeometry width="30" height="30" as="geometry">
            <mxRectangle width="30" height="30" as="alternateBounds" />
          </mxGeometry>
        </mxCell>
        <mxCell id="vS6UbNGED4iVd90E8qPK-604" value="UserID" style="shape=partialRectangle;overflow=hidden;connectable=0;fillColor=none;top=0;left=0;bottom=0;right=0;align=left;spacingLeft=6;" parent="vS6UbNGED4iVd90E8qPK-602" vertex="1">
          <mxGeometry x="30" width="150" height="30" as="geometry">
            <mxRectangle width="150" height="30" as="alternateBounds" />
          </mxGeometry>
        </mxCell>
        <mxCell id="vS6UbNGED4iVd90E8qPK-605" style="shape=partialRectangle;collapsible=0;dropTarget=0;pointerEvents=0;fillColor=none;points=[[0,0.5],[1,0.5]];portConstraint=eastwest;top=0;left=0;right=0;bottom=0;" parent="vS6UbNGED4iVd90E8qPK-592" vertex="1">
          <mxGeometry y="150" width="180" height="30" as="geometry" />
        </mxCell>
        <mxCell id="vS6UbNGED4iVd90E8qPK-606" style="shape=partialRectangle;overflow=hidden;connectable=0;fillColor=none;top=0;left=0;bottom=0;right=0;" parent="vS6UbNGED4iVd90E8qPK-605" vertex="1">
          <mxGeometry width="30" height="30" as="geometry">
            <mxRectangle width="30" height="30" as="alternateBounds" />
          </mxGeometry>
        </mxCell>
        <mxCell id="vS6UbNGED4iVd90E8qPK-607" value="OperationDate" style="shape=partialRectangle;overflow=hidden;connectable=0;fillColor=none;top=0;left=0;bottom=0;right=0;align=left;spacingLeft=6;" parent="vS6UbNGED4iVd90E8qPK-605" vertex="1">
          <mxGeometry x="30" width="150" height="30" as="geometry">
            <mxRectangle width="150" height="30" as="alternateBounds" />
          </mxGeometry>
        </mxCell>
        <mxCell id="vS6UbNGED4iVd90E8qPK-609" value="NotificationLogs" style="swimlane;fontStyle=0;childLayout=stackLayout;horizontal=1;startSize=40;horizontalStack=0;resizeParent=1;resizeParentMax=0;resizeLast=0;collapsible=1;marginBottom=0;whiteSpace=wrap;html=1;" parent="1" vertex="1">
          <mxGeometry x="2530" y="266.25" width="200" height="220" as="geometry" />
        </mxCell>
        <mxCell id="vS6UbNGED4iVd90E8qPK-610" value="NotificationID" style="text;strokeColor=none;fillColor=none;align=left;verticalAlign=middle;spacingLeft=4;spacingRight=4;overflow=hidden;points=[[0,0.5],[1,0.5]];portConstraint=eastwest;rotatable=0;whiteSpace=wrap;html=1;" parent="vS6UbNGED4iVd90E8qPK-609" vertex="1">
          <mxGeometry y="40" width="200" height="30" as="geometry" />
        </mxCell>
        <mxCell id="vS6UbNGED4iVd90E8qPK-611" value="UserID" style="text;strokeColor=none;fillColor=none;align=left;verticalAlign=middle;spacingLeft=4;spacingRight=4;overflow=hidden;points=[[0,0.5],[1,0.5]];portConstraint=eastwest;rotatable=0;whiteSpace=wrap;html=1;" parent="vS6UbNGED4iVd90E8qPK-609" vertex="1">
          <mxGeometry y="70" width="200" height="30" as="geometry" />
        </mxCell>
        <mxCell id="vS6UbNGED4iVd90E8qPK-612" value="&lt;span style=&quot;background-color: initial;&quot;&gt;NotificationType&lt;/span&gt;" style="text;strokeColor=none;fillColor=none;align=left;verticalAlign=middle;spacingLeft=4;spacingRight=4;overflow=hidden;points=[[0,0.5],[1,0.5]];portConstraint=eastwest;rotatable=0;whiteSpace=wrap;html=1;" parent="vS6UbNGED4iVd90E8qPK-609" vertex="1">
          <mxGeometry y="100" width="200" height="40" as="geometry" />
        </mxCell>
        <mxCell id="vS6UbNGED4iVd90E8qPK-613" value="&lt;span style=&quot;background-color: initial;&quot;&gt;SentDate&lt;/span&gt;" style="text;strokeColor=none;fillColor=none;align=left;verticalAlign=middle;spacingLeft=4;spacingRight=4;overflow=hidden;points=[[0,0.5],[1,0.5]];portConstraint=eastwest;rotatable=0;whiteSpace=wrap;html=1;" parent="vS6UbNGED4iVd90E8qPK-609" vertex="1">
          <mxGeometry y="140" width="200" height="40" as="geometry" />
        </mxCell>
        <mxCell id="vS6UbNGED4iVd90E8qPK-614" value="&lt;span style=&quot;background-color: initial;&quot;&gt;Status&lt;/span&gt;" style="text;strokeColor=none;fillColor=none;align=left;verticalAlign=middle;spacingLeft=4;spacingRight=4;overflow=hidden;points=[[0,0.5],[1,0.5]];portConstraint=eastwest;rotatable=0;whiteSpace=wrap;html=1;" parent="vS6UbNGED4iVd90E8qPK-609" vertex="1">
          <mxGeometry y="180" width="200" height="40" as="geometry" />
        </mxCell>
        <mxCell id="vS6UbNGED4iVd90E8qPK-615" value="RecommendationLogs" style="swimlane;fontStyle=0;childLayout=stackLayout;horizontal=1;startSize=30;horizontalStack=0;resizeParent=1;resizeParentMax=0;resizeLast=0;collapsible=1;marginBottom=0;whiteSpace=wrap;html=1;" parent="1" vertex="1">
          <mxGeometry x="2552.5" y="60" width="140" height="180" as="geometry" />
        </mxCell>
        <mxCell id="vS6UbNGED4iVd90E8qPK-616" value="LogID" style="text;strokeColor=none;fillColor=none;align=left;verticalAlign=middle;spacingLeft=4;spacingRight=4;overflow=hidden;points=[[0,0.5],[1,0.5]];portConstraint=eastwest;rotatable=0;whiteSpace=wrap;html=1;" parent="vS6UbNGED4iVd90E8qPK-615" vertex="1">
          <mxGeometry y="30" width="140" height="30" as="geometry" />
        </mxCell>
        <mxCell id="vS6UbNGED4iVd90E8qPK-617" value="UserID" style="text;strokeColor=none;fillColor=none;align=left;verticalAlign=middle;spacingLeft=4;spacingRight=4;overflow=hidden;points=[[0,0.5],[1,0.5]];portConstraint=eastwest;rotatable=0;whiteSpace=wrap;html=1;" parent="vS6UbNGED4iVd90E8qPK-615" vertex="1">
          <mxGeometry y="60" width="140" height="30" as="geometry" />
        </mxCell>
        <mxCell id="vS6UbNGED4iVd90E8qPK-618" value="RecommendationTime" style="text;strokeColor=none;fillColor=none;align=left;verticalAlign=middle;spacingLeft=4;spacingRight=4;overflow=hidden;points=[[0,0.5],[1,0.5]];portConstraint=eastwest;rotatable=0;whiteSpace=wrap;html=1;" parent="vS6UbNGED4iVd90E8qPK-615" vertex="1">
          <mxGeometry y="90" width="140" height="30" as="geometry" />
        </mxCell>
        <mxCell id="vS6UbNGED4iVd90E8qPK-619" value="RecommendedContent" style="text;strokeColor=none;fillColor=none;align=left;verticalAlign=middle;spacingLeft=4;spacingRight=4;overflow=hidden;points=[[0,0.5],[1,0.5]];portConstraint=eastwest;rotatable=0;whiteSpace=wrap;html=1;" parent="vS6UbNGED4iVd90E8qPK-615" vertex="1">
          <mxGeometry y="120" width="140" height="30" as="geometry" />
        </mxCell>
        <mxCell id="vS6UbNGED4iVd90E8qPK-620" value="UserFeedback" style="text;strokeColor=none;fillColor=none;align=left;verticalAlign=middle;spacingLeft=4;spacingRight=4;overflow=hidden;points=[[0,0.5],[1,0.5]];portConstraint=eastwest;rotatable=0;whiteSpace=wrap;html=1;" parent="vS6UbNGED4iVd90E8qPK-615" vertex="1">
          <mxGeometry y="150" width="140" height="30" as="geometry" />
        </mxCell>
        <mxCell id="vS6UbNGED4iVd90E8qPK-621" value="UserActivityLogs" style="swimlane;fontStyle=0;childLayout=stackLayout;horizontal=1;startSize=30;horizontalStack=0;resizeParent=1;resizeParentMax=0;resizeLast=0;collapsible=1;marginBottom=0;whiteSpace=wrap;html=1;" parent="1" vertex="1">
          <mxGeometry x="2540" y="507" width="140" height="150" as="geometry" />
        </mxCell>
        <mxCell id="vS6UbNGED4iVd90E8qPK-622" value="ActivityLogID" style="text;strokeColor=none;fillColor=none;align=left;verticalAlign=middle;spacingLeft=4;spacingRight=4;overflow=hidden;points=[[0,0.5],[1,0.5]];portConstraint=eastwest;rotatable=0;whiteSpace=wrap;html=1;" parent="vS6UbNGED4iVd90E8qPK-621" vertex="1">
          <mxGeometry y="30" width="140" height="30" as="geometry" />
        </mxCell>
        <mxCell id="vS6UbNGED4iVd90E8qPK-623" value="UserID" style="text;strokeColor=none;fillColor=none;align=left;verticalAlign=middle;spacingLeft=4;spacingRight=4;overflow=hidden;points=[[0,0.5],[1,0.5]];portConstraint=eastwest;rotatable=0;whiteSpace=wrap;html=1;" parent="vS6UbNGED4iVd90E8qPK-621" vertex="1">
          <mxGeometry y="60" width="140" height="30" as="geometry" />
        </mxCell>
        <mxCell id="vS6UbNGED4iVd90E8qPK-624" value="ActivityType" style="text;strokeColor=none;fillColor=none;align=left;verticalAlign=middle;spacingLeft=4;spacingRight=4;overflow=hidden;points=[[0,0.5],[1,0.5]];portConstraint=eastwest;rotatable=0;whiteSpace=wrap;html=1;" parent="vS6UbNGED4iVd90E8qPK-621" vertex="1">
          <mxGeometry y="90" width="140" height="30" as="geometry" />
        </mxCell>
        <mxCell id="vS6UbNGED4iVd90E8qPK-625" value="Timestamp" style="text;strokeColor=none;fillColor=none;align=left;verticalAlign=middle;spacingLeft=4;spacingRight=4;overflow=hidden;points=[[0,0.5],[1,0.5]];portConstraint=eastwest;rotatable=0;whiteSpace=wrap;html=1;" parent="vS6UbNGED4iVd90E8qPK-621" vertex="1">
          <mxGeometry y="120" width="140" height="30" as="geometry" />
        </mxCell>
        <mxCell id="vS6UbNGED4iVd90E8qPK-630" style="edgeStyle=orthogonalEdgeStyle;rounded=0;orthogonalLoop=1;jettySize=auto;html=1;exitX=0;exitY=0.5;exitDx=0;exitDy=0;entryX=1;entryY=0;entryDx=0;entryDy=0;endArrow=none;endFill=0;" parent="1" source="vS6UbNGED4iVd90E8qPK-626" target="vS6UbNGED4iVd90E8qPK-133" edge="1">
          <mxGeometry relative="1" as="geometry" />
        </mxCell>
        <mxCell id="vS6UbNGED4iVd90E8qPK-626" value="UserActivity" style="rhombus;whiteSpace=wrap;html=1;" parent="1" vertex="1">
          <mxGeometry x="2240" y="525" width="100" height="55" as="geometry" />
        </mxCell>
        <mxCell id="vS6UbNGED4iVd90E8qPK-629" style="edgeStyle=orthogonalEdgeStyle;rounded=0;orthogonalLoop=1;jettySize=auto;html=1;exitX=0;exitY=0.5;exitDx=0;exitDy=0;entryX=1;entryY=0.5;entryDx=0;entryDy=0;endArrow=none;endFill=0;" parent="1" source="vS6UbNGED4iVd90E8qPK-622" target="vS6UbNGED4iVd90E8qPK-626" edge="1">
          <mxGeometry relative="1" as="geometry" />
        </mxCell>
        <mxCell id="vS6UbNGED4iVd90E8qPK-633" style="edgeStyle=orthogonalEdgeStyle;rounded=0;orthogonalLoop=1;jettySize=auto;html=1;exitX=0;exitY=0.5;exitDx=0;exitDy=0;endArrow=none;endFill=0;" parent="1" source="vS6UbNGED4iVd90E8qPK-631" edge="1">
          <mxGeometry relative="1" as="geometry">
            <mxPoint x="2030" y="580" as="targetPoint" />
          </mxGeometry>
        </mxCell>
        <mxCell id="vS6UbNGED4iVd90E8qPK-631" value="Notification" style="rhombus;whiteSpace=wrap;html=1;" parent="1" vertex="1">
          <mxGeometry x="2238" y="452" width="100" height="55" as="geometry" />
        </mxCell>
        <mxCell id="vS6UbNGED4iVd90E8qPK-632" style="edgeStyle=orthogonalEdgeStyle;rounded=0;orthogonalLoop=1;jettySize=auto;html=1;exitX=0;exitY=0.5;exitDx=0;exitDy=0;entryX=1;entryY=0.5;entryDx=0;entryDy=0;endArrow=none;endFill=0;" parent="1" source="vS6UbNGED4iVd90E8qPK-610" target="vS6UbNGED4iVd90E8qPK-631" edge="1">
          <mxGeometry relative="1" as="geometry" />
        </mxCell>
        <mxCell id="vS6UbNGED4iVd90E8qPK-636" style="edgeStyle=orthogonalEdgeStyle;rounded=0;orthogonalLoop=1;jettySize=auto;html=1;exitX=0;exitY=0.5;exitDx=0;exitDy=0;endArrow=none;endFill=0;" parent="1" source="vS6UbNGED4iVd90E8qPK-634" edge="1">
          <mxGeometry relative="1" as="geometry">
            <mxPoint x="2030" y="580" as="targetPoint" />
            <Array as="points">
              <mxPoint x="2031" y="390" />
              <mxPoint x="2031" y="580" />
            </Array>
          </mxGeometry>
        </mxCell>
        <mxCell id="vS6UbNGED4iVd90E8qPK-634" value="Recommendation" style="rhombus;whiteSpace=wrap;html=1;" parent="1" vertex="1">
          <mxGeometry x="2240" y="362.5" width="100" height="55" as="geometry" />
        </mxCell>
        <mxCell id="vS6UbNGED4iVd90E8qPK-635" style="edgeStyle=orthogonalEdgeStyle;rounded=0;orthogonalLoop=1;jettySize=auto;html=1;exitX=0;exitY=0.5;exitDx=0;exitDy=0;entryX=1;entryY=0.5;entryDx=0;entryDy=0;endArrow=none;endFill=0;" parent="1" source="vS6UbNGED4iVd90E8qPK-616" target="vS6UbNGED4iVd90E8qPK-634" edge="1">
          <mxGeometry relative="1" as="geometry">
            <Array as="points">
              <mxPoint x="2390" y="105" />
              <mxPoint x="2390" y="390" />
            </Array>
          </mxGeometry>
        </mxCell>
        <mxCell id="vS6UbNGED4iVd90E8qPK-638" value="TransactionLogs" style="swimlane;fontStyle=0;childLayout=stackLayout;horizontal=1;startSize=30;horizontalStack=0;resizeParent=1;resizeParentMax=0;resizeLast=0;collapsible=1;marginBottom=0;whiteSpace=wrap;html=1;" parent="1" vertex="1">
          <mxGeometry x="1840" y="111" width="140" height="330" as="geometry" />
        </mxCell>
        <mxCell id="vS6UbNGED4iVd90E8qPK-639" value="TransactionID" style="text;strokeColor=none;fillColor=none;align=left;verticalAlign=middle;spacingLeft=4;spacingRight=4;overflow=hidden;points=[[0,0.5],[1,0.5]];portConstraint=eastwest;rotatable=0;whiteSpace=wrap;html=1;" parent="vS6UbNGED4iVd90E8qPK-638" vertex="1">
          <mxGeometry y="30" width="140" height="30" as="geometry" />
        </mxCell>
        <mxCell id="vS6UbNGED4iVd90E8qPK-640" value="FromUserID" style="text;strokeColor=none;fillColor=none;align=left;verticalAlign=middle;spacingLeft=4;spacingRight=4;overflow=hidden;points=[[0,0.5],[1,0.5]];portConstraint=eastwest;rotatable=0;whiteSpace=wrap;html=1;" parent="vS6UbNGED4iVd90E8qPK-638" vertex="1">
          <mxGeometry y="60" width="140" height="30" as="geometry" />
        </mxCell>
        <mxCell id="vS6UbNGED4iVd90E8qPK-641" value="ToUserID" style="text;strokeColor=none;fillColor=none;align=left;verticalAlign=middle;spacingLeft=4;spacingRight=4;overflow=hidden;points=[[0,0.5],[1,0.5]];portConstraint=eastwest;rotatable=0;whiteSpace=wrap;html=1;" parent="vS6UbNGED4iVd90E8qPK-638" vertex="1">
          <mxGeometry y="90" width="140" height="30" as="geometry" />
        </mxCell>
        <mxCell id="vS6UbNGED4iVd90E8qPK-642" value="ItemID" style="text;strokeColor=none;fillColor=none;align=left;verticalAlign=middle;spacingLeft=4;spacingRight=4;overflow=hidden;points=[[0,0.5],[1,0.5]];portConstraint=eastwest;rotatable=0;whiteSpace=wrap;html=1;" parent="vS6UbNGED4iVd90E8qPK-638" vertex="1">
          <mxGeometry y="120" width="140" height="30" as="geometry" />
        </mxCell>
        <mxCell id="vS6UbNGED4iVd90E8qPK-643" value="Amount" style="text;strokeColor=none;fillColor=none;align=left;verticalAlign=middle;spacingLeft=4;spacingRight=4;overflow=hidden;points=[[0,0.5],[1,0.5]];portConstraint=eastwest;rotatable=0;whiteSpace=wrap;html=1;" parent="vS6UbNGED4iVd90E8qPK-638" vertex="1">
          <mxGeometry y="150" width="140" height="30" as="geometry" />
        </mxCell>
        <mxCell id="vS6UbNGED4iVd90E8qPK-644" value="TransactionType" style="text;strokeColor=none;fillColor=none;align=left;verticalAlign=middle;spacingLeft=4;spacingRight=4;overflow=hidden;points=[[0,0.5],[1,0.5]];portConstraint=eastwest;rotatable=0;whiteSpace=wrap;html=1;" parent="vS6UbNGED4iVd90E8qPK-638" vertex="1">
          <mxGeometry y="180" width="140" height="30" as="geometry" />
        </mxCell>
        <mxCell id="vS6UbNGED4iVd90E8qPK-645" value="Status" style="text;strokeColor=none;fillColor=none;align=left;verticalAlign=middle;spacingLeft=4;spacingRight=4;overflow=hidden;points=[[0,0.5],[1,0.5]];portConstraint=eastwest;rotatable=0;whiteSpace=wrap;html=1;" parent="vS6UbNGED4iVd90E8qPK-638" vertex="1">
          <mxGeometry y="210" width="140" height="30" as="geometry" />
        </mxCell>
        <mxCell id="vS6UbNGED4iVd90E8qPK-646" value="TransactionBeginDate" style="text;strokeColor=none;fillColor=none;align=left;verticalAlign=middle;spacingLeft=4;spacingRight=4;overflow=hidden;points=[[0,0.5],[1,0.5]];portConstraint=eastwest;rotatable=0;whiteSpace=wrap;html=1;" parent="vS6UbNGED4iVd90E8qPK-638" vertex="1">
          <mxGeometry y="240" width="140" height="30" as="geometry" />
        </mxCell>
        <mxCell id="vS6UbNGED4iVd90E8qPK-647" value="TransactionEndDate" style="text;strokeColor=none;fillColor=none;align=left;verticalAlign=middle;spacingLeft=4;spacingRight=4;overflow=hidden;points=[[0,0.5],[1,0.5]];portConstraint=eastwest;rotatable=0;whiteSpace=wrap;html=1;" parent="vS6UbNGED4iVd90E8qPK-638" vertex="1">
          <mxGeometry y="270" width="140" height="30" as="geometry" />
        </mxCell>
        <mxCell id="vS6UbNGED4iVd90E8qPK-648" value="Description" style="text;strokeColor=none;fillColor=none;align=left;verticalAlign=middle;spacingLeft=4;spacingRight=4;overflow=hidden;points=[[0,0.5],[1,0.5]];portConstraint=eastwest;rotatable=0;whiteSpace=wrap;html=1;" parent="vS6UbNGED4iVd90E8qPK-638" vertex="1">
          <mxGeometry y="300" width="140" height="30" as="geometry" />
        </mxCell>
        <mxCell id="vS6UbNGED4iVd90E8qPK-652" style="edgeStyle=orthogonalEdgeStyle;rounded=0;orthogonalLoop=1;jettySize=auto;html=1;exitX=0;exitY=0.5;exitDx=0;exitDy=0;entryX=1;entryY=0.5;entryDx=0;entryDy=0;" parent="1" source="vS6UbNGED4iVd90E8qPK-642" target="vS6UbNGED4iVd90E8qPK-153" edge="1">
          <mxGeometry relative="1" as="geometry">
            <Array as="points">
              <mxPoint x="1720" y="246" />
              <mxPoint x="1720" y="370" />
              <mxPoint x="1390" y="370" />
              <mxPoint x="1390" y="205" />
            </Array>
          </mxGeometry>
        </mxCell>
        <mxCell id="vS6UbNGED4iVd90E8qPK-653" style="edgeStyle=orthogonalEdgeStyle;rounded=0;orthogonalLoop=1;jettySize=auto;html=1;exitX=0;exitY=0.5;exitDx=0;exitDy=0;entryX=1;entryY=0.5;entryDx=0;entryDy=0;" parent="1" source="vS6UbNGED4iVd90E8qPK-642" target="vS6UbNGED4iVd90E8qPK-188" edge="1">
          <mxGeometry relative="1" as="geometry">
            <Array as="points">
              <mxPoint x="1800" y="246" />
              <mxPoint x="1800" y="380" />
              <mxPoint x="1380" y="380" />
              <mxPoint x="1380" y="665" />
            </Array>
          </mxGeometry>
        </mxCell>
        <mxCell id="vS6UbNGED4iVd90E8qPK-656" style="edgeStyle=orthogonalEdgeStyle;rounded=0;orthogonalLoop=1;jettySize=auto;html=1;exitX=0;exitY=0.5;exitDx=0;exitDy=0;entryX=1;entryY=0;entryDx=0;entryDy=0;endArrow=none;endFill=0;" parent="1" source="vS6UbNGED4iVd90E8qPK-654" target="vS6UbNGED4iVd90E8qPK-133" edge="1">
          <mxGeometry relative="1" as="geometry" />
        </mxCell>
        <mxCell id="vS6UbNGED4iVd90E8qPK-654" value="Transaction" style="rhombus;whiteSpace=wrap;html=1;" parent="1" vertex="1">
          <mxGeometry x="2238" y="230" width="100" height="55" as="geometry" />
        </mxCell>
        <mxCell id="vS6UbNGED4iVd90E8qPK-655" style="edgeStyle=orthogonalEdgeStyle;rounded=0;orthogonalLoop=1;jettySize=auto;html=1;exitX=1;exitY=0.5;exitDx=0;exitDy=0;entryX=0.5;entryY=0;entryDx=0;entryDy=0;endArrow=none;endFill=0;" parent="1" source="vS6UbNGED4iVd90E8qPK-639" target="vS6UbNGED4iVd90E8qPK-654" edge="1">
          <mxGeometry relative="1" as="geometry" />
        </mxCell>
        <mxCell id="vS6UbNGED4iVd90E8qPK-675" style="edgeStyle=orthogonalEdgeStyle;rounded=0;orthogonalLoop=1;jettySize=auto;html=1;exitX=0.5;exitY=0;exitDx=0;exitDy=0;entryX=0.5;entryY=0;entryDx=0;entryDy=0;endArrow=none;endFill=0;" parent="1" source="vS6UbNGED4iVd90E8qPK-657" target="vS6UbNGED4iVd90E8qPK-673" edge="1">
          <mxGeometry relative="1" as="geometry" />
        </mxCell>
        <mxCell id="vS6UbNGED4iVd90E8qPK-657" value="SecurityEvents(安全事件记录表)" style="shape=table;startSize=30;container=1;collapsible=1;childLayout=tableLayout;fixedRows=1;rowLines=0;fontStyle=1;align=center;resizeLast=1;" parent="1" vertex="1">
          <mxGeometry x="2185.5" y="-90" width="180" height="180" as="geometry" />
        </mxCell>
        <mxCell id="vS6UbNGED4iVd90E8qPK-658" value="" style="shape=partialRectangle;collapsible=0;dropTarget=0;pointerEvents=0;fillColor=none;points=[[0,0.5],[1,0.5]];portConstraint=eastwest;top=0;left=0;right=0;bottom=1;" parent="vS6UbNGED4iVd90E8qPK-657" vertex="1">
          <mxGeometry y="30" width="180" height="30" as="geometry" />
        </mxCell>
        <mxCell id="vS6UbNGED4iVd90E8qPK-659" value="PK" style="shape=partialRectangle;overflow=hidden;connectable=0;fillColor=none;top=0;left=0;bottom=0;right=0;fontStyle=1;" parent="vS6UbNGED4iVd90E8qPK-658" vertex="1">
          <mxGeometry width="30" height="30" as="geometry">
            <mxRectangle width="30" height="30" as="alternateBounds" />
          </mxGeometry>
        </mxCell>
        <mxCell id="vS6UbNGED4iVd90E8qPK-660" value="EventID" style="shape=partialRectangle;overflow=hidden;connectable=0;fillColor=none;top=0;left=0;bottom=0;right=0;align=left;spacingLeft=6;fontStyle=5;" parent="vS6UbNGED4iVd90E8qPK-658" vertex="1">
          <mxGeometry x="30" width="150" height="30" as="geometry">
            <mxRectangle width="150" height="30" as="alternateBounds" />
          </mxGeometry>
        </mxCell>
        <mxCell id="vS6UbNGED4iVd90E8qPK-661" value="" style="shape=partialRectangle;collapsible=0;dropTarget=0;pointerEvents=0;fillColor=none;points=[[0,0.5],[1,0.5]];portConstraint=eastwest;top=0;left=0;right=0;bottom=0;" parent="vS6UbNGED4iVd90E8qPK-657" vertex="1">
          <mxGeometry y="60" width="180" height="30" as="geometry" />
        </mxCell>
        <mxCell id="vS6UbNGED4iVd90E8qPK-662" value="" style="shape=partialRectangle;overflow=hidden;connectable=0;fillColor=none;top=0;left=0;bottom=0;right=0;" parent="vS6UbNGED4iVd90E8qPK-661" vertex="1">
          <mxGeometry width="30" height="30" as="geometry">
            <mxRectangle width="30" height="30" as="alternateBounds" />
          </mxGeometry>
        </mxCell>
        <mxCell id="vS6UbNGED4iVd90E8qPK-663" value="EventType" style="shape=partialRectangle;overflow=hidden;connectable=0;fillColor=none;top=0;left=0;bottom=0;right=0;align=left;spacingLeft=6;" parent="vS6UbNGED4iVd90E8qPK-661" vertex="1">
          <mxGeometry x="30" width="150" height="30" as="geometry">
            <mxRectangle width="150" height="30" as="alternateBounds" />
          </mxGeometry>
        </mxCell>
        <mxCell id="vS6UbNGED4iVd90E8qPK-664" style="shape=partialRectangle;collapsible=0;dropTarget=0;pointerEvents=0;fillColor=none;points=[[0,0.5],[1,0.5]];portConstraint=eastwest;top=0;left=0;right=0;bottom=0;" parent="vS6UbNGED4iVd90E8qPK-657" vertex="1">
          <mxGeometry y="90" width="180" height="30" as="geometry" />
        </mxCell>
        <mxCell id="vS6UbNGED4iVd90E8qPK-665" style="shape=partialRectangle;overflow=hidden;connectable=0;fillColor=none;top=0;left=0;bottom=0;right=0;" parent="vS6UbNGED4iVd90E8qPK-664" vertex="1">
          <mxGeometry width="30" height="30" as="geometry">
            <mxRectangle width="30" height="30" as="alternateBounds" />
          </mxGeometry>
        </mxCell>
        <mxCell id="vS6UbNGED4iVd90E8qPK-666" value="EventDetails" style="shape=partialRectangle;overflow=hidden;connectable=0;fillColor=none;top=0;left=0;bottom=0;right=0;align=left;spacingLeft=6;" parent="vS6UbNGED4iVd90E8qPK-664" vertex="1">
          <mxGeometry x="30" width="150" height="30" as="geometry">
            <mxRectangle width="150" height="30" as="alternateBounds" />
          </mxGeometry>
        </mxCell>
        <mxCell id="vS6UbNGED4iVd90E8qPK-667" style="shape=partialRectangle;collapsible=0;dropTarget=0;pointerEvents=0;fillColor=none;points=[[0,0.5],[1,0.5]];portConstraint=eastwest;top=0;left=0;right=0;bottom=0;" parent="vS6UbNGED4iVd90E8qPK-657" vertex="1">
          <mxGeometry y="120" width="180" height="30" as="geometry" />
        </mxCell>
        <mxCell id="vS6UbNGED4iVd90E8qPK-668" style="shape=partialRectangle;overflow=hidden;connectable=0;fillColor=none;top=0;left=0;bottom=0;right=0;" parent="vS6UbNGED4iVd90E8qPK-667" vertex="1">
          <mxGeometry width="30" height="30" as="geometry">
            <mxRectangle width="30" height="30" as="alternateBounds" />
          </mxGeometry>
        </mxCell>
        <mxCell id="vS6UbNGED4iVd90E8qPK-669" value="Status" style="shape=partialRectangle;overflow=hidden;connectable=0;fillColor=none;top=0;left=0;bottom=0;right=0;align=left;spacingLeft=6;" parent="vS6UbNGED4iVd90E8qPK-667" vertex="1">
          <mxGeometry x="30" width="150" height="30" as="geometry">
            <mxRectangle width="150" height="30" as="alternateBounds" />
          </mxGeometry>
        </mxCell>
        <mxCell id="vS6UbNGED4iVd90E8qPK-670" style="shape=partialRectangle;collapsible=0;dropTarget=0;pointerEvents=0;fillColor=none;points=[[0,0.5],[1,0.5]];portConstraint=eastwest;top=0;left=0;right=0;bottom=0;" parent="vS6UbNGED4iVd90E8qPK-657" vertex="1">
          <mxGeometry y="150" width="180" height="30" as="geometry" />
        </mxCell>
        <mxCell id="vS6UbNGED4iVd90E8qPK-671" style="shape=partialRectangle;overflow=hidden;connectable=0;fillColor=none;top=0;left=0;bottom=0;right=0;" parent="vS6UbNGED4iVd90E8qPK-670" vertex="1">
          <mxGeometry width="30" height="30" as="geometry">
            <mxRectangle width="30" height="30" as="alternateBounds" />
          </mxGeometry>
        </mxCell>
        <mxCell id="vS6UbNGED4iVd90E8qPK-672" value="OccurrenceDate" style="shape=partialRectangle;overflow=hidden;connectable=0;fillColor=none;top=0;left=0;bottom=0;right=0;align=left;spacingLeft=6;" parent="vS6UbNGED4iVd90E8qPK-670" vertex="1">
          <mxGeometry x="30" width="150" height="30" as="geometry">
            <mxRectangle width="150" height="30" as="alternateBounds" />
          </mxGeometry>
        </mxCell>
        <mxCell id="vS6UbNGED4iVd90E8qPK-676" style="edgeStyle=orthogonalEdgeStyle;rounded=0;orthogonalLoop=1;jettySize=auto;html=1;exitX=0.5;exitY=1;exitDx=0;exitDy=0;entryX=0.5;entryY=0;entryDx=0;entryDy=0;endArrow=none;endFill=0;" parent="1" source="vS6UbNGED4iVd90E8qPK-673" target="vS6UbNGED4iVd90E8qPK-638" edge="1">
          <mxGeometry relative="1" as="geometry" />
        </mxCell>
        <mxCell id="vS6UbNGED4iVd90E8qPK-673" value="Transaction&lt;div&gt;Security&lt;/div&gt;" style="rhombus;whiteSpace=wrap;html=1;" parent="1" vertex="1">
          <mxGeometry x="1850" y="-90" width="120" height="70" as="geometry" />
        </mxCell>
        <mxCell id="vS6UbNGED4iVd90E8qPK-677" value="APIAccessLogs(API访问日志表)" style="shape=table;startSize=30;container=1;collapsible=1;childLayout=tableLayout;fixedRows=1;rowLines=0;fontStyle=1;align=center;resizeLast=1;" parent="1" vertex="1">
          <mxGeometry x="1800" y="1438" width="180" height="180" as="geometry" />
        </mxCell>
        <mxCell id="vS6UbNGED4iVd90E8qPK-678" value="" style="shape=partialRectangle;collapsible=0;dropTarget=0;pointerEvents=0;fillColor=none;points=[[0,0.5],[1,0.5]];portConstraint=eastwest;top=0;left=0;right=0;bottom=1;" parent="vS6UbNGED4iVd90E8qPK-677" vertex="1">
          <mxGeometry y="30" width="180" height="30" as="geometry" />
        </mxCell>
        <mxCell id="vS6UbNGED4iVd90E8qPK-679" value="PK" style="shape=partialRectangle;overflow=hidden;connectable=0;fillColor=none;top=0;left=0;bottom=0;right=0;fontStyle=1;" parent="vS6UbNGED4iVd90E8qPK-678" vertex="1">
          <mxGeometry width="30" height="30" as="geometry">
            <mxRectangle width="30" height="30" as="alternateBounds" />
          </mxGeometry>
        </mxCell>
        <mxCell id="vS6UbNGED4iVd90E8qPK-680" value="AccessID" style="shape=partialRectangle;overflow=hidden;connectable=0;fillColor=none;top=0;left=0;bottom=0;right=0;align=left;spacingLeft=6;fontStyle=5;" parent="vS6UbNGED4iVd90E8qPK-678" vertex="1">
          <mxGeometry x="30" width="150" height="30" as="geometry">
            <mxRectangle width="150" height="30" as="alternateBounds" />
          </mxGeometry>
        </mxCell>
        <mxCell id="vS6UbNGED4iVd90E8qPK-681" value="" style="shape=partialRectangle;collapsible=0;dropTarget=0;pointerEvents=0;fillColor=none;points=[[0,0.5],[1,0.5]];portConstraint=eastwest;top=0;left=0;right=0;bottom=0;" parent="vS6UbNGED4iVd90E8qPK-677" vertex="1">
          <mxGeometry y="60" width="180" height="30" as="geometry" />
        </mxCell>
        <mxCell id="vS6UbNGED4iVd90E8qPK-682" value="" style="shape=partialRectangle;overflow=hidden;connectable=0;fillColor=none;top=0;left=0;bottom=0;right=0;" parent="vS6UbNGED4iVd90E8qPK-681" vertex="1">
          <mxGeometry width="30" height="30" as="geometry">
            <mxRectangle width="30" height="30" as="alternateBounds" />
          </mxGeometry>
        </mxCell>
        <mxCell id="vS6UbNGED4iVd90E8qPK-683" value="APIName" style="shape=partialRectangle;overflow=hidden;connectable=0;fillColor=none;top=0;left=0;bottom=0;right=0;align=left;spacingLeft=6;" parent="vS6UbNGED4iVd90E8qPK-681" vertex="1">
          <mxGeometry x="30" width="150" height="30" as="geometry">
            <mxRectangle width="150" height="30" as="alternateBounds" />
          </mxGeometry>
        </mxCell>
        <mxCell id="vS6UbNGED4iVd90E8qPK-684" style="shape=partialRectangle;collapsible=0;dropTarget=0;pointerEvents=0;fillColor=none;points=[[0,0.5],[1,0.5]];portConstraint=eastwest;top=0;left=0;right=0;bottom=0;" parent="vS6UbNGED4iVd90E8qPK-677" vertex="1">
          <mxGeometry y="90" width="180" height="30" as="geometry" />
        </mxCell>
        <mxCell id="vS6UbNGED4iVd90E8qPK-685" style="shape=partialRectangle;overflow=hidden;connectable=0;fillColor=none;top=0;left=0;bottom=0;right=0;" parent="vS6UbNGED4iVd90E8qPK-684" vertex="1">
          <mxGeometry width="30" height="30" as="geometry">
            <mxRectangle width="30" height="30" as="alternateBounds" />
          </mxGeometry>
        </mxCell>
        <mxCell id="vS6UbNGED4iVd90E8qPK-686" value="AccessorID" style="shape=partialRectangle;overflow=hidden;connectable=0;fillColor=none;top=0;left=0;bottom=0;right=0;align=left;spacingLeft=6;" parent="vS6UbNGED4iVd90E8qPK-684" vertex="1">
          <mxGeometry x="30" width="150" height="30" as="geometry">
            <mxRectangle width="150" height="30" as="alternateBounds" />
          </mxGeometry>
        </mxCell>
        <mxCell id="vS6UbNGED4iVd90E8qPK-687" style="shape=partialRectangle;collapsible=0;dropTarget=0;pointerEvents=0;fillColor=none;points=[[0,0.5],[1,0.5]];portConstraint=eastwest;top=0;left=0;right=0;bottom=0;" parent="vS6UbNGED4iVd90E8qPK-677" vertex="1">
          <mxGeometry y="120" width="180" height="30" as="geometry" />
        </mxCell>
        <mxCell id="vS6UbNGED4iVd90E8qPK-688" style="shape=partialRectangle;overflow=hidden;connectable=0;fillColor=none;top=0;left=0;bottom=0;right=0;" parent="vS6UbNGED4iVd90E8qPK-687" vertex="1">
          <mxGeometry width="30" height="30" as="geometry">
            <mxRectangle width="30" height="30" as="alternateBounds" />
          </mxGeometry>
        </mxCell>
        <mxCell id="vS6UbNGED4iVd90E8qPK-689" value="AccessTime" style="shape=partialRectangle;overflow=hidden;connectable=0;fillColor=none;top=0;left=0;bottom=0;right=0;align=left;spacingLeft=6;" parent="vS6UbNGED4iVd90E8qPK-687" vertex="1">
          <mxGeometry x="30" width="150" height="30" as="geometry">
            <mxRectangle width="150" height="30" as="alternateBounds" />
          </mxGeometry>
        </mxCell>
        <mxCell id="vS6UbNGED4iVd90E8qPK-690" style="shape=partialRectangle;collapsible=0;dropTarget=0;pointerEvents=0;fillColor=none;points=[[0,0.5],[1,0.5]];portConstraint=eastwest;top=0;left=0;right=0;bottom=0;" parent="vS6UbNGED4iVd90E8qPK-677" vertex="1">
          <mxGeometry y="150" width="180" height="30" as="geometry" />
        </mxCell>
        <mxCell id="vS6UbNGED4iVd90E8qPK-691" style="shape=partialRectangle;overflow=hidden;connectable=0;fillColor=none;top=0;left=0;bottom=0;right=0;" parent="vS6UbNGED4iVd90E8qPK-690" vertex="1">
          <mxGeometry width="30" height="30" as="geometry">
            <mxRectangle width="30" height="30" as="alternateBounds" />
          </mxGeometry>
        </mxCell>
        <mxCell id="vS6UbNGED4iVd90E8qPK-692" value="AccessResult" style="shape=partialRectangle;overflow=hidden;connectable=0;fillColor=none;top=0;left=0;bottom=0;right=0;align=left;spacingLeft=6;" parent="vS6UbNGED4iVd90E8qPK-690" vertex="1">
          <mxGeometry x="30" width="150" height="30" as="geometry">
            <mxRectangle width="150" height="30" as="alternateBounds" />
          </mxGeometry>
        </mxCell>
        <mxCell id="vS6UbNGED4iVd90E8qPK-698" style="edgeStyle=orthogonalEdgeStyle;rounded=0;orthogonalLoop=1;jettySize=auto;html=1;exitX=0.5;exitY=1;exitDx=0;exitDy=0;endArrow=none;endFill=0;" parent="1" source="vS6UbNGED4iVd90E8qPK-694" target="vS6UbNGED4iVd90E8qPK-695" edge="1">
          <mxGeometry relative="1" as="geometry" />
        </mxCell>
        <mxCell id="vS6UbNGED4iVd90E8qPK-694" value="UserAuth" style="rhombus;whiteSpace=wrap;html=1;" parent="1" vertex="1">
          <mxGeometry x="1820" y="988" width="155" height="60" as="geometry" />
        </mxCell>
        <mxCell id="vS6UbNGED4iVd90E8qPK-695" value="AuthInfo" style="swimlane;fontStyle=0;childLayout=stackLayout;horizontal=1;startSize=30;horizontalStack=0;resizeParent=1;resizeParentMax=0;resizeLast=0;collapsible=1;marginBottom=0;whiteSpace=wrap;html=1;" parent="1" vertex="1">
          <mxGeometry x="1827.5" y="1306" width="140" height="90" as="geometry" />
        </mxCell>
        <mxCell id="vS6UbNGED4iVd90E8qPK-696" value="AuthStatus" style="text;strokeColor=none;fillColor=none;align=left;verticalAlign=middle;spacingLeft=4;spacingRight=4;overflow=hidden;points=[[0,0.5],[1,0.5]];portConstraint=eastwest;rotatable=0;whiteSpace=wrap;html=1;" parent="vS6UbNGED4iVd90E8qPK-695" vertex="1">
          <mxGeometry y="30" width="140" height="30" as="geometry" />
        </mxCell>
        <mxCell id="vS6UbNGED4iVd90E8qPK-697" value="AuthDate" style="text;strokeColor=none;fillColor=none;align=left;verticalAlign=middle;spacingLeft=4;spacingRight=4;overflow=hidden;points=[[0,0.5],[1,0.5]];portConstraint=eastwest;rotatable=0;whiteSpace=wrap;html=1;" parent="vS6UbNGED4iVd90E8qPK-695" vertex="1">
          <mxGeometry y="60" width="140" height="30" as="geometry" />
        </mxCell>
        <mxCell id="vS6UbNGED4iVd90E8qPK-702" style="edgeStyle=orthogonalEdgeStyle;rounded=0;orthogonalLoop=1;jettySize=auto;html=1;exitX=1;exitY=0.5;exitDx=0;exitDy=0;entryX=1;entryY=0.5;entryDx=0;entryDy=0;" parent="1" source="vS6UbNGED4iVd90E8qPK-678" target="vS6UbNGED4iVd90E8qPK-696" edge="1">
          <mxGeometry relative="1" as="geometry">
            <Array as="points">
              <mxPoint x="2000" y="1483" />
              <mxPoint x="2000" y="1351" />
            </Array>
          </mxGeometry>
        </mxCell>
        <mxCell id="ph8OzwvEkmPlt8eOSCm9-14" value="VIPMembers" style="swimlane;fontStyle=0;childLayout=stackLayout;horizontal=1;startSize=26;fillColor=none;horizontalStack=0;resizeParent=1;resizeParentMax=0;resizeLast=0;collapsible=1;marginBottom=0;html=1;" vertex="1" parent="1">
          <mxGeometry x="-120" y="60" width="140" height="130" as="geometry" />
        </mxCell>
        <mxCell id="ph8OzwvEkmPlt8eOSCm9-15" value="&lt;u&gt;VIPMemberID&lt;/u&gt;" style="text;strokeColor=none;fillColor=none;align=left;verticalAlign=top;spacingLeft=4;spacingRight=4;overflow=hidden;rotatable=0;points=[[0,0.5],[1,0.5]];portConstraint=eastwest;whiteSpace=wrap;html=1;" vertex="1" parent="ph8OzwvEkmPlt8eOSCm9-14">
          <mxGeometry y="26" width="140" height="26" as="geometry" />
        </mxCell>
        <mxCell id="ph8OzwvEkmPlt8eOSCm9-16" value="Status" style="text;strokeColor=none;fillColor=none;align=left;verticalAlign=top;spacingLeft=4;spacingRight=4;overflow=hidden;rotatable=0;points=[[0,0.5],[1,0.5]];portConstraint=eastwest;whiteSpace=wrap;html=1;" vertex="1" parent="ph8OzwvEkmPlt8eOSCm9-14">
          <mxGeometry y="52" width="140" height="26" as="geometry" />
        </mxCell>
        <mxCell id="ph8OzwvEkmPlt8eOSCm9-17" value="VIPStartDate" style="text;strokeColor=none;fillColor=none;align=left;verticalAlign=top;spacingLeft=4;spacingRight=4;overflow=hidden;rotatable=0;points=[[0,0.5],[1,0.5]];portConstraint=eastwest;whiteSpace=wrap;html=1;" vertex="1" parent="ph8OzwvEkmPlt8eOSCm9-14">
          <mxGeometry y="78" width="140" height="26" as="geometry" />
        </mxCell>
        <mxCell id="ph8OzwvEkmPlt8eOSCm9-18" value="VIPEndDate" style="text;strokeColor=none;fillColor=none;align=left;verticalAlign=top;spacingLeft=4;spacingRight=4;overflow=hidden;rotatable=0;points=[[0,0.5],[1,0.5]];portConstraint=eastwest;whiteSpace=wrap;html=1;" vertex="1" parent="ph8OzwvEkmPlt8eOSCm9-14">
          <mxGeometry y="104" width="140" height="26" as="geometry" />
        </mxCell>
        <mxCell id="ph8OzwvEkmPlt8eOSCm9-19" style="edgeStyle=orthogonalEdgeStyle;rounded=0;orthogonalLoop=1;jettySize=auto;html=1;exitX=1;exitY=0.5;exitDx=0;exitDy=0;entryX=0.931;entryY=0.011;entryDx=0;entryDy=0;entryPerimeter=0;" edge="1" parent="1" source="ph8OzwvEkmPlt8eOSCm9-20" target="ph8OzwvEkmPlt8eOSCm9-57">
          <mxGeometry relative="1" as="geometry">
            <mxPoint x="290" y="890" as="targetPoint" />
            <Array as="points">
              <mxPoint x="290" y="99" />
              <mxPoint x="290" y="880" />
              <mxPoint x="130" y="880" />
            </Array>
          </mxGeometry>
        </mxCell>
        <mxCell id="ph8OzwvEkmPlt8eOSCm9-20" value="User_VIP" style="rhombus;whiteSpace=wrap;html=1;" vertex="1" parent="1">
          <mxGeometry x="100" y="79" width="80" height="40" as="geometry" />
        </mxCell>
        <mxCell id="ph8OzwvEkmPlt8eOSCm9-21" style="edgeStyle=orthogonalEdgeStyle;rounded=0;orthogonalLoop=1;jettySize=auto;html=1;exitX=1;exitY=0.5;exitDx=0;exitDy=0;entryX=0.86;entryY=-0.022;entryDx=0;entryDy=0;entryPerimeter=0;" edge="1" parent="1" source="ph8OzwvEkmPlt8eOSCm9-23" target="ph8OzwvEkmPlt8eOSCm9-57">
          <mxGeometry relative="1" as="geometry">
            <Array as="points">
              <mxPoint x="280" y="275" />
              <mxPoint x="280" y="870" />
              <mxPoint x="120" y="870" />
            </Array>
          </mxGeometry>
        </mxCell>
        <mxCell id="ph8OzwvEkmPlt8eOSCm9-22" style="edgeStyle=orthogonalEdgeStyle;rounded=0;orthogonalLoop=1;jettySize=auto;html=1;exitX=0;exitY=0.5;exitDx=0;exitDy=0;entryX=0.995;entryY=0.844;entryDx=0;entryDy=0;entryPerimeter=0;" edge="1" parent="1" source="ph8OzwvEkmPlt8eOSCm9-23" target="ph8OzwvEkmPlt8eOSCm9-15">
          <mxGeometry relative="1" as="geometry" />
        </mxCell>
        <mxCell id="ph8OzwvEkmPlt8eOSCm9-23" value="VIP_Order" style="rhombus;whiteSpace=wrap;html=1;" vertex="1" parent="1">
          <mxGeometry x="100" y="250" width="80" height="50" as="geometry" />
        </mxCell>
        <mxCell id="ph8OzwvEkmPlt8eOSCm9-24" value="" style="endArrow=none;dashed=1;html=1;rounded=0;exitX=0.5;exitY=1;exitDx=0;exitDy=0;entryX=0.5;entryY=0;entryDx=0;entryDy=0;" edge="1" parent="1" source="ph8OzwvEkmPlt8eOSCm9-31" target="ph8OzwvEkmPlt8eOSCm9-23">
          <mxGeometry width="50" height="50" relative="1" as="geometry">
            <mxPoint x="140" y="310" as="sourcePoint" />
            <mxPoint x="140" y="230" as="targetPoint" />
          </mxGeometry>
        </mxCell>
        <mxCell id="ph8OzwvEkmPlt8eOSCm9-25" value="Admin_Edit" style="rhombus;whiteSpace=wrap;html=1;" vertex="1" parent="1">
          <mxGeometry x="-310" y="76" width="90" height="43" as="geometry" />
        </mxCell>
        <mxCell id="ph8OzwvEkmPlt8eOSCm9-26" value="&lt;u&gt;EditTimeStamp&lt;/u&gt;&lt;br&gt;EditType&lt;br&gt;EditContent" style="whiteSpace=wrap;html=1;" vertex="1" parent="1">
          <mxGeometry x="-312.5" y="160" width="95" height="52.5" as="geometry" />
        </mxCell>
        <mxCell id="ph8OzwvEkmPlt8eOSCm9-27" value="" style="endArrow=none;dashed=1;html=1;rounded=0;exitX=0.5;exitY=1;exitDx=0;exitDy=0;entryX=0.5;entryY=0;entryDx=0;entryDy=0;" edge="1" parent="1" source="ph8OzwvEkmPlt8eOSCm9-25" target="ph8OzwvEkmPlt8eOSCm9-26">
          <mxGeometry width="50" height="50" relative="1" as="geometry">
            <mxPoint x="-340" y="72.5" as="sourcePoint" />
            <mxPoint x="-220" y="140" as="targetPoint" />
          </mxGeometry>
        </mxCell>
        <mxCell id="ph8OzwvEkmPlt8eOSCm9-28" value="Admin" style="swimlane;fontStyle=0;childLayout=stackLayout;horizontal=1;startSize=26;fillColor=none;horizontalStack=0;resizeParent=1;resizeParentMax=0;resizeLast=0;collapsible=1;marginBottom=0;html=1;" vertex="1" parent="1">
          <mxGeometry x="-510" y="60" width="140" height="52" as="geometry" />
        </mxCell>
        <mxCell id="ph8OzwvEkmPlt8eOSCm9-29" value="AdminID" style="text;strokeColor=none;fillColor=none;align=left;verticalAlign=top;spacingLeft=4;spacingRight=4;overflow=hidden;rotatable=0;points=[[0,0.5],[1,0.5]];portConstraint=eastwest;whiteSpace=wrap;html=1;" vertex="1" parent="ph8OzwvEkmPlt8eOSCm9-28">
          <mxGeometry y="26" width="140" height="26" as="geometry" />
        </mxCell>
        <mxCell id="ph8OzwvEkmPlt8eOSCm9-30" value="" style="shape=link;html=1;rounded=0;exitX=1;exitY=0.5;exitDx=0;exitDy=0;entryX=0;entryY=0.5;entryDx=0;entryDy=0;" edge="1" parent="1" source="ph8OzwvEkmPlt8eOSCm9-15" target="ph8OzwvEkmPlt8eOSCm9-20">
          <mxGeometry width="100" relative="1" as="geometry">
            <mxPoint x="110" y="150" as="sourcePoint" />
            <mxPoint x="210" y="150" as="targetPoint" />
            <Array as="points" />
          </mxGeometry>
        </mxCell>
        <mxCell id="ph8OzwvEkmPlt8eOSCm9-31" value="&lt;u style=&quot;&quot;&gt;OrderID&lt;br&gt;&lt;/u&gt;&lt;span style=&quot;text-align: left;&quot;&gt;TotalAmount&lt;br&gt;&lt;/span&gt;&lt;span style=&quot;text-align: left;&quot;&gt;PointReturn&lt;br&gt;&lt;/span&gt;&lt;span style=&quot;text-align: left;&quot;&gt;OrderTime&lt;br&gt;&lt;/span&gt;&lt;span style=&quot;text-align: left;&quot;&gt;RechargeTime&lt;/span&gt;&lt;u style=&quot;&quot;&gt;&lt;br&gt;&lt;/u&gt;" style="rounded=0;whiteSpace=wrap;html=1;" vertex="1" parent="1">
          <mxGeometry x="80" y="160" width="120" height="80" as="geometry" />
        </mxCell>
        <mxCell id="ph8OzwvEkmPlt8eOSCm9-32" value="" style="endArrow=none;html=1;rounded=0;entryX=0;entryY=0.5;entryDx=0;entryDy=0;exitX=1;exitY=0.5;exitDx=0;exitDy=0;" edge="1" parent="1" source="ph8OzwvEkmPlt8eOSCm9-25" target="ph8OzwvEkmPlt8eOSCm9-15">
          <mxGeometry width="50" height="50" relative="1" as="geometry">
            <mxPoint x="-220" y="220" as="sourcePoint" />
            <mxPoint x="-170" y="170" as="targetPoint" />
          </mxGeometry>
        </mxCell>
        <mxCell id="ph8OzwvEkmPlt8eOSCm9-33" value="" style="endArrow=none;html=1;rounded=0;entryX=0;entryY=0.5;entryDx=0;entryDy=0;exitX=1;exitY=0.5;exitDx=0;exitDy=0;" edge="1" parent="1" source="ph8OzwvEkmPlt8eOSCm9-29" target="ph8OzwvEkmPlt8eOSCm9-25">
          <mxGeometry width="50" height="50" relative="1" as="geometry">
            <mxPoint x="-350" y="252.5" as="sourcePoint" />
            <mxPoint x="-300" y="202.5" as="targetPoint" />
          </mxGeometry>
        </mxCell>
        <mxCell id="ph8OzwvEkmPlt8eOSCm9-34" value="Advertisements" style="swimlane;fontStyle=0;childLayout=stackLayout;horizontal=1;startSize=26;fillColor=none;horizontalStack=0;resizeParent=1;resizeParentMax=0;resizeLast=0;collapsible=1;marginBottom=0;html=1;" vertex="1" parent="1">
          <mxGeometry x="-65" y="390" width="140" height="208" as="geometry" />
        </mxCell>
        <mxCell id="ph8OzwvEkmPlt8eOSCm9-35" value="&lt;u&gt;AdID&lt;/u&gt;" style="text;strokeColor=none;fillColor=none;align=left;verticalAlign=top;spacingLeft=4;spacingRight=4;overflow=hidden;rotatable=0;points=[[0,0.5],[1,0.5]];portConstraint=eastwest;whiteSpace=wrap;html=1;" vertex="1" parent="ph8OzwvEkmPlt8eOSCm9-34">
          <mxGeometry y="26" width="140" height="26" as="geometry" />
        </mxCell>
        <mxCell id="ph8OzwvEkmPlt8eOSCm9-36" value="AdContent" style="text;strokeColor=none;fillColor=none;align=left;verticalAlign=top;spacingLeft=4;spacingRight=4;overflow=hidden;rotatable=0;points=[[0,0.5],[1,0.5]];portConstraint=eastwest;whiteSpace=wrap;html=1;" vertex="1" parent="ph8OzwvEkmPlt8eOSCm9-34">
          <mxGeometry y="52" width="140" height="26" as="geometry" />
        </mxCell>
        <mxCell id="ph8OzwvEkmPlt8eOSCm9-37" value="AdPicture" style="text;strokeColor=none;fillColor=none;align=left;verticalAlign=top;spacingLeft=4;spacingRight=4;overflow=hidden;rotatable=0;points=[[0,0.5],[1,0.5]];portConstraint=eastwest;whiteSpace=wrap;html=1;" vertex="1" parent="ph8OzwvEkmPlt8eOSCm9-34">
          <mxGeometry y="78" width="140" height="26" as="geometry" />
        </mxCell>
        <mxCell id="ph8OzwvEkmPlt8eOSCm9-38" value="AdURL" style="text;strokeColor=none;fillColor=none;align=left;verticalAlign=top;spacingLeft=4;spacingRight=4;overflow=hidden;rotatable=0;points=[[0,0.5],[1,0.5]];portConstraint=eastwest;whiteSpace=wrap;html=1;" vertex="1" parent="ph8OzwvEkmPlt8eOSCm9-34">
          <mxGeometry y="104" width="140" height="26" as="geometry" />
        </mxCell>
        <mxCell id="ph8OzwvEkmPlt8eOSCm9-39" value="AdType" style="text;strokeColor=none;fillColor=none;align=left;verticalAlign=top;spacingLeft=4;spacingRight=4;overflow=hidden;rotatable=0;points=[[0,0.5],[1,0.5]];portConstraint=eastwest;whiteSpace=wrap;html=1;" vertex="1" parent="ph8OzwvEkmPlt8eOSCm9-34">
          <mxGeometry y="130" width="140" height="26" as="geometry" />
        </mxCell>
        <mxCell id="ph8OzwvEkmPlt8eOSCm9-40" value="AdStartDate" style="text;strokeColor=none;fillColor=none;align=left;verticalAlign=top;spacingLeft=4;spacingRight=4;overflow=hidden;rotatable=0;points=[[0,0.5],[1,0.5]];portConstraint=eastwest;whiteSpace=wrap;html=1;" vertex="1" parent="ph8OzwvEkmPlt8eOSCm9-34">
          <mxGeometry y="156" width="140" height="26" as="geometry" />
        </mxCell>
        <mxCell id="ph8OzwvEkmPlt8eOSCm9-41" value="AdEndDate" style="text;strokeColor=none;fillColor=none;align=left;verticalAlign=top;spacingLeft=4;spacingRight=4;overflow=hidden;rotatable=0;points=[[0,0.5],[1,0.5]];portConstraint=eastwest;whiteSpace=wrap;html=1;" vertex="1" parent="ph8OzwvEkmPlt8eOSCm9-34">
          <mxGeometry y="182" width="140" height="26" as="geometry" />
        </mxCell>
        <mxCell id="ph8OzwvEkmPlt8eOSCm9-42" value="ShowAd" style="rhombus;whiteSpace=wrap;html=1;" vertex="1" parent="1">
          <mxGeometry x="125" y="477" width="100" height="60" as="geometry" />
        </mxCell>
        <mxCell id="ph8OzwvEkmPlt8eOSCm9-43" value="" style="endArrow=none;dashed=1;html=1;rounded=0;exitX=0.5;exitY=1;exitDx=0;exitDy=0;entryX=0.5;entryY=0;entryDx=0;entryDy=0;" edge="1" parent="1" source="ph8OzwvEkmPlt8eOSCm9-42" target="ph8OzwvEkmPlt8eOSCm9-44">
          <mxGeometry width="50" height="50" relative="1" as="geometry">
            <mxPoint x="25" y="670" as="sourcePoint" />
            <mxPoint x="75" y="620" as="targetPoint" />
            <Array as="points" />
          </mxGeometry>
        </mxCell>
        <mxCell id="ph8OzwvEkmPlt8eOSCm9-44" value="&lt;u&gt;TimeStamp&lt;/u&gt;" style="rounded=0;whiteSpace=wrap;html=1;" vertex="1" parent="1">
          <mxGeometry x="135" y="560" width="80" height="30" as="geometry" />
        </mxCell>
        <mxCell id="ph8OzwvEkmPlt8eOSCm9-45" value="ClickAd" style="rhombus;whiteSpace=wrap;html=1;" vertex="1" parent="1">
          <mxGeometry x="125" y="404" width="80" height="50" as="geometry" />
        </mxCell>
        <mxCell id="ph8OzwvEkmPlt8eOSCm9-46" value="TimeStamp&lt;br&gt;IPAddress" style="rounded=0;whiteSpace=wrap;html=1;" vertex="1" parent="1">
          <mxGeometry x="117.5" y="330" width="95" height="40" as="geometry" />
        </mxCell>
        <mxCell id="ph8OzwvEkmPlt8eOSCm9-47" value="" style="endArrow=none;dashed=1;html=1;rounded=0;entryX=0.5;entryY=1;entryDx=0;entryDy=0;exitX=0.5;exitY=0;exitDx=0;exitDy=0;" edge="1" parent="1" source="ph8OzwvEkmPlt8eOSCm9-45" target="ph8OzwvEkmPlt8eOSCm9-46">
          <mxGeometry width="50" height="50" relative="1" as="geometry">
            <mxPoint x="65" y="450" as="sourcePoint" />
            <mxPoint x="115" y="400" as="targetPoint" />
          </mxGeometry>
        </mxCell>
        <mxCell id="ph8OzwvEkmPlt8eOSCm9-48" value="AdminEdit" style="rhombus;whiteSpace=wrap;html=1;" vertex="1" parent="1">
          <mxGeometry x="-215" y="402.5" width="90" height="53" as="geometry" />
        </mxCell>
        <mxCell id="ph8OzwvEkmPlt8eOSCm9-49" value="TimeStamp&lt;br&gt;EditType&lt;br&gt;EditContent" style="rounded=0;whiteSpace=wrap;html=1;" vertex="1" parent="1">
          <mxGeometry x="-220" y="490" width="100" height="50" as="geometry" />
        </mxCell>
        <mxCell id="ph8OzwvEkmPlt8eOSCm9-50" value="" style="endArrow=none;dashed=1;html=1;rounded=0;exitX=0.5;exitY=1;exitDx=0;exitDy=0;entryX=0.5;entryY=0;entryDx=0;entryDy=0;" edge="1" parent="1" source="ph8OzwvEkmPlt8eOSCm9-48" target="ph8OzwvEkmPlt8eOSCm9-49">
          <mxGeometry width="50" height="50" relative="1" as="geometry">
            <mxPoint x="-170" y="460" as="sourcePoint" />
            <mxPoint x="-170" y="480" as="targetPoint" />
          </mxGeometry>
        </mxCell>
        <mxCell id="ph8OzwvEkmPlt8eOSCm9-51" value="" style="endArrow=none;html=1;rounded=0;entryX=0;entryY=0.5;entryDx=0;entryDy=0;" edge="1" parent="1" source="ph8OzwvEkmPlt8eOSCm9-29" target="ph8OzwvEkmPlt8eOSCm9-48">
          <mxGeometry width="50" height="50" relative="1" as="geometry">
            <mxPoint x="-315" y="559" as="sourcePoint" />
            <mxPoint x="-285" y="584" as="targetPoint" />
            <Array as="points">
              <mxPoint x="-440" y="430" />
            </Array>
          </mxGeometry>
        </mxCell>
        <mxCell id="ph8OzwvEkmPlt8eOSCm9-52" value="" style="endArrow=none;html=1;rounded=0;entryX=0;entryY=0.5;entryDx=0;entryDy=0;exitX=1;exitY=0.5;exitDx=0;exitDy=0;" edge="1" parent="1" source="ph8OzwvEkmPlt8eOSCm9-48" target="ph8OzwvEkmPlt8eOSCm9-35">
          <mxGeometry width="50" height="50" relative="1" as="geometry">
            <mxPoint x="-295" y="570" as="sourcePoint" />
            <mxPoint x="-245" y="520" as="targetPoint" />
          </mxGeometry>
        </mxCell>
        <mxCell id="ph8OzwvEkmPlt8eOSCm9-53" value="" style="endArrow=none;html=1;rounded=0;entryX=0;entryY=0.5;entryDx=0;entryDy=0;exitX=1;exitY=0.5;exitDx=0;exitDy=0;" edge="1" parent="1" source="ph8OzwvEkmPlt8eOSCm9-35" target="ph8OzwvEkmPlt8eOSCm9-45">
          <mxGeometry width="50" height="50" relative="1" as="geometry">
            <mxPoint x="85" y="480" as="sourcePoint" />
            <mxPoint x="135" y="430" as="targetPoint" />
          </mxGeometry>
        </mxCell>
        <mxCell id="ph8OzwvEkmPlt8eOSCm9-54" value="" style="endArrow=none;html=1;rounded=0;entryX=0.802;entryY=-0.022;entryDx=0;entryDy=0;exitX=1;exitY=0.5;exitDx=0;exitDy=0;entryPerimeter=0;" edge="1" parent="1" source="ph8OzwvEkmPlt8eOSCm9-45" target="ph8OzwvEkmPlt8eOSCm9-57">
          <mxGeometry width="50" height="50" relative="1" as="geometry">
            <mxPoint x="165" y="630" as="sourcePoint" />
            <mxPoint x="215" y="559" as="targetPoint" />
            <Array as="points">
              <mxPoint x="270" y="430" />
              <mxPoint x="270" y="860" />
              <mxPoint x="112" y="860" />
            </Array>
          </mxGeometry>
        </mxCell>
        <mxCell id="ph8OzwvEkmPlt8eOSCm9-55" value="" style="endArrow=none;html=1;rounded=0;entryX=0.75;entryY=0;entryDx=0;entryDy=0;exitX=1;exitY=0.5;exitDx=0;exitDy=0;" edge="1" parent="1" source="ph8OzwvEkmPlt8eOSCm9-42" target="ph8OzwvEkmPlt8eOSCm9-57">
          <mxGeometry width="50" height="50" relative="1" as="geometry">
            <mxPoint x="285" y="760" as="sourcePoint" />
            <mxPoint x="289.05999999999995" y="574.6779999999999" as="targetPoint" />
            <Array as="points">
              <mxPoint x="260" y="507" />
              <mxPoint x="260" y="850" />
              <mxPoint x="105" y="850" />
            </Array>
          </mxGeometry>
        </mxCell>
        <mxCell id="ph8OzwvEkmPlt8eOSCm9-56" value="" style="endArrow=none;html=1;rounded=0;entryX=0;entryY=0.5;entryDx=0;entryDy=0;exitX=1;exitY=0.5;exitDx=0;exitDy=0;" edge="1" parent="1" source="ph8OzwvEkmPlt8eOSCm9-35" target="ph8OzwvEkmPlt8eOSCm9-42">
          <mxGeometry width="50" height="50" relative="1" as="geometry">
            <mxPoint x="135" y="690" as="sourcePoint" />
            <mxPoint x="185" y="640" as="targetPoint" />
            <Array as="points">
              <mxPoint x="95" y="430" />
              <mxPoint x="95" y="507" />
            </Array>
          </mxGeometry>
        </mxCell>
        <mxCell id="ph8OzwvEkmPlt8eOSCm9-57" value="Users" style="swimlane;fontStyle=0;childLayout=stackLayout;horizontal=1;startSize=30;horizontalStack=0;resizeParent=1;resizeParentMax=0;resizeLast=0;collapsible=1;marginBottom=0;whiteSpace=wrap;html=1;" vertex="1" parent="1">
          <mxGeometry y="908" width="140" height="60" as="geometry" />
        </mxCell>
        <mxCell id="ph8OzwvEkmPlt8eOSCm9-58" value="&lt;u&gt;user_id&lt;/u&gt;" style="text;strokeColor=none;fillColor=none;align=left;verticalAlign=middle;spacingLeft=4;spacingRight=4;overflow=hidden;points=[[0,0.5],[1,0.5]];portConstraint=eastwest;rotatable=0;whiteSpace=wrap;html=1;" vertex="1" parent="ph8OzwvEkmPlt8eOSCm9-57">
          <mxGeometry y="30" width="140" height="30" as="geometry" />
        </mxCell>
        <mxCell id="ph8OzwvEkmPlt8eOSCm9-59" value="User Messages" style="swimlane;fontStyle=0;childLayout=stackLayout;horizontal=1;startSize=30;horizontalStack=0;resizeParent=1;resizeParentMax=0;resizeLast=0;collapsible=1;marginBottom=0;whiteSpace=wrap;html=1;" vertex="1" parent="1">
          <mxGeometry x="-460" y="858" width="140" height="180" as="geometry">
            <mxRectangle x="70" y="240" width="100" height="30" as="alternateBounds" />
          </mxGeometry>
        </mxCell>
        <mxCell id="ph8OzwvEkmPlt8eOSCm9-60" value="&lt;u&gt;message_id&lt;/u&gt;" style="text;strokeColor=none;fillColor=none;align=left;verticalAlign=middle;spacingLeft=4;spacingRight=4;overflow=hidden;points=[[0,0.5],[1,0.5]];portConstraint=eastwest;rotatable=0;whiteSpace=wrap;html=1;" vertex="1" parent="ph8OzwvEkmPlt8eOSCm9-59">
          <mxGeometry y="30" width="140" height="30" as="geometry" />
        </mxCell>
        <mxCell id="ph8OzwvEkmPlt8eOSCm9-61" value="message_content" style="text;strokeColor=none;fillColor=none;align=left;verticalAlign=middle;spacingLeft=4;spacingRight=4;overflow=hidden;points=[[0,0.5],[1,0.5]];portConstraint=eastwest;rotatable=0;whiteSpace=wrap;html=1;" vertex="1" parent="ph8OzwvEkmPlt8eOSCm9-59">
          <mxGeometry y="60" width="140" height="30" as="geometry" />
        </mxCell>
        <mxCell id="ph8OzwvEkmPlt8eOSCm9-62" value="read_status" style="text;strokeColor=none;fillColor=none;align=left;verticalAlign=middle;spacingLeft=4;spacingRight=4;overflow=hidden;points=[[0,0.5],[1,0.5]];portConstraint=eastwest;rotatable=0;whiteSpace=wrap;html=1;" vertex="1" parent="ph8OzwvEkmPlt8eOSCm9-59">
          <mxGeometry y="90" width="140" height="30" as="geometry" />
        </mxCell>
        <mxCell id="ph8OzwvEkmPlt8eOSCm9-63" value="send_time" style="text;strokeColor=none;fillColor=none;align=left;verticalAlign=middle;spacingLeft=4;spacingRight=4;overflow=hidden;points=[[0,0.5],[1,0.5]];portConstraint=eastwest;rotatable=0;whiteSpace=wrap;html=1;" vertex="1" parent="ph8OzwvEkmPlt8eOSCm9-59">
          <mxGeometry y="120" width="140" height="30" as="geometry" />
        </mxCell>
        <mxCell id="ph8OzwvEkmPlt8eOSCm9-64" value="message_type" style="text;strokeColor=none;fillColor=none;align=left;verticalAlign=middle;spacingLeft=4;spacingRight=4;overflow=hidden;points=[[0,0.5],[1,0.5]];portConstraint=eastwest;rotatable=0;whiteSpace=wrap;html=1;" vertex="1" parent="ph8OzwvEkmPlt8eOSCm9-59">
          <mxGeometry y="150" width="140" height="30" as="geometry" />
        </mxCell>
        <mxCell id="ph8OzwvEkmPlt8eOSCm9-65" value="send_and_receive" style="rhombus;whiteSpace=wrap;html=1;" vertex="1" parent="1">
          <mxGeometry x="-260" y="903" width="130" height="100" as="geometry" />
        </mxCell>
        <mxCell id="ph8OzwvEkmPlt8eOSCm9-66" value="sender_user_id" style="text;html=1;align=center;verticalAlign=middle;resizable=0;points=[];autosize=1;strokeColor=none;fillColor=none;" vertex="1" parent="1">
          <mxGeometry x="-130" y="898" width="110" height="30" as="geometry" />
        </mxCell>
        <mxCell id="ph8OzwvEkmPlt8eOSCm9-67" value="receiver_user_id" style="text;html=1;align=center;verticalAlign=middle;resizable=0;points=[];autosize=1;strokeColor=none;fillColor=none;" vertex="1" parent="1">
          <mxGeometry x="-120" y="978" width="110" height="30" as="geometry" />
        </mxCell>
        <mxCell id="ph8OzwvEkmPlt8eOSCm9-68" value="User Posts" style="swimlane;fontStyle=0;childLayout=stackLayout;horizontal=1;startSize=30;horizontalStack=0;resizeParent=1;resizeParentMax=0;resizeLast=0;collapsible=1;marginBottom=0;whiteSpace=wrap;html=1;" vertex="1" parent="1">
          <mxGeometry x="180" y="1233" width="140" height="150" as="geometry" />
        </mxCell>
        <mxCell id="ph8OzwvEkmPlt8eOSCm9-69" value="&lt;u&gt;post_id&lt;/u&gt;" style="text;strokeColor=none;fillColor=none;align=left;verticalAlign=middle;spacingLeft=4;spacingRight=4;overflow=hidden;points=[[0,0.5],[1,0.5]];portConstraint=eastwest;rotatable=0;whiteSpace=wrap;html=1;" vertex="1" parent="ph8OzwvEkmPlt8eOSCm9-68">
          <mxGeometry y="30" width="140" height="30" as="geometry" />
        </mxCell>
        <mxCell id="ph8OzwvEkmPlt8eOSCm9-70" value="content" style="text;strokeColor=none;fillColor=none;align=left;verticalAlign=middle;spacingLeft=4;spacingRight=4;overflow=hidden;points=[[0,0.5],[1,0.5]];portConstraint=eastwest;rotatable=0;whiteSpace=wrap;html=1;" vertex="1" parent="ph8OzwvEkmPlt8eOSCm9-68">
          <mxGeometry y="60" width="140" height="30" as="geometry" />
        </mxCell>
        <mxCell id="ph8OzwvEkmPlt8eOSCm9-71" value="post_date" style="text;strokeColor=none;fillColor=none;align=left;verticalAlign=middle;spacingLeft=4;spacingRight=4;overflow=hidden;points=[[0,0.5],[1,0.5]];portConstraint=eastwest;rotatable=0;whiteSpace=wrap;html=1;" vertex="1" parent="ph8OzwvEkmPlt8eOSCm9-68">
          <mxGeometry y="90" width="140" height="30" as="geometry" />
        </mxCell>
        <mxCell id="ph8OzwvEkmPlt8eOSCm9-72" value="popularity" style="text;strokeColor=none;fillColor=none;align=left;verticalAlign=middle;spacingLeft=4;spacingRight=4;overflow=hidden;points=[[0,0.5],[1,0.5]];portConstraint=eastwest;rotatable=0;whiteSpace=wrap;html=1;" vertex="1" parent="ph8OzwvEkmPlt8eOSCm9-68">
          <mxGeometry y="120" width="140" height="30" as="geometry" />
        </mxCell>
        <mxCell id="ph8OzwvEkmPlt8eOSCm9-73" value="post" style="rhombus;whiteSpace=wrap;html=1;" vertex="1" parent="1">
          <mxGeometry x="195" y="1098" width="80" height="80" as="geometry" />
        </mxCell>
        <mxCell id="ph8OzwvEkmPlt8eOSCm9-74" value="User Relationships" style="rhombus;whiteSpace=wrap;html=1;" vertex="1" parent="1">
          <mxGeometry x="345" y="960" width="145" height="85" as="geometry" />
        </mxCell>
        <mxCell id="ph8OzwvEkmPlt8eOSCm9-75" value="Questions" style="swimlane;fontStyle=0;childLayout=stackLayout;horizontal=1;startSize=30;horizontalStack=0;resizeParent=1;resizeParentMax=0;resizeLast=0;collapsible=1;marginBottom=0;whiteSpace=wrap;html=1;" vertex="1" parent="1">
          <mxGeometry x="-430" y="1143" width="140" height="120" as="geometry" />
        </mxCell>
        <mxCell id="ph8OzwvEkmPlt8eOSCm9-76" value="&lt;u&gt;question_id&lt;/u&gt;" style="text;strokeColor=none;fillColor=none;align=left;verticalAlign=middle;spacingLeft=4;spacingRight=4;overflow=hidden;points=[[0,0.5],[1,0.5]];portConstraint=eastwest;rotatable=0;whiteSpace=wrap;html=1;" vertex="1" parent="ph8OzwvEkmPlt8eOSCm9-75">
          <mxGeometry y="30" width="140" height="30" as="geometry" />
        </mxCell>
        <mxCell id="ph8OzwvEkmPlt8eOSCm9-77" value="question_content" style="text;strokeColor=none;fillColor=none;align=left;verticalAlign=middle;spacingLeft=4;spacingRight=4;overflow=hidden;points=[[0,0.5],[1,0.5]];portConstraint=eastwest;rotatable=0;whiteSpace=wrap;html=1;" vertex="1" parent="ph8OzwvEkmPlt8eOSCm9-75">
          <mxGeometry y="60" width="140" height="30" as="geometry" />
        </mxCell>
        <mxCell id="ph8OzwvEkmPlt8eOSCm9-78" value="question_time" style="text;strokeColor=none;fillColor=none;align=left;verticalAlign=middle;spacingLeft=4;spacingRight=4;overflow=hidden;points=[[0,0.5],[1,0.5]];portConstraint=eastwest;rotatable=0;whiteSpace=wrap;html=1;" vertex="1" parent="ph8OzwvEkmPlt8eOSCm9-75">
          <mxGeometry y="90" width="140" height="30" as="geometry" />
        </mxCell>
        <mxCell id="ph8OzwvEkmPlt8eOSCm9-79" value="Answers" style="swimlane;fontStyle=0;childLayout=stackLayout;horizontal=1;startSize=30;horizontalStack=0;resizeParent=1;resizeParentMax=0;resizeLast=0;collapsible=1;marginBottom=0;whiteSpace=wrap;html=1;" vertex="1" parent="1">
          <mxGeometry y="1318" width="140" height="120" as="geometry" />
        </mxCell>
        <mxCell id="ph8OzwvEkmPlt8eOSCm9-80" value="&lt;u&gt;answer_id&lt;/u&gt;" style="text;strokeColor=none;fillColor=none;align=left;verticalAlign=middle;spacingLeft=4;spacingRight=4;overflow=hidden;points=[[0,0.5],[1,0.5]];portConstraint=eastwest;rotatable=0;whiteSpace=wrap;html=1;" vertex="1" parent="ph8OzwvEkmPlt8eOSCm9-79">
          <mxGeometry y="30" width="140" height="30" as="geometry" />
        </mxCell>
        <mxCell id="ph8OzwvEkmPlt8eOSCm9-81" value="answer_content" style="text;strokeColor=none;fillColor=none;align=left;verticalAlign=middle;spacingLeft=4;spacingRight=4;overflow=hidden;points=[[0,0.5],[1,0.5]];portConstraint=eastwest;rotatable=0;whiteSpace=wrap;html=1;" vertex="1" parent="ph8OzwvEkmPlt8eOSCm9-79">
          <mxGeometry y="60" width="140" height="30" as="geometry" />
        </mxCell>
        <mxCell id="ph8OzwvEkmPlt8eOSCm9-82" value="answer_date" style="text;strokeColor=none;fillColor=none;align=left;verticalAlign=middle;spacingLeft=4;spacingRight=4;overflow=hidden;points=[[0,0.5],[1,0.5]];portConstraint=eastwest;rotatable=0;whiteSpace=wrap;html=1;" vertex="1" parent="ph8OzwvEkmPlt8eOSCm9-79">
          <mxGeometry y="90" width="140" height="30" as="geometry" />
        </mxCell>
        <mxCell id="ph8OzwvEkmPlt8eOSCm9-83" value="question_and_subscribe" style="rhombus;whiteSpace=wrap;html=1;" vertex="1" parent="1">
          <mxGeometry x="-240" y="1063" width="150" height="80" as="geometry" />
        </mxCell>
        <mxCell id="ph8OzwvEkmPlt8eOSCm9-84" style="edgeStyle=orthogonalEdgeStyle;rounded=0;orthogonalLoop=1;jettySize=auto;html=1;exitX=0.5;exitY=1;exitDx=0;exitDy=0;entryX=0.5;entryY=0;entryDx=0;entryDy=0;shape=link;" edge="1" parent="1" source="ph8OzwvEkmPlt8eOSCm9-85" target="ph8OzwvEkmPlt8eOSCm9-79">
          <mxGeometry relative="1" as="geometry" />
        </mxCell>
        <mxCell id="ph8OzwvEkmPlt8eOSCm9-85" value="answer_posed" style="rhombus;whiteSpace=wrap;html=1;" vertex="1" parent="1">
          <mxGeometry x="15" y="1168" width="110" height="80" as="geometry" />
        </mxCell>
        <mxCell id="ph8OzwvEkmPlt8eOSCm9-86" style="edgeStyle=orthogonalEdgeStyle;rounded=0;orthogonalLoop=1;jettySize=auto;html=1;exitX=0;exitY=0.5;exitDx=0;exitDy=0;entryX=1;entryY=0.5;entryDx=0;entryDy=0;" edge="1" parent="1" source="ph8OzwvEkmPlt8eOSCm9-88" target="ph8OzwvEkmPlt8eOSCm9-78">
          <mxGeometry relative="1" as="geometry" />
        </mxCell>
        <mxCell id="ph8OzwvEkmPlt8eOSCm9-87" style="edgeStyle=orthogonalEdgeStyle;rounded=0;orthogonalLoop=1;jettySize=auto;html=1;exitX=1;exitY=0.5;exitDx=0;exitDy=0;entryX=0;entryY=0.5;entryDx=0;entryDy=0;shape=link;" edge="1" parent="1" source="ph8OzwvEkmPlt8eOSCm9-88" target="ph8OzwvEkmPlt8eOSCm9-79">
          <mxGeometry relative="1" as="geometry" />
        </mxCell>
        <mxCell id="ph8OzwvEkmPlt8eOSCm9-88" value="answer_question" style="rhombus;whiteSpace=wrap;html=1;" vertex="1" parent="1">
          <mxGeometry x="-200" y="1338" width="120" height="80" as="geometry" />
        </mxCell>
        <mxCell id="ph8OzwvEkmPlt8eOSCm9-89" value="Items" style="swimlane;fontStyle=0;childLayout=stackLayout;horizontal=1;startSize=30;horizontalStack=0;resizeParent=1;resizeParentMax=0;resizeLast=0;collapsible=1;marginBottom=0;whiteSpace=wrap;html=1;" vertex="1" parent="1">
          <mxGeometry x="-430" y="1420" width="140" height="60" as="geometry" />
        </mxCell>
        <mxCell id="ph8OzwvEkmPlt8eOSCm9-90" value="&lt;u&gt;item_id&lt;/u&gt;" style="text;strokeColor=none;fillColor=none;align=left;verticalAlign=middle;spacingLeft=4;spacingRight=4;overflow=hidden;points=[[0,0.5],[1,0.5]];portConstraint=eastwest;rotatable=0;whiteSpace=wrap;html=1;" vertex="1" parent="ph8OzwvEkmPlt8eOSCm9-89">
          <mxGeometry y="30" width="140" height="30" as="geometry" />
        </mxCell>
        <mxCell id="ph8OzwvEkmPlt8eOSCm9-91" style="edgeStyle=orthogonalEdgeStyle;rounded=0;orthogonalLoop=1;jettySize=auto;html=1;exitX=0.5;exitY=1;exitDx=0;exitDy=0;entryX=0.5;entryY=0;entryDx=0;entryDy=0;" edge="1" parent="1" source="ph8OzwvEkmPlt8eOSCm9-92" target="ph8OzwvEkmPlt8eOSCm9-89">
          <mxGeometry relative="1" as="geometry" />
        </mxCell>
        <mxCell id="ph8OzwvEkmPlt8eOSCm9-92" value="question_about_items" style="rhombus;whiteSpace=wrap;html=1;" vertex="1" parent="1">
          <mxGeometry x="-435" y="1300" width="150" height="80" as="geometry" />
        </mxCell>
        <mxCell id="ph8OzwvEkmPlt8eOSCm9-93" style="edgeStyle=orthogonalEdgeStyle;rounded=0;orthogonalLoop=1;jettySize=auto;html=1;exitX=0.5;exitY=0;exitDx=0;exitDy=0;" edge="1" parent="1" source="ph8OzwvEkmPlt8eOSCm9-73">
          <mxGeometry relative="1" as="geometry">
            <mxPoint x="108" y="968" as="targetPoint" />
            <Array as="points">
              <mxPoint x="235" y="1080" />
              <mxPoint x="108" y="1080" />
            </Array>
          </mxGeometry>
        </mxCell>
        <mxCell id="ph8OzwvEkmPlt8eOSCm9-94" style="edgeStyle=orthogonalEdgeStyle;rounded=0;orthogonalLoop=1;jettySize=auto;html=1;exitX=0.5;exitY=0;exitDx=0;exitDy=0;" edge="1" parent="1" source="ph8OzwvEkmPlt8eOSCm9-85">
          <mxGeometry relative="1" as="geometry">
            <mxPoint x="70" y="968" as="targetPoint" />
            <Array as="points">
              <mxPoint x="70" y="968" />
            </Array>
          </mxGeometry>
        </mxCell>
        <mxCell id="ph8OzwvEkmPlt8eOSCm9-95" style="edgeStyle=orthogonalEdgeStyle;rounded=0;orthogonalLoop=1;jettySize=auto;html=1;exitX=0.5;exitY=1;exitDx=0;exitDy=0;entryX=0.393;entryY=0.007;entryDx=0;entryDy=0;entryPerimeter=0;shape=link;" edge="1" parent="1" source="ph8OzwvEkmPlt8eOSCm9-73" target="ph8OzwvEkmPlt8eOSCm9-68">
          <mxGeometry relative="1" as="geometry" />
        </mxCell>
        <mxCell id="ph8OzwvEkmPlt8eOSCm9-96" style="edgeStyle=orthogonalEdgeStyle;rounded=0;orthogonalLoop=1;jettySize=auto;html=1;exitX=0.5;exitY=0;exitDx=0;exitDy=0;entryX=0.495;entryY=0.989;entryDx=0;entryDy=0;entryPerimeter=0;shape=link;" edge="1" parent="1" source="ph8OzwvEkmPlt8eOSCm9-92" target="ph8OzwvEkmPlt8eOSCm9-78">
          <mxGeometry relative="1" as="geometry">
            <mxPoint x="-360" y="1322.0100000000002" as="targetPoint" />
          </mxGeometry>
        </mxCell>
        <mxCell id="ph8OzwvEkmPlt8eOSCm9-97" value="" style="endArrow=none;html=1;rounded=0;entryX=0.5;entryY=1;entryDx=0;entryDy=0;edgeStyle=orthogonalEdgeStyle;" edge="1" parent="1" target="ph8OzwvEkmPlt8eOSCm9-74">
          <mxGeometry width="50" height="50" relative="1" as="geometry">
            <mxPoint x="140" y="965" as="sourcePoint" />
            <mxPoint x="280" y="988" as="targetPoint" />
          </mxGeometry>
        </mxCell>
        <mxCell id="ph8OzwvEkmPlt8eOSCm9-98" value="user_id2" style="text;html=1;align=center;verticalAlign=middle;resizable=0;points=[];autosize=1;strokeColor=none;fillColor=none;" vertex="1" parent="1">
          <mxGeometry x="270" y="1057.5" width="70" height="30" as="geometry" />
        </mxCell>
        <mxCell id="ph8OzwvEkmPlt8eOSCm9-99" value="Follow" style="rhombus;whiteSpace=wrap;html=1;" vertex="1" parent="1">
          <mxGeometry x="45" y="708" width="95" height="80" as="geometry" />
        </mxCell>
        <mxCell id="ph8OzwvEkmPlt8eOSCm9-100" value="" style="endArrow=none;html=1;rounded=0;exitX=0.319;exitY=-0.05;exitDx=0;exitDy=0;exitPerimeter=0;" edge="1" parent="1" source="ph8OzwvEkmPlt8eOSCm9-57">
          <mxGeometry width="50" height="50" relative="1" as="geometry">
            <mxPoint x="-5" y="798" as="sourcePoint" />
            <mxPoint x="45" y="748" as="targetPoint" />
          </mxGeometry>
        </mxCell>
        <mxCell id="ph8OzwvEkmPlt8eOSCm9-101" value="" style="endArrow=none;html=1;rounded=0;exitX=0.643;exitY=0;exitDx=0;exitDy=0;exitPerimeter=0;edgeStyle=orthogonalEdgeStyle;" edge="1" parent="1" source="ph8OzwvEkmPlt8eOSCm9-57">
          <mxGeometry width="50" height="50" relative="1" as="geometry">
            <mxPoint x="90" y="798" as="sourcePoint" />
            <mxPoint x="140" y="748" as="targetPoint" />
          </mxGeometry>
        </mxCell>
        <mxCell id="ph8OzwvEkmPlt8eOSCm9-102" value="follower_user_id" style="text;html=1;align=center;verticalAlign=middle;resizable=0;points=[];autosize=1;strokeColor=none;fillColor=none;" vertex="1" parent="1">
          <mxGeometry x="-30" y="790" width="110" height="30" as="geometry" />
        </mxCell>
        <mxCell id="ph8OzwvEkmPlt8eOSCm9-103" value="followed_user_id" style="text;html=1;align=center;verticalAlign=middle;resizable=0;points=[];autosize=1;strokeColor=none;fillColor=none;" vertex="1" parent="1">
          <mxGeometry x="105" y="788" width="110" height="30" as="geometry" />
        </mxCell>
        <mxCell id="ph8OzwvEkmPlt8eOSCm9-104" value="" style="endArrow=none;dashed=1;html=1;rounded=0;exitX=1;exitY=0.5;exitDx=0;exitDy=0;entryX=0;entryY=0.472;entryDx=0;entryDy=0;entryPerimeter=0;" edge="1" parent="1" source="ph8OzwvEkmPlt8eOSCm9-74">
          <mxGeometry width="50" height="50" relative="1" as="geometry">
            <mxPoint x="505" y="1045" as="sourcePoint" />
            <mxPoint x="555" y="1002.48" as="targetPoint" />
          </mxGeometry>
        </mxCell>
        <mxCell id="ph8OzwvEkmPlt8eOSCm9-105" value="relation_id&lt;div&gt;relation_type&lt;/div&gt;&lt;div&gt;established_date&lt;/div&gt;" style="rounded=0;whiteSpace=wrap;html=1;" vertex="1" parent="1">
          <mxGeometry x="555" y="972.5" width="120" height="60" as="geometry" />
        </mxCell>
        <mxCell id="ph8OzwvEkmPlt8eOSCm9-106" value="follow_id&lt;div&gt;follow_date&lt;/div&gt;" style="rounded=0;whiteSpace=wrap;html=1;" vertex="1" parent="1">
          <mxGeometry x="41.25" y="640" width="102.5" height="50" as="geometry" />
        </mxCell>
        <mxCell id="ph8OzwvEkmPlt8eOSCm9-107" value="" style="endArrow=none;dashed=1;html=1;rounded=0;entryX=0.5;entryY=1;entryDx=0;entryDy=0;exitX=0.5;exitY=0;exitDx=0;exitDy=0;" edge="1" parent="1" source="ph8OzwvEkmPlt8eOSCm9-99" target="ph8OzwvEkmPlt8eOSCm9-106">
          <mxGeometry width="50" height="50" relative="1" as="geometry">
            <mxPoint x="90" y="708" as="sourcePoint" />
            <mxPoint x="140" y="658" as="targetPoint" />
          </mxGeometry>
        </mxCell>
        <mxCell id="ph8OzwvEkmPlt8eOSCm9-108" value="" style="endArrow=none;html=1;rounded=0;entryX=0;entryY=0.333;entryDx=0;entryDy=0;exitX=1;exitY=0;exitDx=0;exitDy=0;entryPerimeter=0;" edge="1" parent="1" source="ph8OzwvEkmPlt8eOSCm9-65" target="ph8OzwvEkmPlt8eOSCm9-57">
          <mxGeometry width="50" height="50" relative="1" as="geometry">
            <mxPoint x="-106" y="928" as="sourcePoint" />
            <mxPoint x="-56" y="878" as="targetPoint" />
          </mxGeometry>
        </mxCell>
        <mxCell id="ph8OzwvEkmPlt8eOSCm9-109" value="" style="endArrow=none;html=1;rounded=0;entryX=0;entryY=0.5;entryDx=0;entryDy=0;exitX=1;exitY=1;exitDx=0;exitDy=0;edgeStyle=orthogonalEdgeStyle;" edge="1" parent="1" source="ph8OzwvEkmPlt8eOSCm9-65" target="ph8OzwvEkmPlt8eOSCm9-58">
          <mxGeometry width="50" height="50" relative="1" as="geometry">
            <mxPoint x="-90" y="1028" as="sourcePoint" />
            <mxPoint x="-40" y="978" as="targetPoint" />
          </mxGeometry>
        </mxCell>
        <mxCell id="ph8OzwvEkmPlt8eOSCm9-110" value="" style="endArrow=none;html=1;rounded=0;entryX=0.1;entryY=1.078;entryDx=0;entryDy=0;entryPerimeter=0;exitX=0.5;exitY=0;exitDx=0;exitDy=0;edgeStyle=orthogonalEdgeStyle;" edge="1" parent="1" source="ph8OzwvEkmPlt8eOSCm9-83" target="ph8OzwvEkmPlt8eOSCm9-58">
          <mxGeometry width="50" height="50" relative="1" as="geometry">
            <mxPoint x="-106" y="1078" as="sourcePoint" />
            <mxPoint x="-56" y="1028" as="targetPoint" />
            <Array as="points">
              <mxPoint x="14" y="1063" />
            </Array>
          </mxGeometry>
        </mxCell>
        <mxCell id="ph8OzwvEkmPlt8eOSCm9-111" value="" style="endArrow=none;html=1;rounded=0;exitX=0.5;exitY=1;exitDx=0;exitDy=0;entryX=0.271;entryY=1.078;entryDx=0;entryDy=0;entryPerimeter=0;edgeStyle=orthogonalEdgeStyle;" edge="1" parent="1" source="ph8OzwvEkmPlt8eOSCm9-83" target="ph8OzwvEkmPlt8eOSCm9-58">
          <mxGeometry width="50" height="50" relative="1" as="geometry">
            <mxPoint x="-80" y="1128" as="sourcePoint" />
            <mxPoint x="-30" y="1078" as="targetPoint" />
            <Array as="points">
              <mxPoint x="38" y="1143" />
            </Array>
          </mxGeometry>
        </mxCell>
        <mxCell id="ph8OzwvEkmPlt8eOSCm9-112" value="user_id" style="text;html=1;align=center;verticalAlign=middle;resizable=0;points=[];autosize=1;strokeColor=none;fillColor=none;" vertex="1" parent="1">
          <mxGeometry x="-116" y="1033" width="60" height="30" as="geometry" />
        </mxCell>
        <mxCell id="ph8OzwvEkmPlt8eOSCm9-113" value="subscriber_id" style="text;html=1;align=center;verticalAlign=middle;resizable=0;points=[];autosize=1;strokeColor=none;fillColor=none;" vertex="1" parent="1">
          <mxGeometry x="-125" y="1146" width="90" height="30" as="geometry" />
        </mxCell>
        <mxCell id="ph8OzwvEkmPlt8eOSCm9-114" value="" style="endArrow=none;html=1;rounded=0;entryX=0;entryY=0.5;entryDx=0;entryDy=0;exitX=0.5;exitY=0;exitDx=0;exitDy=0;edgeStyle=orthogonalEdgeStyle;" edge="1" parent="1" source="ph8OzwvEkmPlt8eOSCm9-75" target="ph8OzwvEkmPlt8eOSCm9-83">
          <mxGeometry width="50" height="50" relative="1" as="geometry">
            <mxPoint x="-360" y="1113" as="sourcePoint" />
            <mxPoint x="-310" y="1063" as="targetPoint" />
          </mxGeometry>
        </mxCell>
        <mxCell id="ph8OzwvEkmPlt8eOSCm9-115" value="" style="endArrow=none;html=1;rounded=0;entryX=0;entryY=0.5;entryDx=0;entryDy=0;" edge="1" parent="1" target="ph8OzwvEkmPlt8eOSCm9-65">
          <mxGeometry width="50" height="50" relative="1" as="geometry">
            <mxPoint x="-320" y="953" as="sourcePoint" />
            <mxPoint x="-270" y="905.5" as="targetPoint" />
          </mxGeometry>
        </mxCell>
        <mxCell id="ph8OzwvEkmPlt8eOSCm9-116" value="&lt;div style=&quot;font-size: 14px; line-height: 170%;&quot;&gt;&lt;font color=&quot;#000000&quot; style=&quot;font-size: 14px;&quot;&gt;&lt;u style=&quot;&quot;&gt;comment_id&lt;/u&gt;&lt;/font&gt;&lt;/div&gt;&lt;div style=&quot;font-size: 14px; line-height: 170%;&quot;&gt;&lt;font color=&quot;#000000&quot; style=&quot;font-size: 14px;&quot;&gt;date&lt;/font&gt;&lt;/div&gt;&lt;div style=&quot;font-size: 14px; line-height: 170%;&quot;&gt;&lt;font color=&quot;#000000&quot; style=&quot;font-size: 14px;&quot;&gt;content&lt;/font&gt;&lt;/div&gt;" style="rounded=0;whiteSpace=wrap;html=1;align=left;labelBackgroundColor=none;strokeColor=#000000;fontColor=#ffffff;fillColor=none;" vertex="1" parent="1">
          <mxGeometry x="445" y="285" width="120" height="70" as="geometry" />
        </mxCell>
        <mxCell id="ph8OzwvEkmPlt8eOSCm9-117" value="&lt;font color=&quot;#000000&quot;&gt;item_comments&lt;/font&gt;" style="rounded=0;whiteSpace=wrap;html=1;labelBackgroundColor=none;strokeColor=#000000;fontColor=#ffffff;fillColor=none;" vertex="1" parent="1">
          <mxGeometry x="445" y="255" width="120" height="30" as="geometry" />
        </mxCell>
        <mxCell id="ph8OzwvEkmPlt8eOSCm9-118" value="&lt;div style=&quot;font-size: 14px; line-height: 170%;&quot;&gt;&lt;font color=&quot;#000000&quot; style=&quot;font-size: 14px;&quot;&gt;&lt;u style=&quot;&quot;&gt;item_id&lt;/u&gt;&lt;/font&gt;&lt;/div&gt;" style="rounded=0;whiteSpace=wrap;html=1;align=left;labelBackgroundColor=none;strokeColor=#000000;fillColor=none;fontColor=#ffffff;" vertex="1" parent="1">
          <mxGeometry x="795" y="265" width="120" height="30" as="geometry" />
        </mxCell>
        <mxCell id="ph8OzwvEkmPlt8eOSCm9-119" value="&lt;font color=&quot;#000000&quot;&gt;lost_item(非本组)&lt;/font&gt;" style="rounded=0;whiteSpace=wrap;html=1;labelBackgroundColor=none;strokeColor=#000000;fillColor=none;fontColor=#ffffff;" vertex="1" parent="1">
          <mxGeometry x="795" y="235" width="120" height="30" as="geometry" />
        </mxCell>
        <mxCell id="ph8OzwvEkmPlt8eOSCm9-120" value="&lt;div style=&quot;font-size: 14px; line-height: 170%;&quot;&gt;&lt;font color=&quot;#000000&quot; style=&quot;font-size: 14px;&quot;&gt;&lt;u style=&quot;&quot;&gt;item_id&lt;/u&gt;&lt;/font&gt;&lt;/div&gt;" style="rounded=0;whiteSpace=wrap;html=1;align=left;labelBackgroundColor=none;strokeColor=#000000;fontColor=#ffffff;fillColor=none;" vertex="1" parent="1">
          <mxGeometry x="795" y="365" width="120" height="30" as="geometry" />
        </mxCell>
        <mxCell id="ph8OzwvEkmPlt8eOSCm9-121" value="&lt;font color=&quot;#000000&quot;&gt;found_item(非本组)&lt;/font&gt;" style="rounded=0;whiteSpace=wrap;html=1;labelBackgroundColor=none;strokeColor=#000000;fontColor=#ffffff;fillColor=none;" vertex="1" parent="1">
          <mxGeometry x="795" y="335" width="120" height="30" as="geometry" />
        </mxCell>
        <mxCell id="ph8OzwvEkmPlt8eOSCm9-122" value="&lt;font color=&quot;#000000&quot;&gt;make&lt;/font&gt;" style="rhombus;whiteSpace=wrap;html=1;labelBackgroundColor=none;strokeColor=#000000;fontColor=#ffffff;fillColor=none;" vertex="1" parent="1">
          <mxGeometry x="315" y="265" width="80" height="80" as="geometry" />
        </mxCell>
        <mxCell id="ph8OzwvEkmPlt8eOSCm9-123" value="" style="endArrow=classic;html=1;rounded=0;exitX=0;exitY=0.5;exitDx=0;exitDy=0;labelBackgroundColor=none;strokeColor=#000000;fontColor=#ffffff;" edge="1" parent="1" source="ph8OzwvEkmPlt8eOSCm9-122">
          <mxGeometry width="50" height="50" relative="1" as="geometry">
            <mxPoint x="490" y="302" as="sourcePoint" />
            <mxPoint x="140" y="930" as="targetPoint" />
            <Array as="points">
              <mxPoint x="300" y="305" />
              <mxPoint x="300" y="930" />
            </Array>
          </mxGeometry>
        </mxCell>
        <mxCell id="ph8OzwvEkmPlt8eOSCm9-124" value="&lt;font color=&quot;#000000&quot;&gt;lost_item_&lt;/font&gt;&lt;div&gt;&lt;font color=&quot;#000000&quot;&gt;comment&lt;/font&gt;&lt;/div&gt;" style="rhombus;whiteSpace=wrap;html=1;labelBackgroundColor=none;strokeColor=#000000;fillColor=none;fontColor=#ffffff;" vertex="1" parent="1">
          <mxGeometry x="635" y="225" width="90" height="80" as="geometry" />
        </mxCell>
        <mxCell id="ph8OzwvEkmPlt8eOSCm9-125" value="" style="endArrow=classic;html=1;rounded=0;entryX=0;entryY=0.75;entryDx=0;entryDy=0;labelBackgroundColor=none;strokeColor=#000000;fontColor=#ffffff;" edge="1" parent="1">
          <mxGeometry width="50" height="50" relative="1" as="geometry">
            <mxPoint x="725" y="265" as="sourcePoint" />
            <mxPoint x="795.96" y="264.02" as="targetPoint" />
          </mxGeometry>
        </mxCell>
        <mxCell id="ph8OzwvEkmPlt8eOSCm9-126" value="" style="shape=link;html=1;rounded=0;labelBackgroundColor=none;strokeColor=#000000;fontColor=#ffffff;" edge="1" parent="1">
          <mxGeometry width="100" relative="1" as="geometry">
            <mxPoint x="395" y="304" as="sourcePoint" />
            <mxPoint x="445" y="303.5699999999997" as="targetPoint" />
          </mxGeometry>
        </mxCell>
        <mxCell id="ph8OzwvEkmPlt8eOSCm9-127" value="" style="shape=link;html=1;rounded=0;entryX=0;entryY=0.5;entryDx=0;entryDy=0;labelBackgroundColor=none;strokeColor=#000000;fontColor=#ffffff;" edge="1" parent="1" target="ph8OzwvEkmPlt8eOSCm9-124">
          <mxGeometry width="100" relative="1" as="geometry">
            <mxPoint x="565" y="265.4300000000003" as="sourcePoint" />
            <mxPoint x="615" y="265" as="targetPoint" />
          </mxGeometry>
        </mxCell>
        <mxCell id="ph8OzwvEkmPlt8eOSCm9-128" value="&lt;font color=&quot;#000000&quot;&gt;found_item_&lt;/font&gt;&lt;div&gt;&lt;font color=&quot;#000000&quot;&gt;comment&lt;/font&gt;&lt;/div&gt;" style="rhombus;whiteSpace=wrap;html=1;labelBackgroundColor=none;strokeColor=#000000;fontColor=#ffffff;fillColor=none;" vertex="1" parent="1">
          <mxGeometry x="635" y="310" width="90" height="80" as="geometry" />
        </mxCell>
        <mxCell id="ph8OzwvEkmPlt8eOSCm9-129" value="" style="endArrow=classic;html=1;rounded=0;entryX=0;entryY=0.75;entryDx=0;entryDy=0;labelBackgroundColor=none;strokeColor=#000000;fontColor=#ffffff;" edge="1" parent="1">
          <mxGeometry width="50" height="50" relative="1" as="geometry">
            <mxPoint x="725" y="349" as="sourcePoint" />
            <mxPoint x="795.96" y="349.02" as="targetPoint" />
          </mxGeometry>
        </mxCell>
        <mxCell id="ph8OzwvEkmPlt8eOSCm9-130" value="" style="shape=link;html=1;rounded=0;entryX=0;entryY=0.5;entryDx=0;entryDy=0;labelBackgroundColor=none;strokeColor=#000000;fontColor=#ffffff;" edge="1" parent="1" target="ph8OzwvEkmPlt8eOSCm9-128">
          <mxGeometry width="100" relative="1" as="geometry">
            <mxPoint x="565" y="350.4300000000003" as="sourcePoint" />
            <mxPoint x="615" y="350" as="targetPoint" />
          </mxGeometry>
        </mxCell>
        <mxCell id="ph8OzwvEkmPlt8eOSCm9-131" value="&lt;div style=&quot;font-size: 14px; line-height: 170%;&quot;&gt;&lt;font color=&quot;#000000&quot; style=&quot;font-size: 14px;&quot;&gt;&lt;u style=&quot;&quot;&gt;activity_id&lt;/u&gt;&lt;/font&gt;&lt;/div&gt;&lt;div style=&quot;font-size: 14px; line-height: 170%;&quot;&gt;&lt;font color=&quot;#000000&quot;&gt;activity_type&lt;/font&gt;&lt;/div&gt;&lt;div style=&quot;font-size: 14px; line-height: 170%;&quot;&gt;&lt;font color=&quot;#000000&quot; style=&quot;font-size: 14px;&quot;&gt;score&lt;/font&gt;&lt;/div&gt;&lt;div style=&quot;font-size: 14px; line-height: 170%;&quot;&gt;&lt;font color=&quot;#000000&quot; style=&quot;font-size: 14px;&quot;&gt;date&lt;/font&gt;&lt;/div&gt;" style="rounded=0;whiteSpace=wrap;html=1;align=left;labelBackgroundColor=none;strokeColor=#000000;fontColor=#ffffff;fillColor=none;" vertex="1" parent="1">
          <mxGeometry x="500" y="440" width="120" height="90" as="geometry" />
        </mxCell>
        <mxCell id="ph8OzwvEkmPlt8eOSCm9-132" value="&lt;span style=&quot;text-align: start;&quot;&gt;&lt;font color=&quot;#000000&quot; style=&quot;font-size: 12px;&quot; face=&quot;Helvetica&quot;&gt;user_activity&lt;/font&gt;&lt;/span&gt;" style="rounded=0;whiteSpace=wrap;html=1;labelBackgroundColor=none;strokeColor=#000000;fontColor=#ffffff;fillColor=none;" vertex="1" parent="1">
          <mxGeometry x="500" y="410" width="120" height="30" as="geometry" />
        </mxCell>
        <mxCell id="ph8OzwvEkmPlt8eOSCm9-133" value="&lt;font color=&quot;#000000&quot;&gt;action&lt;/font&gt;" style="rhombus;whiteSpace=wrap;html=1;labelBackgroundColor=none;strokeColor=#000000;fontColor=#ffffff;fillColor=none;" vertex="1" parent="1">
          <mxGeometry x="370" y="420" width="80" height="80" as="geometry" />
        </mxCell>
        <mxCell id="ph8OzwvEkmPlt8eOSCm9-134" value="" style="endArrow=classic;html=1;rounded=0;exitX=0;exitY=0.5;exitDx=0;exitDy=0;entryX=1;entryY=0.5;entryDx=0;entryDy=0;labelBackgroundColor=none;strokeColor=#000000;fontColor=#ffffff;" edge="1" parent="1" source="ph8OzwvEkmPlt8eOSCm9-133" target="ph8OzwvEkmPlt8eOSCm9-57">
          <mxGeometry width="50" height="50" relative="1" as="geometry">
            <mxPoint x="510.03999999999996" y="439.9899999999998" as="sourcePoint" />
            <mxPoint x="460" y="322" as="targetPoint" />
            <Array as="points">
              <mxPoint x="310" y="460" />
              <mxPoint x="310" y="938" />
            </Array>
          </mxGeometry>
        </mxCell>
        <mxCell id="ph8OzwvEkmPlt8eOSCm9-135" value="" style="shape=link;html=1;rounded=0;labelBackgroundColor=none;strokeColor=#000000;fontColor=#ffffff;" edge="1" parent="1">
          <mxGeometry width="100" relative="1" as="geometry">
            <mxPoint x="450" y="459" as="sourcePoint" />
            <mxPoint x="500" y="458.5699999999997" as="targetPoint" />
          </mxGeometry>
        </mxCell>
        <mxCell id="ph8OzwvEkmPlt8eOSCm9-136" value="&lt;div style=&quot;font-size: 14px; line-height: 170%;&quot;&gt;&lt;font color=&quot;#000000&quot;&gt;points&lt;/font&gt;&lt;/div&gt;&lt;div style=&quot;font-size: 14px; line-height: 170%;&quot;&gt;&lt;font color=&quot;#000000&quot;&gt;change_date&lt;/font&gt;&lt;/div&gt;" style="rounded=0;whiteSpace=wrap;html=1;align=left;labelBackgroundColor=none;strokeColor=#000000;fontColor=#ffffff;fillColor=none;" vertex="1" parent="1">
          <mxGeometry x="499.96000000000004" y="760" width="120" height="50" as="geometry" />
        </mxCell>
        <mxCell id="ph8OzwvEkmPlt8eOSCm9-137" value="&lt;span style=&quot;text-align: start;&quot;&gt;&lt;font color=&quot;#000000&quot; style=&quot;font-size: 12px;&quot; face=&quot;Helvetica&quot;&gt;user_points&lt;/font&gt;&lt;/span&gt;" style="rounded=0;whiteSpace=wrap;html=1;labelBackgroundColor=none;strokeColor=#000000;fontColor=#ffffff;fillColor=none;" vertex="1" parent="1">
          <mxGeometry x="500" y="730" width="120" height="30" as="geometry" />
        </mxCell>
        <mxCell id="ph8OzwvEkmPlt8eOSCm9-138" value="&lt;font color=&quot;#000000&quot;&gt;score&lt;/font&gt;" style="rhombus;whiteSpace=wrap;html=1;labelBackgroundColor=none;strokeColor=#000000;fontColor=#ffffff;fillColor=none;" vertex="1" parent="1">
          <mxGeometry x="370" y="740" width="80" height="80" as="geometry" />
        </mxCell>
        <mxCell id="ph8OzwvEkmPlt8eOSCm9-139" value="" style="endArrow=classic;html=1;rounded=0;entryX=0.986;entryY=0.267;entryDx=0;entryDy=0;entryPerimeter=0;labelBackgroundColor=none;strokeColor=#000000;fontColor=#ffffff;exitX=0;exitY=0.5;exitDx=0;exitDy=0;" edge="1" parent="1" source="ph8OzwvEkmPlt8eOSCm9-138" target="ph8OzwvEkmPlt8eOSCm9-58">
          <mxGeometry width="50" height="50" relative="1" as="geometry">
            <mxPoint x="510" y="760" as="sourcePoint" />
            <mxPoint x="380" y="402" as="targetPoint" />
            <Array as="points">
              <mxPoint x="320" y="780" />
              <mxPoint x="320" y="946" />
            </Array>
          </mxGeometry>
        </mxCell>
        <mxCell id="ph8OzwvEkmPlt8eOSCm9-140" value="" style="endArrow=classic;html=1;rounded=0;labelBackgroundColor=none;strokeColor=#000000;fontColor=#ffffff;" edge="1" parent="1">
          <mxGeometry width="50" height="50" relative="1" as="geometry">
            <mxPoint x="450" y="780" as="sourcePoint" />
            <mxPoint x="499.96000000000004" y="780" as="targetPoint" />
          </mxGeometry>
        </mxCell>
        <mxCell id="ph8OzwvEkmPlt8eOSCm9-141" value="&lt;font color=&quot;#000000&quot;&gt;sum&lt;/font&gt;" style="rhombus;whiteSpace=wrap;html=1;labelBackgroundColor=none;strokeColor=#000000;fontColor=#ffffff;fillColor=none;fillStyle=solid;" vertex="1" parent="1">
          <mxGeometry x="519.96" y="590" width="80" height="80" as="geometry" />
        </mxCell>
        <mxCell id="ph8OzwvEkmPlt8eOSCm9-142" value="" style="endArrow=classic;html=1;rounded=0;exitX=0.5;exitY=1;exitDx=0;exitDy=0;entryX=0.5;entryY=0;entryDx=0;entryDy=0;labelBackgroundColor=none;strokeColor=#000000;fontColor=#ffffff;" edge="1" parent="1" source="ph8OzwvEkmPlt8eOSCm9-141" target="ph8OzwvEkmPlt8eOSCm9-137">
          <mxGeometry width="50" height="50" relative="1" as="geometry">
            <mxPoint x="569.96" y="630" as="sourcePoint" />
            <mxPoint x="619.96" y="580" as="targetPoint" />
          </mxGeometry>
        </mxCell>
        <mxCell id="ph8OzwvEkmPlt8eOSCm9-143" value="" style="shape=link;html=1;rounded=0;exitX=0.5;exitY=1;exitDx=0;exitDy=0;labelBackgroundColor=none;strokeColor=#000000;fontColor=#ffffff;" edge="1" parent="1" source="ph8OzwvEkmPlt8eOSCm9-131" target="ph8OzwvEkmPlt8eOSCm9-141">
          <mxGeometry width="100" relative="1" as="geometry">
            <mxPoint x="329.96000000000004" y="630" as="sourcePoint" />
            <mxPoint x="429.96000000000004" y="630" as="targetPoint" />
          </mxGeometry>
        </mxCell>
        <mxCell id="ph8OzwvEkmPlt8eOSCm9-144" value="user_id1" style="text;html=1;align=center;verticalAlign=middle;resizable=0;points=[];autosize=1;strokeColor=none;fillColor=none;" vertex="1" parent="1">
          <mxGeometry x="345" y="923" width="70" height="30" as="geometry" />
        </mxCell>
        <mxCell id="ph8OzwvEkmPlt8eOSCm9-145" value="" style="endArrow=none;html=1;rounded=0;exitX=0.5;exitY=0;exitDx=0;exitDy=0;edgeStyle=orthogonalEdgeStyle;entryX=1;entryY=0.5;entryDx=0;entryDy=0;" edge="1" parent="1" source="ph8OzwvEkmPlt8eOSCm9-74" target="ph8OzwvEkmPlt8eOSCm9-58">
          <mxGeometry width="50" height="50" relative="1" as="geometry">
            <mxPoint x="417.5" y="960" as="sourcePoint" />
            <mxPoint x="140" y="938" as="targetPoint" />
            <Array as="points">
              <mxPoint x="418" y="953" />
            </Array>
          </mxGeometry>
        </mxCell>
      </root>
    </mxGraphModel>
  </diagram>
</mxfile>
